<svg width="132" height="30" viewBox="0 0 132 30" fill="none" xmlns="http://www.w3.org/2000/svg">
<path d="M67.9369 21.6229H70.2695L64.8962 1.33771H61.6472C61.4806 1.8792 61.3973 2.29574 61.3973 2.29574C61.3973 2.29574 56.8988 19.5403 56.7738 19.9568C56.6488 20.3733 56.274 21.6646 56.274 21.6646L58.5232 21.6229C58.6065 21.373 58.6065 21.373 58.6065 21.373L61.5223 10.6264H65.0628L67.812 20.9148M64.6046 9.29351H61.7306L63.2301 4.04518L64.6046 9.29351Z" fill="white"/>
<path d="M12.2046 21.6229H14.5372L9.16393 1.33771H5.91496C5.74835 1.8792 5.66504 2.29574 5.66504 2.29574C5.66504 2.29574 1.12482 19.5819 0.999856 19.9568C0.874896 20.3317 0.500015 21.6646 0.500015 21.6646L2.79095 21.6229C2.87426 21.373 2.87426 21.373 2.87426 21.373L5.79 10.6264H9.33054L12.0797 20.9148M8.87235 9.29351H5.95661L7.45614 4.04518L8.87235 9.29351Z" fill="white"/>
<path d="M17.1197 21.6229V1.21271H23.6177C23.6177 1.21271 27.3665 1.83751 27.3665 5.83624C27.3665 9.83496 22.7846 10.2098 22.7846 10.2098L30.2406 21.5812H27.4914L20.0355 9.33512C20.0355 9.33512 24.784 9.75166 24.8256 6.16946C24.8256 3.33703 22.618 3.0038 22.618 3.0038H19.5773V21.5812H17.1197V21.6229Z" fill="white"/>
<path d="M73.1435 21.6229V1.21271H79.6415C79.6415 1.21271 83.3903 1.83751 83.3903 5.83624C83.3903 9.83496 78.7668 10.2098 78.7668 10.2098L86.2227 21.5812H83.4736L76.0176 9.29347C76.0176 9.29347 80.7661 9.71 80.8078 6.12781C80.8494 3.29538 78.6001 3.0038 78.6001 3.0038H75.5594V21.5812H73.1435V21.6229Z" fill="white"/>
<path d="M29.8657 2.79554V1.29602H41.4453V2.79554C41.4453 2.79554 41.487 2.79554 41.1954 2.79554H36.9468V21.6229H34.4059V2.79554H30.7404C30.7404 2.79554 30.1989 2.79554 29.8657 2.79554Z" fill="white"/>
<path d="M85.223 1.33767L93.0539 21.6645L101.593 1.29602H99.0936L93.3038 16.0413L87.8888 1.29602L85.223 1.33767Z" fill="white"/>
<path d="M113.381 2.96216H106.05V9.25183H112.09V10.9596H106.05V20.0817H113.297V21.7062H103.884C103.884 21.2897 103.884 21.248 103.884 21.248C103.884 21.248 103.884 2.33736 103.884 2.00413C103.884 1.67091 103.884 1.37933 103.884 1.37933H113.339L113.381 2.96216Z" fill="white"/>
<path d="M121.628 1.29602H116.63V21.5396H121.795C121.795 21.5396 128.918 21.2897 128.918 11.3345C128.959 2.2957 121.628 1.29602 121.628 1.29602ZM121.253 20.0401H119.046V2.9205L121.212 2.87885C121.212 2.87885 126.752 3.462 126.752 11.4595C126.752 19.4986 121.253 20.0401 121.253 20.0401Z" fill="white"/>
<path d="M51.817 2.6706C53.0666 2.50399 54.6911 2.71226 55.8158 3.71194C55.8991 3.79525 55.9407 3.79525 56.1073 3.96186L56.6488 4.37839C56.8988 3.8369 56.6488 4.4617 56.9821 3.62863C57.3153 2.83722 57.3153 2.83722 57.5652 2.21242C57.2736 2.21242 54.6495 1.17108 52.2752 1.17108C51.1089 1.17108 49.2345 1.29604 47.6517 1.92084C43.7363 3.50367 41.4453 7.25248 41.4453 13.2089C41.4453 13.2506 41.4453 13.2922 41.4453 13.3339C41.4453 20.3317 51.1089 27.9126 55.4409 29.3704H56.5655C56.5655 29.3704 44.6943 22.2477 44.2361 13.6255C44.2778 13.6671 43.6946 3.75359 51.817 2.6706Z" fill="white"/>
<path d="M128.917 2.00414C128.917 1.33769 129.417 0.837845 130.042 0.837845C130.667 0.837845 131.167 1.33769 131.167 2.00414C131.167 2.67059 130.667 3.17044 130.042 3.17044C129.417 3.17044 128.917 2.67059 128.917 2.00414ZM130.084 3.3787C130.834 3.3787 131.5 2.79556 131.5 2.00414C131.5 1.21273 130.834 0.629578 130.084 0.629578C129.334 0.629578 128.668 1.21273 128.668 2.00414C128.668 2.79556 129.292 3.3787 130.084 3.3787ZM129.792 2.1291H130.084L130.5 2.83721H130.792L130.334 2.1291C130.584 2.08745 130.75 1.96249 130.75 1.67091C130.75 1.33769 130.542 1.21273 130.167 1.21273H129.542V2.79556H129.792V2.1291ZM129.792 1.92083V1.42099H130.125C130.292 1.42099 130.459 1.46265 130.459 1.67091C130.459 1.92083 130.292 1.92083 130.084 1.92083H129.792Z" fill="white"/>
</svg>
