<svg width="220" height="40" viewBox="0 0 220 40" fill="none" xmlns="http://www.w3.org/2000/svg">
<g clip-path="url(#clip0_776_662)">
<path fill-rule="evenodd" clip-rule="evenodd" d="M12.9258 17.768C12.5007 18.3495 11.9031 18.783 11.2175 19.0072C10.6256 19.2156 10.018 19.3763 9.40032 19.4875C8.89194 19.57 8.3777 19.6115 7.86263 19.6114C7.0547 19.6114 6.49557 19.4667 6.18522 19.1773C5.85334 18.908 5.68764 17.9892 5.68811 16.4209V11.8988C5.68811 11.4647 5.72953 11.124 5.81239 10.8766C6.84734 10.794 7.59278 10.7527 8.0487 10.7527C9.95337 10.7527 11.3513 11.2225 12.2426 12.1621C13.1338 13.1016 13.5785 14.2321 13.5766 15.5535C13.5766 16.4403 13.3592 17.1785 12.9244 17.768H12.9258ZM2.76791 19.4868C2.66399 19.6735 2.34826 19.8387 1.82072 19.9825C1.29318 20.1263 0.895304 20.1986 0.627087 20.1995C0.565299 20.1995 0.534405 20.3337 0.534405 20.6021C0.534405 20.8705 0.565299 21.0357 0.627087 21.0978L4.38634 21.0047H8.642C11.0227 21.0047 12.9332 20.4833 14.3736 19.4406C15.8139 18.3979 16.5336 16.9887 16.5326 15.2132C16.5326 13.8298 15.9733 12.6269 14.8545 11.6047C13.7358 10.5826 12.7729 9.99912 11.9659 9.85443C11.9034 9.79212 11.9554 9.7305 12.1211 9.66819C12.4849 9.52819 12.8335 9.35179 13.1617 9.1417C13.5656 8.89385 14.0056 8.45043 14.4817 7.81145C14.9577 7.17246 15.196 6.48074 15.1965 5.73627C15.2058 5.0355 15.057 4.3416 14.7611 3.70589C14.5027 3.13908 14.1209 2.63681 13.6433 2.23562C13.1673 1.85166 12.638 1.53848 12.072 1.30585C11.5195 1.06853 10.9409 0.89698 10.3482 0.794754C9.8042 0.702681 9.25347 0.655845 8.70169 0.654729C8.18351 0.654729 7.58809 0.659863 6.91545 0.670131C6.2428 0.6804 5.37823 0.685534 4.32174 0.685534C2.93338 0.685534 1.70113 0.664764 0.624981 0.623223C0.541426 0.710039 0.5 0.882271 0.5 1.15042C0.5 1.39827 0.541426 1.52219 0.624279 1.52219C0.892964 1.52219 1.30208 1.59454 1.85162 1.73923C2.40116 1.88392 2.70659 2.03888 2.76791 2.20411C2.91255 2.76142 2.9851 3.64941 2.98557 4.86811V16.5757C2.98557 18.2686 2.91302 19.239 2.76791 19.4868ZM7.73835 9.45185C6.37152 9.45185 5.68811 9.37951 5.68811 9.23481V5.54863L5.81239 2.42045C5.81239 2.25569 5.87441 2.16234 5.99845 2.1404C6.51616 1.99618 7.2513 1.92383 8.20387 1.92336C9.61236 1.92336 10.6738 2.3201 11.3881 3.11358C12.1024 3.90706 12.4598 5.01957 12.4602 6.4511C12.4602 7.29779 12.1754 7.97458 11.6057 8.48147C11.0361 8.98837 10.3267 9.28265 9.47755 9.36434C8.90027 9.43071 8.31945 9.46181 7.73835 9.45745V9.45185ZM25.2785 7.06651C25.1887 7.065 25.0993 7.07922 25.0145 7.10852C24.9331 7.13926 24.8607 7.1898 24.8038 7.25555C24.7407 7.32556 24.688 7.38857 24.6459 7.44458C24.5885 7.52723 24.5391 7.61514 24.4984 7.70713C24.4422 7.82615 24.4001 7.92417 24.372 8.00118C24.3439 8.0782 24.3053 8.19489 24.2562 8.35125C24.2066 8.50528 24.1679 8.6173 24.1403 8.68731L20.4709 18.0823C20.1049 19.0215 19.7744 19.6803 19.4795 20.0588C19.3812 20.1848 19.1984 20.2829 18.9312 20.3529C18.7184 20.4144 18.4988 20.4497 18.2775 20.4579C18.2213 20.4579 18.1932 20.5559 18.1932 20.7519C18.1932 20.906 18.2213 21.011 18.2775 21.067L19.0259 21.025C19.2867 21.011 19.5221 20.997 19.7323 20.983C19.9429 20.969 20.1894 20.962 20.4702 20.962C20.5124 20.962 21.2363 20.997 22.642 21.067C22.6753 20.9511 22.686 20.8299 22.6736 20.7099C22.6665 20.5419 22.642 20.4579 22.5998 20.4579C22.3936 20.4461 22.1891 20.4144 21.989 20.3634C21.7081 20.2999 21.5043 20.2191 21.3774 20.1211C21.2646 20.0371 21.2084 19.8971 21.2089 19.701C21.2089 19.435 21.3283 18.9514 21.567 18.2504L22.4734 15.9399L22.5788 15.8769C23.6334 15.8069 24.526 15.7719 25.2567 15.7719C25.7772 15.7719 26.3113 15.7929 26.859 15.8349C26.8852 15.8381 26.9102 15.8474 26.9322 15.862C26.9541 15.8766 26.9723 15.8961 26.9854 15.9189L27.849 18.2924L27.9333 18.5234C27.9754 18.6635 28.021 18.8562 28.0702 19.1017C28.1154 19.3126 28.1401 19.5274 28.1439 19.7431C28.144 19.8564 28.1298 19.9693 28.1018 20.0791C28.0597 20.1921 27.912 20.2831 27.6587 20.3522C27.4537 20.415 27.2412 20.4503 27.0268 20.4572C26.9706 20.4572 26.939 20.5454 26.932 20.7204C26.925 20.8955 26.9496 21.011 27.0058 21.067L29.452 20.962C29.5924 20.962 30.3648 20.997 31.7691 21.067C31.7943 20.9997 31.8085 20.9288 31.8112 20.857C31.8112 20.5909 31.7831 20.4577 31.7269 20.4572C31.5584 20.4572 31.2984 20.3907 30.9469 20.2576C30.5953 20.1246 30.3774 19.9531 30.2932 19.7431C30.1387 19.393 29.9348 18.8884 29.6816 18.2294L25.4681 7.12952L25.2785 7.06651ZM22.9797 14.6349L24.7933 9.94404L26.5009 14.5901L26.4377 14.6951C25.7772 14.7371 25.1376 14.7581 24.5188 14.7581C24.252 14.7581 23.753 14.7441 23.0218 14.7161C22.9937 14.7161 22.9797 14.6881 22.9797 14.6321V14.6349ZM41.1974 10.9767C41.1974 11.7898 40.9338 12.4416 40.4068 12.9322C39.8797 13.4228 39.3702 13.668 38.8782 13.668H38.3509C37.1278 13.668 36.5162 13.4648 36.5162 13.0582V10.5118C36.5162 9.82572 36.5268 9.31766 36.5478 8.98767C36.5689 8.65767 36.597 8.44763 36.6321 8.35755C36.6411 8.32197 36.6585 8.28908 36.683 8.26166C36.7074 8.23423 36.7381 8.21309 36.7725 8.20002C37.1236 8.102 37.6151 8.05299 38.247 8.05299C40.213 8.05299 41.196 9.02711 41.196 10.9753L41.1974 10.9767ZM37.1067 7.17153C36.53 7.19954 36.031 7.21354 35.6098 7.21354L33.0821 7.17153C33.0259 7.22754 32.9985 7.34656 32.9978 7.5293C32.9978 7.69733 33.0259 7.78134 33.0821 7.78134C33.2646 7.78134 33.5424 7.83035 33.9155 7.92837C34.2886 8.02639 34.4959 8.13141 34.5376 8.24343C34.6359 8.6215 34.685 9.22408 34.685 10.0512V17.9976C34.685 19.1472 34.6359 19.8061 34.5376 19.9741C34.4664 20.1001 34.2558 20.2051 33.9057 20.2892C33.6368 20.3608 33.3608 20.403 33.0828 20.4152C33.0413 20.4152 33.0203 20.5062 33.0203 20.6882C33.0203 20.8983 33.0411 21.0243 33.0828 21.0663L35.6554 20.9613C36.0767 20.9613 36.9895 20.9963 38.3937 21.0663C38.4245 20.9642 38.4388 20.8578 38.4359 20.7512C38.4359 20.5552 38.4078 20.4572 38.3516 20.4572C38.1691 20.4572 37.8601 20.4005 37.4346 20.2892C37.0091 20.1778 36.7564 20.0294 36.6861 19.8474C36.5729 19.5673 36.5167 18.9577 36.5176 18.0186V14.929C36.5141 14.8835 36.5198 14.8377 36.5342 14.7945C36.5487 14.7512 36.5717 14.7112 36.6019 14.6769C36.6457 14.6273 36.7051 14.594 36.7704 14.5824C36.8544 14.574 36.9388 14.5705 37.0232 14.5719C37.3883 14.5719 37.6483 14.5999 37.8032 14.6559C37.9592 14.7266 38.1045 14.8185 38.2351 14.929C38.4061 15.0813 38.5615 15.2502 38.6992 15.4331C38.8747 15.658 39.0294 15.8648 39.1633 16.0534C39.2972 16.2419 39.5078 16.5502 39.7952 16.9782C40.0831 17.4058 40.3405 17.7738 40.5676 18.0823C42.0149 20.1011 43.7234 21.1102 45.6932 21.1097C45.8849 21.1133 46.0763 21.0921 46.2626 21.0467C46.3077 20.9479 46.3293 20.8401 46.3258 20.7316C46.3279 20.6298 46.3063 20.5289 46.2626 20.4369C45.4201 20.4369 44.3235 19.701 42.9731 18.2294C42.0599 17.2347 41.2517 16.0013 40.5486 14.5292C40.4924 14.4452 40.5346 14.3752 40.675 14.3192C41.4019 13.9961 42.0255 13.4796 42.4774 12.8265C42.9207 12.1824 43.1421 11.5658 43.1416 10.9767C43.1416 10.2901 42.9871 9.68756 42.6782 9.169C42.3933 8.6757 41.9868 8.26312 41.4972 7.97038C41.0409 7.69995 40.552 7.48822 40.0424 7.34026C39.5696 7.20302 39.0799 7.13233 38.5875 7.13022C38.1794 7.13022 37.6879 7.14423 37.113 7.17223L37.1067 7.17153ZM59.3751 17.0931C59.2823 17.0587 59.1873 17.0307 59.0907 17.009C58.9908 16.9839 58.8883 16.9698 58.7853 16.967C58.7431 16.967 58.6832 17.0826 58.6055 17.3136C58.5278 17.5446 58.4155 17.8319 58.2685 18.1755C58.1456 18.4799 57.9708 18.7609 57.7517 19.0058C56.9925 19.8194 55.9173 20.2259 54.5261 20.2254C53.3591 20.2254 52.3504 19.9137 51.4999 19.2901C50.6688 18.6909 50.0225 17.8716 49.6343 16.925C49.2326 15.9298 49.032 14.8654 49.0438 13.7927C49.0438 12.265 49.5287 10.8951 50.4986 9.6829C51.4685 8.47074 52.6423 7.86396 54.0199 7.86256C54.6226 7.85482 55.2231 7.93622 55.8019 8.1041C56.3285 8.2656 56.736 8.45487 57.0243 8.67191C57.3114 8.88956 57.5601 9.15339 57.7601 9.45255C57.9244 9.67995 58.0592 9.9272 58.1611 10.1884C58.2243 10.3774 58.2769 10.5637 58.3191 10.7485C58.3612 10.8185 58.4525 10.8535 58.5929 10.8535C58.8878 10.8535 59.0359 10.7485 59.0359 10.5385C59.0359 10.3984 59.05 9.38931 59.0781 7.51109C57.391 7.1681 55.6742 6.99198 53.9524 6.9853C52.0127 6.9853 50.3743 7.69663 49.0375 9.11929C47.7006 10.542 47.0329 12.2484 47.0343 14.2386C47.0343 16.1173 47.6845 17.736 48.9848 19.0947C50.2852 20.4534 51.8629 21.133 53.7179 21.1335C56.0514 21.1335 57.7311 20.8255 58.7572 20.2093C58.8414 20.1673 58.9819 19.6873 59.1785 18.7692C59.3751 17.8511 59.4734 17.3143 59.4734 17.1589L59.3751 17.0931ZM61.9238 7.16103C61.3621 7.12602 60.9898 7.10269 60.8067 7.09102C60.7501 7.14703 60.7218 7.25905 60.7218 7.42708C60.7218 7.60911 60.7499 7.70013 60.8067 7.70013C61.0827 7.71333 61.3562 7.75796 61.6219 7.83315C61.98 7.9265 62.1801 8.02802 62.2222 8.13771C62.3205 8.51625 62.3697 9.15407 62.3697 10.0512V17.9976C62.3697 19.1472 62.3205 19.8058 62.2222 19.9734C62.152 20.0994 61.9414 20.2044 61.5903 20.2885C61.3216 20.3608 61.0456 20.403 60.7674 20.4145C60.7253 20.4145 60.7042 20.5062 60.7042 20.6882C60.7042 20.8703 60.7253 20.9823 60.7674 21.0243L63.319 20.9613C64.2748 20.9613 65.5293 20.9823 67.0825 21.0243C68.6356 21.0663 69.7777 21.0873 70.5089 21.0873C70.5509 20.8165 70.6143 20.5494 70.6985 20.2885C70.7968 19.9664 70.8883 19.6826 70.973 19.4371C71.0577 19.1916 71.1748 18.8693 71.3241 18.4702C71.4715 18.0707 71.5806 17.7799 71.6513 17.5979C71.567 17.5138 71.3908 17.4718 71.124 17.4718C70.9555 17.4718 70.8565 17.5138 70.8291 17.5979C70.6942 18.0861 70.4843 18.5507 70.207 18.975C69.9467 19.3601 69.7113 19.6089 69.5006 19.7213C69.0363 19.9594 68.1506 20.0784 66.8437 20.0784H65.8242C64.911 20.0784 64.433 20.0084 64.3904 19.8684C64.2641 19.3778 64.2009 18.7612 64.2009 18.0186V10.0918C64.2009 9.27869 64.2641 8.62687 64.3904 8.13631C64.4185 8.03829 64.6154 7.94027 64.9809 7.84226C65.3465 7.74424 65.5995 7.69523 65.74 7.69523C65.7961 7.69523 65.8242 7.59721 65.8242 7.40117C65.8271 7.29459 65.8129 7.18823 65.7821 7.08612L65.0231 7.13863C64.7141 7.15963 64.426 7.17713 64.1587 7.19113C63.8919 7.20514 63.6174 7.21214 63.3365 7.21214C62.9574 7.21214 62.4865 7.19464 61.9238 7.15963V7.16103ZM79.4247 7.06651C79.3349 7.065 79.2455 7.07922 79.1607 7.10852C79.0793 7.13926 79.0069 7.1898 78.95 7.25555C78.8868 7.32556 78.8342 7.38857 78.792 7.44458C78.7344 7.52721 78.6848 7.61513 78.6439 7.70713C78.5877 7.82615 78.5456 7.92417 78.5175 8.00118C78.4894 8.0782 78.4508 8.19489 78.4016 8.35125C78.3525 8.50528 78.3139 8.6173 78.2858 8.68731L74.6171 18.0844C74.2511 19.0231 73.9206 19.6817 73.6257 20.0602C73.5274 20.1862 73.3448 20.2843 73.078 20.3543C72.8654 20.4164 72.6458 20.4517 72.4243 20.4593C72.3682 20.4593 72.3401 20.558 72.3401 20.754C72.3401 20.9081 72.3682 21.0131 72.4243 21.0691L73.1728 21.0271C73.4326 21.0131 73.6685 20.9991 73.8792 20.9851C74.0898 20.9711 74.3355 20.9641 74.6171 20.9641C74.6592 20.9641 75.3831 20.9991 76.7888 21.0691C76.8217 20.9531 76.8324 20.832 76.8204 20.712C76.8134 20.544 76.7888 20.4593 76.7502 20.4593C76.5437 20.4482 76.3388 20.4165 76.1386 20.3648C75.8578 20.3018 75.6539 20.2212 75.5271 20.1232C75.4147 20.0392 75.3586 19.8992 75.3586 19.7031C75.3586 19.4371 75.4779 18.9535 75.7167 18.2525L76.6238 15.942L76.7291 15.879C77.7833 15.809 78.6759 15.774 79.4071 15.774C79.9267 15.774 80.4608 15.795 81.0094 15.837C81.0355 15.8405 81.0605 15.8498 81.0824 15.8644C81.1043 15.8789 81.1226 15.8983 81.1358 15.921L82.0001 18.2966L82.0844 18.5276C82.1265 18.6677 82.1721 18.8609 82.2248 19.1059C82.2697 19.3169 82.2944 19.5316 82.2985 19.7473C82.2979 19.8605 82.2837 19.9734 82.2564 20.0833C82.2138 20.1963 82.0661 20.2873 81.8133 20.3564C81.6082 20.4189 81.3958 20.4542 81.1814 20.4614C81.1252 20.4614 81.0936 20.5489 81.0866 20.7246C81.0796 20.9004 81.1042 21.0152 81.1603 21.0712L83.6059 20.9662C83.7463 20.9662 84.5187 21.0012 85.9229 21.0712C85.9477 21.0038 85.9619 20.9329 85.9651 20.8612C85.9651 20.5951 85.9363 20.4614 85.8808 20.4614C85.7114 20.4614 85.4513 20.3949 85.1007 20.2618C84.7501 20.1288 84.5322 19.9571 84.447 19.7466C84.2916 19.3965 84.0878 18.8919 83.8355 18.2329L79.6142 7.12812L79.4247 7.06651ZM77.1258 14.6349L78.9395 9.94404L80.6499 14.5929L80.5867 14.6979C79.9262 14.7399 79.2868 14.7609 78.6684 14.7609C78.4012 14.7609 77.9019 14.7469 77.1708 14.7189C77.1427 14.7189 77.1286 14.6909 77.1286 14.6349H77.1258ZM87.8819 7.16103L86.7437 7.09102C86.6876 7.14703 86.6595 7.25905 86.6595 7.42708C86.6595 7.58111 86.6876 7.65812 86.7437 7.65812C86.8842 7.65812 87.1091 7.70713 87.4185 7.80515C87.6651 7.87432 87.8998 7.98055 88.1143 8.12021C88.311 8.24896 88.4855 8.40854 88.6311 8.59279C88.8206 8.87145 88.9925 9.16163 89.1458 9.46165C90.5936 12.0545 91.4687 13.6414 91.7711 14.2225C92.0735 14.8036 92.2246 15.1924 92.2246 15.3889V18.0172C92.2246 18.9283 92.1682 19.6009 92.0554 20.035C92.0133 20.1475 91.82 20.2525 91.4755 20.3501C91.131 20.4476 90.8735 20.4966 90.7031 20.4971C90.6469 20.4971 90.6189 20.5881 90.6189 20.7701C90.6189 20.9102 90.6469 21.0082 90.7031 21.0642C92.3194 20.9942 93.1489 20.9592 93.1915 20.9592C93.36 20.9592 94.1471 20.9942 95.5528 21.0642C95.5826 20.9691 95.5968 20.8698 95.5949 20.7701C95.5949 20.5881 95.5668 20.4971 95.5107 20.4971C95.3843 20.4971 95.1453 20.4446 94.7938 20.3396C94.4422 20.2345 94.2524 20.133 94.2243 20.035C94.112 19.6009 94.0558 18.9491 94.0558 18.0795V14.887C94.0558 14.6909 94.5653 13.7518 95.5844 12.0696C96.6034 10.3875 97.3802 9.13306 97.9148 8.30644C98.0552 8.12441 98.3361 7.97038 98.7573 7.84436C99.1786 7.71833 99.4738 7.65532 99.6427 7.65532C99.6989 7.65532 99.727 7.57131 99.727 7.40327C99.7299 7.29669 99.7157 7.19032 99.6849 7.08822C99.5585 7.08822 99.2634 7.10922 98.7995 7.15123C98.3356 7.19324 97.8858 7.21424 97.45 7.21424C97.3517 7.21424 96.5222 7.17223 94.9616 7.08822C94.9054 7.14423 94.8773 7.25275 94.8773 7.41378C94.8773 7.57481 94.9054 7.65532 94.9616 7.65532C95.3201 7.64425 95.6757 7.72373 95.9951 7.88636C96.276 8.04086 96.4164 8.19512 96.4164 8.34915C96.4164 8.84017 95.4606 10.5291 93.5489 13.416C93.4787 13.514 93.4084 13.528 93.3382 13.458L90.9769 9.00097C90.822 8.73492 90.7445 8.52488 90.7445 8.37085C90.7445 8.13281 90.8957 7.95404 91.1981 7.83455C91.4552 7.72513 91.7304 7.66458 92.0098 7.65602C92.0519 7.65602 92.0753 7.57551 92.08 7.41448C92.0935 7.30473 92.0827 7.19337 92.0484 7.08822C90.3633 7.17223 89.4355 7.21424 89.2651 7.21424C88.8719 7.21424 88.4081 7.19674 87.8735 7.16173L87.8819 7.16103ZM101.45 11.6706C101.548 11.99 101.709 12.2864 101.925 12.5422C102.149 12.8153 102.346 13.0465 102.515 13.2361C102.684 13.4256 102.955 13.6428 103.327 13.8879C103.701 14.1329 103.968 14.3045 104.128 14.4025C104.288 14.5005 104.572 14.6687 104.982 14.9073C105.109 14.9773 105.341 15.1033 105.678 15.2853C106.015 15.4674 106.247 15.6004 106.373 15.6844C106.501 15.7684 106.68 15.8982 106.911 16.0737C107.103 16.2067 107.267 16.3744 107.396 16.568C107.503 16.7553 107.591 16.9522 107.66 17.1561C107.746 17.4063 107.789 17.6693 107.786 17.9339C107.786 18.7045 107.54 19.3003 107.048 19.7213C106.556 20.1424 105.959 20.3524 105.256 20.3515C103.4 20.3515 102.234 19.3423 101.756 17.3241C101.658 17.1981 101.482 17.1351 101.229 17.1351C101.004 17.1351 100.892 17.1771 100.892 17.2611C100.892 17.7652 101.067 18.8793 101.418 20.6035C101.574 20.6315 101.845 20.691 102.231 20.782C102.617 20.8731 102.937 20.9431 103.19 20.9921C103.443 21.0411 103.759 21.0901 104.139 21.1391C104.495 21.1867 104.854 21.2112 105.214 21.2126C106.394 21.2126 107.424 20.8518 108.304 20.1302C109.183 19.4086 109.622 18.4873 109.622 17.3661C109.622 17.0293 109.554 16.6959 109.421 16.3859C109.309 16.1094 109.167 15.8452 109 15.5976C108.793 15.3265 108.552 15.0828 108.283 14.8723C107.952 14.5992 107.71 14.4102 107.556 14.3051C107.402 14.2001 107.114 14.0179 106.692 13.7583L105.949 13.3124C105.851 13.2564 105.623 13.1163 105.264 12.8923C104.906 12.6682 104.667 12.5142 104.547 12.4302C104.428 12.3462 104.238 12.1989 103.978 11.9884C103.717 11.7779 103.538 11.5912 103.44 11.4283C103.325 11.2336 103.227 11.0299 103.145 10.8192C103.047 10.5744 102.996 10.3129 102.998 10.0491C102.998 9.43202 103.17 8.91345 103.514 8.49338C103.858 8.0733 104.452 7.86326 105.296 7.86326C106.054 7.86326 106.698 8.15405 107.225 8.73562C107.753 9.31719 108.051 9.91627 108.121 10.5329C108.149 10.6729 108.332 10.7429 108.669 10.7429C108.81 10.7429 108.88 10.6939 108.88 10.5959C108.88 9.33563 108.796 8.33351 108.627 7.58951C108.374 7.5335 108.082 7.45998 107.752 7.36897C107.422 7.27795 107.169 7.21144 106.993 7.16943C106.77 7.11904 106.545 7.08048 106.318 7.05391C106.028 7.0175 105.736 6.99996 105.443 7.0014C104.386 6.98849 103.36 7.35897 102.557 8.04389C101.728 8.73749 101.313 9.62432 101.312 10.7044C101.312 11.032 101.36 11.3579 101.453 11.672L101.45 11.6706ZM118.657 0.60852C117.826 0.557177 117.277 0.521004 117.007 0.5C116.923 0.583549 116.88 0.748779 116.88 0.995692C116.88 1.26454 116.922 1.39873 117.005 1.39827C117.274 1.39827 117.672 1.46548 118.198 1.5999C118.725 1.73433 119.02 1.88392 119.084 2.04869C119.228 2.60879 119.301 3.52783 119.301 4.8058V18.6193C119.312 19.7871 119.218 20.9535 119.02 22.1046C118.833 23.1268 118.595 23.9165 118.306 24.4738C118.016 25.0311 117.721 25.4545 117.42 25.7439C117.12 26.0323 116.825 26.1768 116.535 26.1772C116.266 26.1772 115.898 25.9553 115.432 25.5114C114.967 25.0675 114.547 24.8456 114.174 24.8456C113.688 24.8354 113.212 24.9879 112.823 25.279C112.44 25.5679 112.249 25.9397 112.248 26.3943C112.248 26.869 112.373 27.251 112.621 27.5404L112.838 27.6643C113.049 27.7633 113.267 27.8461 113.49 27.9122C113.731 27.9897 113.983 28.0314 114.236 28.0361C116.493 28.0361 118.352 27.0757 119.812 25.1551C121.273 23.2344 122.004 20.9732 122.006 18.3715V4.92902C122.006 3.7318 122.1 2.77169 122.287 2.04869C122.328 1.90446 122.618 1.76 123.157 1.61531C123.695 1.47061 124.068 1.39827 124.275 1.39827C124.357 1.39827 124.399 1.25404 124.399 0.964886C124.404 0.807588 124.383 0.650629 124.337 0.5C124.047 0.521004 123.674 0.546909 123.218 0.577714C122.763 0.60852 122.338 0.634191 121.945 0.654729C121.552 0.675732 121.148 0.686001 120.734 0.685534C120.175 0.685534 119.481 0.659863 118.652 0.60852H118.657ZM125.907 7.17153C125.851 7.22754 125.823 7.34656 125.823 7.5286C125.823 7.69663 125.851 7.78064 125.907 7.78064C126.09 7.78064 126.367 7.82965 126.74 7.92767C127.112 8.02569 127.32 8.13071 127.362 8.24273C127.46 8.62127 127.509 9.22408 127.509 10.0512V17.9976C127.509 19.1463 127.46 19.8049 127.362 19.9734C127.292 20.0994 127.077 20.2117 126.719 20.3102C126.36 20.4086 126.09 20.4577 125.907 20.4572C125.865 20.4572 125.844 20.5482 125.844 20.7302C125.844 20.913 125.865 21.0243 125.907 21.0663L128.458 21.0033C129.441 21.0033 130.706 21.0173 132.254 21.0453C133.801 21.0733 134.933 21.0873 135.648 21.0873C135.69 20.8167 135.754 20.5498 135.838 20.2892C135.936 19.9671 136.028 19.6831 136.112 19.4371C136.196 19.1911 136.313 18.8688 136.463 18.4702C136.61 18.0711 136.719 17.7804 136.789 17.5979C136.705 17.5138 136.529 17.4718 136.262 17.4718C136.094 17.4718 135.995 17.5138 135.967 17.5979C135.832 18.0862 135.623 18.5508 135.345 18.975C135.084 19.3605 134.849 19.6093 134.639 19.7213C134.175 19.9594 133.29 20.0784 131.982 20.0784H130.97C130.056 20.0784 129.578 20.0084 129.536 19.8684C129.41 19.5043 129.347 18.8667 129.347 17.9556V14.6979C129.347 14.5719 129.853 14.5089 130.865 14.5089C132.172 14.5089 132.917 14.5649 133.1 14.6769C133.163 14.7168 133.223 14.7625 133.279 14.8134C133.314 14.8484 133.367 14.9605 133.437 15.1495C133.507 15.3385 133.591 15.6223 133.69 16.0009C133.732 16.1129 133.845 16.1689 134.027 16.1689C134.196 16.1689 134.309 16.1409 134.365 16.0849V12.1116C134.295 12.0416 134.175 12.0066 134.006 12.0066C133.81 12.0066 133.704 12.0556 133.69 12.1537C133.606 12.4764 133.556 12.6759 133.543 12.753C133.506 12.8821 133.453 13.0059 133.384 13.1212C133.29 13.2893 133.217 13.3803 133.163 13.3943C133.109 13.4083 132.983 13.4433 132.784 13.4993C132.601 13.553 132.412 13.5813 132.222 13.5833H130.25C129.646 13.5833 129.343 13.5413 129.344 13.4573V10.0918C129.344 9.25162 129.379 8.66281 129.449 8.32534C129.477 8.14331 130.096 8.05229 131.304 8.05229H132.717C133.378 8.05229 133.898 8.16105 134.278 8.37855C134.657 8.59606 134.953 9.09012 135.163 9.86073C135.177 9.95875 135.276 10.0078 135.458 10.0078C135.641 10.0078 135.767 9.97275 135.838 9.90274C135.809 9.7347 135.714 9.31766 135.553 8.6516C135.392 7.98555 135.283 7.44878 135.226 7.04131C134.439 7.04131 133.265 7.06931 131.705 7.12532C130.145 7.18133 129.049 7.20934 128.416 7.20934C127.474 7.20934 126.638 7.19534 125.907 7.16733V7.17153ZM137.672 7.08752C137.616 7.14353 137.588 7.25555 137.588 7.42358C137.588 7.60561 137.616 7.69663 137.672 7.69663C137.896 7.70718 138.116 7.75327 138.326 7.83315C138.593 7.92417 138.782 8.04319 138.895 8.18322C139.303 8.70178 139.711 9.37461 140.118 10.2017L145.598 21.0677C145.617 21.1007 145.645 21.1279 145.678 21.1464C145.711 21.1649 145.749 21.174 145.787 21.1727C146.124 21.1727 146.398 20.9484 146.61 20.4999L148.887 15.809L151.459 21.0649C151.478 21.0982 151.506 21.1257 151.539 21.1442C151.573 21.1628 151.611 21.1717 151.649 21.1699C151.986 21.1699 152.26 20.9456 152.471 20.4971L156.941 10.4061C157.349 9.46749 157.757 8.75966 158.164 8.28264C158.318 8.1006 158.55 7.95708 158.86 7.85206C159.169 7.74704 159.394 7.69453 159.535 7.69453C159.591 7.69453 159.619 7.59651 159.619 7.40047C159.622 7.29388 159.608 7.18751 159.577 7.08542C159.38 7.09942 159.169 7.11342 158.945 7.12742C158.721 7.14143 158.502 7.15543 158.291 7.16873C158.08 7.18203 157.814 7.18974 157.49 7.18974C157.181 7.18974 156.464 7.15473 155.339 7.08472C155.283 7.14073 155.255 7.25695 155.255 7.43478C155.255 7.61261 155.283 7.69733 155.339 7.69733C155.606 7.70622 155.868 7.76686 156.112 7.87586C156.399 7.99582 156.544 8.17458 156.544 8.41216C156.544 8.72068 156.424 9.16223 156.185 9.7368L152.408 18.3771C152.324 18.6021 152.24 18.6371 152.156 18.4821L149.858 13.7731L151.481 10.4516C152.043 9.31603 152.45 8.59419 152.704 8.28614C152.845 8.11811 153.087 7.97808 153.432 7.86606C153.776 7.75404 154.018 7.69803 154.159 7.69803C154.201 7.69803 154.225 7.61051 154.229 7.43548C154.233 7.26045 154.229 7.14493 154.198 7.08542C152.793 7.1559 152.062 7.1909 152.005 7.19043C151.709 7.19043 150.999 7.15543 149.875 7.08542C149.818 7.14143 149.79 7.25765 149.79 7.43548C149.79 7.61331 149.818 7.69803 149.875 7.69803C150.147 7.70774 150.414 7.76461 150.666 7.86606C150.968 7.97901 151.119 8.15428 151.119 8.39186C151.108 8.81464 151.008 9.23037 150.824 9.61148L149.349 12.7019L147.958 9.86353C147.634 9.19094 147.472 8.67238 147.472 8.30784C147.472 8.22538 147.495 8.14445 147.538 8.07393C147.58 8.0034 147.642 7.94602 147.715 7.90807C147.85 7.82073 148 7.76011 148.158 7.72954C148.274 7.70981 148.391 7.69928 148.509 7.69803C148.551 7.69803 148.575 7.61051 148.579 7.43548C148.583 7.26045 148.579 7.14493 148.547 7.08542C147.143 7.1559 146.412 7.1909 146.355 7.19043C146.199 7.19043 145.314 7.15543 143.698 7.08542C143.642 7.14143 143.613 7.23944 143.613 7.37947C143.613 7.58951 143.642 7.69453 143.698 7.69453C143.922 7.70655 144.142 7.7538 144.351 7.83455C144.618 7.92557 144.808 8.04226 144.921 8.18462C145.328 8.70318 145.736 9.376 146.143 10.2031L148.357 14.7441L146.607 18.3806C146.58 18.4499 146.527 18.5063 146.46 18.5381C146.447 18.5463 146.433 18.5519 146.418 18.5545C146.403 18.5572 146.388 18.5569 146.373 18.5536C146.358 18.5504 146.344 18.5443 146.332 18.5356C146.319 18.5269 146.309 18.5159 146.301 18.5031C146.297 18.4975 146.294 18.4917 146.291 18.4856L141.926 9.86633C141.603 9.25022 141.442 8.73165 141.442 8.31064C141.442 8.15661 141.523 8.02709 141.684 7.92207C141.82 7.82706 141.974 7.76256 142.138 7.73304C142.256 7.71346 142.376 7.70292 142.496 7.70153C142.538 7.70153 142.566 7.61401 142.569 7.43828C142.573 7.26255 142.566 7.14773 142.538 7.08822C141.134 7.15823 140.396 7.19324 140.324 7.19324C140.17 7.19324 139.284 7.15823 137.667 7.08822L137.672 7.08752ZM160.632 7.17153C160.575 7.22754 160.548 7.34656 160.548 7.5286C160.548 7.69663 160.575 7.78064 160.632 7.78064C160.815 7.78064 161.092 7.82965 161.465 7.92767C161.837 8.02569 162.045 8.13071 162.087 8.24273C162.185 8.62127 162.234 9.22408 162.234 10.0512V17.9976C162.234 19.1463 162.185 19.8049 162.087 19.9734C162.016 20.0994 161.802 20.2117 161.444 20.3102C161.086 20.4086 160.815 20.4577 160.632 20.4572C160.59 20.4572 160.569 20.5482 160.569 20.7302C160.569 20.913 160.59 21.0243 160.632 21.0663L163.183 21.0033C164.166 21.0033 165.431 21.0173 166.979 21.0453C168.526 21.0733 169.658 21.0873 170.373 21.0873C170.415 20.8167 170.479 20.5498 170.563 20.2892C170.661 19.9671 170.753 19.6828 170.837 19.4371C170.921 19.1914 171.037 18.87 171.188 18.4702C171.339 18.0704 171.445 17.7799 171.515 17.5979C171.431 17.5138 171.255 17.4718 170.988 17.4718C170.819 17.4718 170.721 17.5138 170.693 17.5979C170.558 18.0862 170.348 18.5508 170.071 18.975C169.811 19.3605 169.575 19.6093 169.364 19.7213C168.901 19.9594 168.015 20.0784 166.708 20.0784H165.696C164.782 20.0784 164.304 20.0084 164.262 19.8684C164.136 19.5043 164.072 18.8667 164.072 17.9556V14.6979C164.072 14.5719 164.578 14.5089 165.59 14.5089C166.897 14.5089 167.642 14.5649 167.825 14.6769C167.889 14.7168 167.949 14.7625 168.004 14.8134C168.04 14.8484 168.092 14.9605 168.162 15.1495C168.233 15.3385 168.317 15.6223 168.416 16.0009C168.458 16.1129 168.57 16.1689 168.753 16.1689C168.921 16.1689 169.034 16.1409 169.091 16.0849V12.1116C169.019 12.0416 168.9 12.0066 168.732 12.0066C168.534 12.0066 168.429 12.0556 168.416 12.1537C168.331 12.4766 168.281 12.6764 168.268 12.753C168.232 12.8824 168.179 13.0063 168.11 13.1212C168.018 13.2893 167.945 13.3803 167.889 13.3943C167.832 13.4083 167.705 13.4433 167.509 13.4993C167.327 13.5527 167.14 13.581 166.951 13.5833H164.977C164.372 13.5833 164.07 13.5413 164.07 13.4573V10.0918C164.07 9.25162 164.105 8.66281 164.176 8.32534C164.204 8.14331 164.822 8.05229 166.031 8.05229H167.443C168.104 8.05229 168.624 8.16105 169.004 8.37855C169.383 8.59606 169.678 9.09012 169.89 9.86073C169.903 9.95875 170.002 10.0078 170.185 10.0078C170.367 10.0078 170.494 9.97275 170.564 9.90274C170.535 9.7347 170.44 9.31766 170.279 8.6516C170.118 7.98555 170.009 7.44878 169.953 7.04131C169.165 7.04131 167.991 7.06931 166.432 7.12532C164.872 7.18133 163.775 7.20934 163.142 7.20934C162.2 7.20934 161.364 7.19534 160.633 7.16733L160.632 7.17153ZM173.957 7.16103C173.395 7.12602 173.023 7.10269 172.84 7.09102C172.784 7.14703 172.756 7.25905 172.756 7.42708C172.756 7.60911 172.784 7.70013 172.84 7.70013C173.115 7.71468 173.387 7.76048 173.652 7.83665C174.01 7.93 174.21 8.03152 174.253 8.14121C174.351 8.51975 174.4 9.15757 174.4 10.0547V18.0011C174.4 19.1507 174.351 19.8093 174.253 19.9769C174.182 20.1029 173.971 20.2079 173.621 20.292C173.352 20.3643 173.077 20.4065 172.799 20.418C172.756 20.418 172.735 20.5097 172.735 20.6917C172.735 20.8738 172.756 20.9858 172.799 21.0278L175.349 20.9648C176.305 20.9648 177.56 20.9858 179.114 21.0278C180.668 21.0698 181.81 21.0908 182.539 21.0908C182.582 20.82 182.645 20.5528 182.73 20.292C182.827 19.9699 182.919 19.6863 183.004 19.4406C183.088 19.1949 183.204 18.8728 183.355 18.4737C183.506 18.0746 183.611 17.7834 183.681 17.6014C183.597 17.5173 183.421 17.4753 183.154 17.4753C182.985 17.4753 182.887 17.5173 182.859 17.6014C182.724 18.0896 182.514 18.5542 182.237 18.9785C181.976 19.3636 181.741 19.6121 181.53 19.7241C181.067 19.9631 180.181 20.0824 178.874 20.0819H177.862C176.948 20.0819 176.47 20.0119 176.428 19.8719C176.302 19.3813 176.238 18.7647 176.238 18.0221V10.0918C176.238 9.27869 176.302 8.62687 176.428 8.13631C176.456 8.03829 176.653 7.94027 177.018 7.84226C177.384 7.74424 177.637 7.69523 177.777 7.69523C177.833 7.69523 177.862 7.59721 177.862 7.40117C177.865 7.29459 177.85 7.18823 177.82 7.08612L177.061 7.13863C176.751 7.15963 176.463 7.17713 176.196 7.19113C175.929 7.20514 175.654 7.21214 175.373 7.21214C174.994 7.21214 174.523 7.19464 173.961 7.15963L173.957 7.16103ZM184.647 7.17153C184.591 7.22754 184.563 7.34656 184.563 7.5286C184.563 7.69663 184.591 7.78064 184.647 7.78064C184.83 7.78064 185.108 7.82965 185.481 7.92767C185.854 8.02569 186.061 8.13071 186.102 8.24273C186.2 8.62127 186.25 9.22408 186.25 10.0512V17.9976C186.25 19.1463 186.201 19.8049 186.102 19.9734C186.032 20.0994 185.817 20.2117 185.459 20.3102C185.1 20.4086 184.83 20.4577 184.647 20.4572C184.605 20.4572 184.584 20.5482 184.584 20.7302C184.584 20.913 184.605 21.0243 184.647 21.0663L187.199 21.0033C188.182 21.0033 189.447 21.0173 190.994 21.0453C192.541 21.0733 193.673 21.0873 194.389 21.0873C194.431 20.8167 194.494 20.5498 194.578 20.2892C194.677 19.9671 194.768 19.6831 194.853 19.4371C194.938 19.1911 195.055 18.8688 195.204 18.4702C195.351 18.0711 195.46 17.7804 195.531 17.5979C195.446 17.5138 195.27 17.4718 195.004 17.4718C194.835 17.4718 194.736 17.5138 194.708 17.5979C194.574 18.0863 194.364 18.5509 194.087 18.975C193.826 19.3605 193.591 19.6093 193.38 19.7213C192.917 19.9594 192.031 20.0784 190.724 20.0784H189.711C188.797 20.0784 188.319 20.0084 188.277 19.8684C188.151 19.5043 188.088 18.8667 188.088 17.9556V14.6979C188.088 14.5719 188.594 14.5089 189.606 14.5089C190.913 14.5089 191.658 14.5649 191.841 14.6769C191.905 14.7168 191.965 14.7625 192.02 14.8134C192.089 14.9171 192.142 15.0304 192.178 15.1495C192.249 15.3362 192.333 15.62 192.431 16.0009C192.473 16.1129 192.586 16.1689 192.769 16.1689C192.937 16.1689 193.05 16.1409 193.106 16.0849V12.1116C193.036 12.0416 192.916 12.0066 192.748 12.0066C192.55 12.0066 192.445 12.0556 192.431 12.1537C192.347 12.4766 192.298 12.6764 192.284 12.753C192.248 12.8824 192.195 13.0063 192.126 13.1212C192.032 13.2893 191.958 13.3803 191.905 13.3943C191.851 13.4083 191.724 13.4433 191.525 13.4993C191.342 13.553 191.153 13.5813 190.963 13.5833H188.99C188.386 13.5833 188.083 13.5413 188.083 13.4573V10.0918C188.083 9.25162 188.119 8.66281 188.189 8.32534C188.217 8.14331 188.835 8.05229 190.045 8.05229H191.457C192.118 8.05229 192.638 8.16105 193.017 8.37855C193.397 8.59606 193.692 9.09082 193.905 9.86283C193.919 9.96085 194.018 10.0099 194.201 10.0099C194.384 10.0099 194.51 9.97485 194.58 9.90484C194.552 9.73681 194.458 9.31976 194.299 8.6537C194.14 7.98765 194.031 7.45088 193.972 7.04341C193.184 7.04341 192.011 7.07141 190.45 7.12742C188.89 7.18343 187.794 7.21144 187.162 7.21144C186.219 7.21144 185.383 7.19744 184.652 7.16943L184.647 7.17153ZM204.995 10.9767C204.995 11.7898 204.731 12.4414 204.204 12.9315C203.677 13.4216 203.167 13.6669 202.675 13.6673H202.148C200.925 13.6673 200.313 13.4641 200.313 13.0575V10.5118C200.313 9.82572 200.324 9.31766 200.345 8.98767C200.366 8.65767 200.394 8.44763 200.429 8.35755C200.438 8.32197 200.456 8.28908 200.48 8.26166C200.505 8.23423 200.535 8.21309 200.57 8.20002C200.921 8.102 201.412 8.05299 202.044 8.05299C204.01 8.05299 204.993 9.02711 204.993 10.9753L204.995 10.9767ZM200.904 7.17153C200.327 7.19954 199.828 7.21354 199.407 7.21354L196.879 7.17153C196.823 7.22754 196.795 7.34656 196.795 7.5286C196.795 7.69663 196.823 7.78064 196.879 7.78064C197.062 7.78064 197.34 7.82965 197.713 7.92767C198.086 8.02569 198.293 8.13071 198.335 8.24273C198.433 8.62127 198.482 9.22408 198.482 10.0512V17.9976C198.482 19.1463 198.433 19.8049 198.335 19.9734C198.264 20.0994 198.053 20.2044 197.703 20.2885C197.434 20.3608 197.158 20.403 196.88 20.4145C196.838 20.4145 196.817 20.5055 196.817 20.6882C196.817 20.8983 196.838 21.0243 196.88 21.0663L199.453 20.9613C199.874 20.9613 200.787 20.9963 202.191 21.0663C202.222 20.9642 202.236 20.8578 202.233 20.7512C202.233 20.5552 202.205 20.4572 202.149 20.4565C201.966 20.4565 201.66 20.4005 201.232 20.2885C200.803 20.1764 200.554 20.0294 200.483 19.8474C200.37 19.5673 200.314 18.9575 200.314 18.0179V14.929C200.311 14.8835 200.316 14.8377 200.331 14.7945C200.345 14.7512 200.368 14.7112 200.398 14.6769C200.443 14.6274 200.502 14.5941 200.568 14.5824C200.652 14.574 200.736 14.5705 200.82 14.5719C201.185 14.5719 201.445 14.5999 201.6 14.6559C201.756 14.727 201.902 14.8189 202.033 14.929C202.203 15.0815 202.359 15.2503 202.496 15.4331C202.672 15.658 202.827 15.8648 202.96 16.0534C203.094 16.2419 203.305 16.5502 203.592 16.9782C203.88 17.4058 204.138 17.7738 204.365 18.0823C205.812 20.1011 207.521 21.1102 209.49 21.1097C209.682 21.1133 209.873 21.0921 210.06 21.0467C210.105 20.9479 210.126 20.8401 210.123 20.7316C210.125 20.6298 210.104 20.5288 210.06 20.4369C209.217 20.4369 208.121 19.701 206.77 18.2294C205.857 17.2347 205.048 16.0013 204.346 14.5292C204.29 14.4452 204.332 14.3752 204.472 14.3192C205.199 13.9959 205.823 13.4795 206.275 12.8265C206.718 12.1824 206.939 11.5658 206.939 10.9767C206.939 10.2901 206.785 9.68756 206.475 9.169C206.191 8.6754 205.784 8.26273 205.294 7.97038C204.838 7.69995 204.349 7.48822 203.839 7.34026C203.367 7.20302 202.877 7.13233 202.385 7.13022C201.977 7.13022 201.485 7.14423 200.91 7.17223L200.904 7.17153ZM211.331 11.6706C211.428 11.9902 211.589 12.2869 211.805 12.5429C212.029 12.816 212.226 13.0472 212.395 13.2368C212.564 13.4263 212.835 13.6435 213.207 13.8886C213.581 14.1336 213.848 14.3051 214.009 14.4032C214.169 14.5012 214.453 14.6694 214.862 14.908C214.989 14.978 215.221 15.104 215.558 15.286C215.896 15.4681 216.128 15.6011 216.254 15.6851C216.38 15.7691 216.559 15.8989 216.791 16.0744C216.983 16.2072 217.147 16.3749 217.276 16.5687C217.383 16.7561 217.471 16.953 217.54 17.1568C217.627 17.407 217.669 17.67 217.667 17.9346C217.667 18.7052 217.421 19.301 216.929 19.722C216.437 20.1431 215.839 20.3531 215.136 20.3522C213.281 20.3522 212.114 19.343 211.636 17.3248C211.538 17.1988 211.362 17.1358 211.109 17.1358C210.884 17.1358 210.772 17.1778 210.772 17.2618C210.772 17.7659 210.947 18.88 211.299 20.6042C211.454 20.6322 211.724 20.6917 212.111 20.7827C212.497 20.8738 212.817 20.9438 213.07 20.9928C213.324 21.0418 213.64 21.0908 214.019 21.1398C214.375 21.1874 214.735 21.2119 215.094 21.2133C216.275 21.2133 217.305 20.8525 218.184 20.1309C219.062 19.4093 219.501 18.488 219.501 17.3668C219.502 17.03 219.434 16.6966 219.301 16.3866C219.189 16.1101 219.047 15.8459 218.88 15.5983C218.673 15.3272 218.432 15.0835 218.163 14.873C217.835 14.5999 217.593 14.4109 217.436 14.3058C217.278 14.2008 216.99 14.0186 216.571 13.759C216.15 13.5 215.904 13.3492 215.833 13.3068C215.735 13.2508 215.507 13.1107 215.148 12.8867C214.79 12.6626 214.551 12.5086 214.431 12.4246C214.312 12.3406 214.122 12.1933 213.862 11.9828C213.602 11.7728 213.422 11.5872 213.325 11.4227C213.21 11.2281 213.111 11.0244 213.029 10.8136C212.931 10.5688 212.881 10.3073 212.882 10.0435C212.882 9.42641 213.054 8.90785 213.398 8.48777C213.743 8.0677 214.337 7.85766 215.18 7.85766C215.939 7.85766 216.582 8.14845 217.109 8.73002C217.636 9.31159 217.935 9.91067 218.005 10.5273C218.033 10.6673 218.216 10.7373 218.554 10.7373C218.694 10.7373 218.764 10.6883 218.764 10.5903C218.764 9.33003 218.68 8.32791 218.511 7.58391C218.259 7.5279 217.967 7.45438 217.637 7.36337C217.306 7.27235 217.053 7.20584 216.878 7.16383C216.655 7.11344 216.43 7.07488 216.203 7.04831C215.912 7.01193 215.62 6.99439 215.327 6.9958C214.27 6.98179 213.243 7.35154 212.439 8.03619C211.61 8.72979 211.195 9.61662 211.195 10.6967C211.195 11.0243 211.242 11.3502 211.336 11.6643L211.331 11.6706Z" fill="white"/>
<path fill-rule="evenodd" clip-rule="evenodd" d="M13.4418 30.28C13.4046 30.3164 13.3857 30.3955 13.3857 30.5152C13.3857 30.635 13.4046 30.6819 13.4418 30.6819C13.6281 30.6925 13.8124 30.7252 13.9909 30.7792C14.2367 30.8436 14.3736 30.9136 14.4017 30.9892C14.4663 31.2385 14.4985 31.6352 14.4985 32.1795V37.422C14.4985 38.1805 14.4663 38.615 14.4017 38.7257C14.3546 38.809 14.2135 38.8825 13.9804 38.9476C13.8066 39.0013 13.627 39.034 13.4453 39.0449C13.4173 39.0449 13.4032 39.1051 13.4032 39.2249C13.4032 39.3446 13.4173 39.4188 13.4453 39.4468L15.1305 39.4055C15.7793 39.4055 16.6139 39.4146 17.6343 39.4328C18.6547 39.451 19.4014 39.4603 19.8741 39.4608C19.9016 39.282 19.9434 39.1057 19.9991 38.9336C20.0637 38.7236 20.1241 38.5331 20.1803 38.3735C20.2364 38.2139 20.3123 37.9989 20.4099 37.7357C20.5075 37.4724 20.5791 37.2792 20.6254 37.1595C20.5692 37.1042 20.4534 37.0762 20.2743 37.0769C20.1634 37.0769 20.0981 37.1042 20.0799 37.1595C19.9911 37.4822 19.8528 37.7892 19.6698 38.0696C19.4975 38.324 19.3421 38.4874 19.2036 38.5597C18.8975 38.7175 18.3123 38.7961 17.4482 38.7957H16.7805C16.1776 38.7957 15.8623 38.749 15.8347 38.6557C15.7514 38.4157 15.7095 37.9957 15.709 37.3954V35.246C15.709 35.1629 16.043 35.1212 16.711 35.1207C17.5732 35.1207 18.0647 35.1578 18.1855 35.232C18.2273 35.2587 18.2668 35.2889 18.3034 35.3223C18.3492 35.3907 18.3845 35.4655 18.4081 35.5443C18.4537 35.6689 18.5099 35.8558 18.5745 36.1044C18.6026 36.1786 18.677 36.215 18.797 36.215C18.9171 36.215 18.9824 36.1968 19.0196 36.1597V33.5391C18.9532 33.4859 18.8685 33.4608 18.7837 33.4691C18.6531 33.4691 18.5836 33.5013 18.5731 33.5664C18.5174 33.7793 18.4851 33.9109 18.4762 33.9613C18.4523 34.0466 18.4171 34.1283 18.3715 34.2042C18.3112 34.3149 18.2627 34.3751 18.2255 34.3842C18.1883 34.3933 18.1047 34.4171 17.9748 34.4542C17.8552 34.49 17.7311 34.5088 17.6062 34.5102H16.3073C15.9084 34.5102 15.709 34.4824 15.709 34.4269V32.2075C15.709 31.653 15.7324 31.2646 15.7793 31.0424C15.7975 30.9225 16.2054 30.8625 17.0031 30.8625H17.9348C18.3706 30.8625 18.7137 30.9342 18.9642 31.0775C19.2146 31.2207 19.4093 31.5475 19.5483 32.0576C19.5575 32.1227 19.6228 32.155 19.7435 32.155C19.8328 32.1643 19.9222 32.1393 19.9935 32.0849C19.9752 31.9736 19.912 31.6992 19.806 31.2595C19.7 30.8198 19.627 30.4669 19.5905 30.1988C19.0709 30.1988 18.2964 30.2172 17.2671 30.2541C16.2377 30.291 15.5143 30.3094 15.0968 30.3094C14.4756 30.3094 13.924 30.3003 13.4418 30.2821V30.28ZM21.4069 33.1736C21.376 33.2193 21.3626 33.2744 21.369 33.3291C21.369 33.4075 21.3816 33.4467 21.4069 33.4467C21.5936 33.448 21.7764 33.5 21.9356 33.5972C22.1561 33.7232 22.3639 33.9398 22.5591 34.2469L23.8805 36.2619L21.8598 38.8979C21.7733 38.9764 21.6701 39.0344 21.5579 39.0673C21.4524 39.1044 21.3435 39.1312 21.2328 39.1471C21.1626 39.1548 21.0973 39.1597 21.0298 39.1611C21.0046 39.1611 20.9919 39.2116 20.9919 39.3117C20.9912 39.3533 20.9976 39.3947 21.0109 39.4342C21.64 39.4025 22.0271 39.3868 22.1722 39.3873C22.2981 39.3873 22.6539 39.4029 23.2395 39.4342C23.2556 39.3955 23.2618 39.3534 23.2577 39.3117C23.2577 39.2116 23.2451 39.1611 23.2205 39.1611C23.0857 39.1645 22.9514 39.1439 22.8238 39.1002C22.7476 39.0779 22.678 39.0376 22.6209 38.9826C22.5972 38.9564 22.5824 38.9233 22.5788 38.8881C22.5788 38.763 23.0948 38.0099 24.127 36.6288L25.5432 38.7845C25.5682 38.8177 25.5844 38.8567 25.5902 38.8979C25.5902 38.9728 25.52 39.0379 25.3796 39.0855C25.2716 39.1295 25.157 39.155 25.0405 39.1611C25.0152 39.1611 25.0033 39.2004 25.0033 39.2788C24.9963 39.3334 25.0095 39.3886 25.0405 39.4342C25.9219 39.4025 26.3816 39.3868 26.4195 39.3873C26.4504 39.3873 26.7808 39.4029 27.4109 39.4342C27.4255 39.3951 27.432 39.3534 27.4298 39.3117C27.4298 39.2116 27.4137 39.1611 27.3821 39.1611C27.2002 39.1599 27.0198 39.1281 26.8485 39.0673C26.6901 39.0203 26.5522 38.9217 26.4567 38.7873L24.6438 36.0386L26.4188 33.7225C26.482 33.6413 26.6268 33.5755 26.8534 33.5251C27.008 33.4852 27.1659 33.4599 27.3252 33.4495C27.3442 33.4495 27.3554 33.4103 27.3582 33.3319C27.3645 33.2797 27.3597 33.2267 27.3442 33.1764C26.7151 33.2082 26.3626 33.224 26.2868 33.224C26.0728 33.224 25.6733 33.2082 25.0882 33.1764C25.0567 33.2218 25.0432 33.2772 25.0503 33.3319C25.0503 33.4103 25.0629 33.4495 25.0882 33.4495C25.2491 33.4446 25.4089 33.4769 25.5551 33.544C25.6843 33.6063 25.7489 33.6728 25.7489 33.7414C25.745 33.794 25.7304 33.8452 25.7061 33.892C25.6655 33.977 25.6185 34.0589 25.5657 34.137L25.3859 34.4052C25.3326 34.4836 25.2506 34.5949 25.1402 34.7391C25.0299 34.8841 24.9485 34.9905 24.8944 35.0598C24.8404 35.1291 24.754 35.2397 24.6304 35.3938C24.5068 35.5478 24.4338 35.643 24.4085 35.6808L23.3223 34.0334C23.2594 33.9523 23.2203 33.8553 23.2093 33.7533C23.2093 33.6455 23.2753 33.5685 23.4073 33.5223C23.5251 33.4778 23.6499 33.4541 23.7759 33.4523C23.7942 33.4523 23.8054 33.4131 23.8089 33.3347C23.8152 33.2825 23.8104 33.2295 23.7949 33.1792C23.1653 33.211 22.7623 33.2269 22.5858 33.2269L21.4062 33.1792L21.4069 33.1736ZM33.3601 37.6545C33.3186 37.6384 33.2759 37.6257 33.2323 37.6167C33.1876 37.6048 33.1417 37.5984 33.0954 37.5978C33.0772 37.5978 33.0505 37.6496 33.0154 37.7532C32.981 37.8568 32.9304 37.9849 32.8644 38.139C32.8092 38.2751 32.7311 38.4009 32.6334 38.5107C32.2931 38.8748 31.8114 39.0568 31.1884 39.0568C30.7028 39.0679 30.2269 38.9204 29.8333 38.6368C29.4613 38.3681 29.1719 38.0012 28.9977 37.5775C28.8182 37.1326 28.7285 36.6567 28.7337 36.1772C28.7287 35.5067 28.959 34.8556 29.3846 34.3366C29.819 33.7942 30.3447 33.5228 30.9616 33.5223C31.2314 33.5189 31.5001 33.5552 31.7592 33.6301C31.9549 33.6833 32.1401 33.7692 32.3069 33.8843C32.5335 34.062 32.7093 34.2959 32.8167 34.5627C32.8447 34.6474 32.8686 34.7307 32.8869 34.8119C32.9016 34.8296 32.9207 34.8431 32.9422 34.8514C32.9637 34.8596 32.9869 34.8622 33.0097 34.8589C33.1417 34.8589 33.2085 34.8119 33.2085 34.7188C33.2085 34.6563 33.2145 34.2045 33.2267 33.3634C32.4721 33.2089 31.7039 33.1294 30.9335 33.126C30.5196 33.1192 30.1091 33.2009 29.7296 33.3658C29.3501 33.5306 29.0105 33.7748 28.7337 34.0817C28.1433 34.698 27.8208 35.5218 27.8364 36.3739C27.8307 36.776 27.9049 37.1752 28.0548 37.5484C28.2048 37.9217 28.4274 38.2616 28.7098 38.5485C28.9788 38.8407 29.3067 39.0729 29.6721 39.2298C30.0374 39.3866 30.4319 39.4647 30.8296 39.4587C31.8744 39.4587 32.6266 39.3208 33.0863 39.0449C33.1237 39.0263 33.1867 38.8113 33.2752 38.4001C33.3328 38.1626 33.3769 37.9221 33.4072 37.6797L33.3601 37.6545ZM33.9267 33.2107C33.8951 33.2579 33.8817 33.3148 33.8888 33.3711C33.8888 33.446 33.9015 33.4838 33.9267 33.4838C34.0531 33.4913 34.1783 33.5134 34.2996 33.5496C34.466 33.5937 34.5594 33.6406 34.5804 33.6896C34.6333 33.956 34.6554 34.2276 34.6464 34.499V38.0577C34.6464 38.5712 34.6244 38.8662 34.5804 38.9427C34.5488 38.9987 34.4526 39.0484 34.2926 39.0932C34.1744 39.1298 34.0523 39.1519 33.9288 39.159C33.9099 39.159 33.9008 39.1997 33.9008 39.2816C33.8938 39.3334 33.9036 39.3862 33.9288 39.4321L35.0712 39.4041C35.5117 39.4041 36.0781 39.4104 36.7704 39.423C37.4627 39.4356 37.9694 39.4417 38.2905 39.4412C38.3096 39.3199 38.338 39.2003 38.3755 39.0834C38.4197 38.9392 38.4604 38.8118 38.4984 38.7026C38.5363 38.5933 38.5882 38.4484 38.6542 38.2692C38.7202 38.09 38.7687 37.9604 38.8003 37.8785C38.7624 37.8414 38.6837 37.8225 38.5644 37.8225C38.4892 37.8225 38.445 37.8414 38.4324 37.8785C38.3712 38.0973 38.2764 38.3054 38.1515 38.4953C38.035 38.6676 37.9296 38.7789 37.8355 38.8293C37.6277 38.9362 37.2312 38.9896 36.6461 38.9896H36.1925C35.7839 38.9896 35.57 38.9583 35.5508 38.8958C35.4941 38.7324 35.4658 38.4468 35.4658 38.0388V36.5819C35.4658 36.5252 35.6926 36.4965 36.1455 36.4972C36.7311 36.4972 37.0648 36.5221 37.1467 36.5721C37.1754 36.59 37.2022 36.6106 37.2268 36.6337C37.2576 36.6801 37.2812 36.7308 37.297 36.7842C37.3279 36.8692 37.3656 36.9961 37.41 37.1651C37.429 37.2155 37.4803 37.2407 37.561 37.2407C37.6143 37.2471 37.6681 37.2337 37.712 37.2029V35.4239C37.6897 35.4059 37.6641 35.3924 37.6366 35.3844C37.6092 35.3763 37.5804 35.3738 37.5519 35.3769C37.4634 35.3769 37.4164 35.3987 37.4115 35.4428C37.3735 35.587 37.3518 35.6766 37.3455 35.7109C37.3294 35.7686 37.3058 35.8239 37.2752 35.8754C37.2563 35.9258 37.2216 35.9688 37.1762 35.998L37.0063 36.0449C36.9248 36.0686 36.8405 36.0813 36.7557 36.0827H35.8717C35.6006 36.0827 35.4658 36.0638 35.4658 36.026V34.52C35.4579 34.2556 35.4737 33.9911 35.5129 33.7295C35.5255 33.6479 35.8024 33.607 36.3435 33.607H36.9754C37.2717 33.607 37.5058 33.6556 37.6776 33.7526C37.8494 33.8497 37.9816 34.071 38.0743 34.4164C38.0806 34.4605 38.1248 34.4822 38.2063 34.4822C38.2668 34.4886 38.3276 34.4718 38.3762 34.4353C38.3636 34.3606 38.3212 34.1739 38.2491 33.8752C38.1789 33.5769 38.1276 33.3375 38.1024 33.1547C37.7499 33.1547 37.2245 33.1673 36.5261 33.1925C35.8277 33.2177 35.3362 33.2304 35.0516 33.2304C34.6303 33.2304 34.2558 33.2241 33.9281 33.2114L33.9267 33.2107ZM39.3178 33.2107C39.2862 33.2579 39.2727 33.3148 39.2798 33.3711C39.2798 33.446 39.2925 33.4838 39.3178 33.4838C39.4442 33.4913 39.5693 33.5134 39.6906 33.5496C39.8577 33.5935 39.9513 33.6402 39.9715 33.6896C40.0243 33.956 40.0464 34.2276 40.0375 34.499V38.0577C40.0375 38.5712 40.0155 38.8662 39.9715 38.9427C39.9399 38.9987 39.8437 39.0484 39.6836 39.0932C39.5655 39.1298 39.4433 39.1519 39.3199 39.159C39.3009 39.159 39.2918 39.1997 39.2918 39.2816C39.2848 39.3334 39.2946 39.3862 39.3199 39.4321L40.4622 39.4041C40.9032 39.4041 41.4698 39.4104 42.1621 39.423C42.8544 39.4356 43.3611 39.4417 43.6823 39.4412C43.701 39.3199 43.7294 39.2002 43.7672 39.0834C43.8108 38.9392 43.8522 38.8118 43.8901 38.7026C43.928 38.5933 43.98 38.4484 44.046 38.2692C44.112 38.09 44.1604 37.9604 44.192 37.8785C44.1541 37.8414 44.0755 37.8225 43.9561 37.8225C43.8803 37.8225 43.8367 37.8414 43.8241 37.8785C43.7629 38.0973 43.6682 38.3054 43.5432 38.4953C43.4267 38.6676 43.3211 38.7789 43.2266 38.8293C43.0192 38.9362 42.6227 38.9896 42.0371 38.9896H41.5843C41.1747 38.9896 40.9605 38.9583 40.9418 38.8958C40.8847 38.7324 40.8564 38.4468 40.8569 38.0388V36.5819C40.8569 36.5252 41.0836 36.4965 41.5365 36.4972C42.1221 36.4972 42.4559 36.5221 42.5378 36.5721C42.5665 36.5898 42.5934 36.6104 42.6178 36.6337C42.6486 36.6801 42.6723 36.7308 42.688 36.7842C42.7194 36.8692 42.7571 36.9961 42.8011 37.1651C42.82 37.2155 42.8713 37.2407 42.952 37.2407C43.0055 37.2471 43.0595 37.2336 43.1037 37.2029V35.4239C43.0585 35.3876 43.0006 35.3707 42.9429 35.3769C42.8544 35.3769 42.8074 35.3987 42.8025 35.4428C42.7646 35.587 42.7428 35.6766 42.7365 35.7109C42.7204 35.7686 42.6968 35.8239 42.6663 35.8754C42.647 35.9257 42.6117 35.9682 42.5659 35.9966L42.3959 36.0435C42.3147 36.0672 42.2306 36.0799 42.146 36.0813H41.2599C40.9898 36.0813 40.8545 36.0624 40.854 36.0246V34.52C40.8461 34.2556 40.8619 33.9911 40.9011 33.7295C40.9137 33.6479 41.1908 33.607 41.7324 33.607H42.3643C42.6606 33.607 42.8947 33.6556 43.0665 33.7526C43.2383 33.8497 43.3703 34.071 43.4625 34.4164C43.4688 34.4605 43.513 34.4822 43.5952 34.4822C43.6557 34.4885 43.7164 34.4717 43.7651 34.4353C43.7525 34.3606 43.7099 34.1739 43.6373 33.8752C43.5671 33.5769 43.5159 33.3375 43.4913 33.1547C43.1383 33.1547 42.6127 33.1673 41.9143 33.1925C41.2159 33.2177 40.7244 33.2304 40.4398 33.2304C40.0185 33.2304 39.644 33.2241 39.3164 33.2114L39.3178 33.2107ZM44.7565 33.2107C44.7249 33.2579 44.7115 33.3148 44.7186 33.3711C44.7186 33.446 44.7313 33.4838 44.7565 33.4838C44.8829 33.4913 45.0081 33.5134 45.1294 33.5496C45.2958 33.5937 45.3892 33.6406 45.4102 33.6896C45.4636 33.956 45.486 34.2275 45.4769 34.499V38.0577C45.4769 38.5712 45.4547 38.8662 45.4102 38.9427C45.3793 38.9987 45.2831 39.0484 45.1223 39.0932C45.0045 39.1298 44.8826 39.1519 44.7593 39.159C44.7404 39.159 44.7313 39.2032 44.7313 39.2907C44.7245 39.3392 44.7344 39.3885 44.7593 39.4307L45.9017 39.4027C46.1531 39.3966 46.4662 39.3997 46.8412 39.4118C47.2154 39.4237 47.4408 39.43 47.5159 39.4307C48.5354 39.4307 49.3349 39.1273 49.9144 38.5205C50.4939 37.9137 50.7835 37.1543 50.783 36.2423C50.7873 35.8487 50.7136 35.4581 50.5661 35.093C50.4186 34.7279 50.2002 34.3954 49.9236 34.1146C49.3506 33.5116 48.5514 33.2103 47.5258 33.2107C47.4057 33.2107 47.1621 33.2107 46.7941 33.2205C46.4262 33.2304 46.1222 33.2297 45.8814 33.2297C45.4601 33.2297 45.0856 33.2233 44.7579 33.2107H44.7565ZM46.4178 33.7758C46.4936 33.6754 46.8714 33.6252 47.551 33.6252H47.5981C48.3283 33.6252 48.8839 33.8761 49.265 34.3779C49.646 34.8796 49.8363 35.4892 49.8358 36.2066C49.8358 38.0703 49.1119 39.0022 47.6641 39.0022C47.4942 39.0022 47.2533 38.9861 46.9423 38.9553C46.6312 38.9245 46.462 38.8769 46.4367 38.8153C46.3399 38.5893 46.2921 38.3455 46.2963 38.0997V34.3695C46.2956 34.0873 46.3363 33.8892 46.4178 33.7765V33.7758ZM52.3094 38.1341C52.3094 38.5233 52.2874 38.8034 52.2434 38.9742C52.2245 39.0246 52.1353 39.0687 51.9745 39.1058C51.8556 39.1373 51.7337 39.1563 51.6108 39.1625C51.5855 39.1625 51.5729 39.2067 51.5729 39.2942C51.5676 39.3439 51.5811 39.3939 51.6108 39.4342C52.335 39.4025 52.7127 39.3868 52.7441 39.3873C52.8447 39.3873 53.2098 39.4029 53.8394 39.4342C53.8527 39.3916 53.8591 39.3472 53.8584 39.3026C53.8584 39.2081 53.8457 39.1625 53.8204 39.1625C53.7054 39.1535 53.5916 39.1331 53.4806 39.1016C53.317 39.0603 53.2285 39.0183 53.2159 38.9742C53.1526 38.6869 53.1241 38.3931 53.1309 38.0991V34.5214C53.124 34.2273 53.1526 33.9335 53.2159 33.6462C53.2285 33.6021 53.317 33.558 53.4806 33.5139C53.5912 33.4798 53.7051 33.4577 53.8204 33.4481C53.8457 33.4481 53.8584 33.4047 53.8584 33.3165C53.859 33.2691 53.8526 33.2219 53.8394 33.1764C53.2098 33.2082 52.8447 33.224 52.7441 33.224C52.7127 33.224 52.335 33.2082 51.6108 33.1764C51.5802 33.2204 51.5668 33.2739 51.5729 33.327C51.5729 33.4089 51.5855 33.4495 51.6108 33.4495C51.7341 33.4556 51.8562 33.4763 51.9745 33.5111C52.1353 33.5517 52.2245 33.5972 52.2434 33.6511C52.2879 33.8206 52.3099 34.1006 52.3094 34.4913V38.1341ZM59.4193 37.4003C59.4208 37.5295 59.4114 37.6585 59.3912 37.7861C57.4898 35.1373 56.4228 33.5996 56.1902 33.1729C56.0142 33.1855 55.7626 33.1918 55.4354 33.1918C55.2842 33.1918 54.9631 33.1855 54.472 33.1729C54.4412 33.2186 54.4277 33.2737 54.4341 33.3284C54.4341 33.4068 54.4468 33.446 54.472 33.446C54.6153 33.4532 54.7575 33.4738 54.8968 33.5076C55.092 33.5482 55.199 33.5949 55.2177 33.6476C55.2702 33.8791 55.2938 34.1161 55.2879 34.3534V38.0528C55.2879 38.4799 55.2563 38.7749 55.1931 38.9378C55.1742 38.9945 55.066 39.0463 54.8673 39.0932C54.7268 39.1309 54.5829 39.1543 54.4376 39.1632C54.4187 39.1632 54.4095 39.2074 54.4095 39.2949C54.4035 39.3433 54.4133 39.3925 54.4376 39.4349L55.5238 39.388C55.6175 39.388 55.9793 39.4036 56.6093 39.4349C56.6242 39.3828 56.6289 39.3284 56.6234 39.2746C56.6234 39.1997 56.6093 39.1618 56.5904 39.1618C56.458 39.1501 56.3269 39.1267 56.1986 39.0918C56.0006 39.0452 55.8953 38.9985 55.8826 38.9518C55.8386 38.7824 55.8166 38.4907 55.8166 38.0766V34.0586L59.4797 39.2396C59.5808 39.3838 59.6847 39.4559 59.7914 39.4559C59.8539 39.4637 59.9172 39.4504 59.9712 39.4181C59.9482 38.9271 59.9368 38.4867 59.9368 38.0969V34.5193C59.9276 34.2256 59.9529 33.9319 60.0119 33.6441C60.0245 33.6 60.1362 33.5524 60.3475 33.5041C60.4818 33.4663 60.6193 33.441 60.7583 33.4285C60.7829 33.4285 60.7955 33.3914 60.7955 33.3158C60.7968 33.2684 60.7904 33.2211 60.7765 33.1757C60.733 33.1757 60.5863 33.1848 60.3377 33.2044C60.0891 33.224 59.8834 33.2325 59.7191 33.2325C59.5548 33.2325 59.3414 33.224 59.0963 33.2086L58.6048 33.1757C58.574 33.218 58.5605 33.2703 58.5669 33.3221C58.5669 33.3921 58.5795 33.4299 58.6048 33.4299C58.7473 33.4388 58.8885 33.4622 59.0261 33.4999C59.2241 33.5468 59.3329 33.5951 59.3519 33.6462C59.3959 33.8157 59.4179 34.0917 59.4179 34.4745V37.4024L59.4193 37.4003ZM62.3128 38.5485C62.5818 38.8407 62.9097 39.0729 63.275 39.2298C63.6404 39.3866 64.0349 39.4647 64.4326 39.4587C64.5962 39.4587 64.7521 39.4545 64.9002 39.4447C65.0484 39.4349 65.1768 39.4258 65.2871 39.4167C65.405 39.4061 65.5222 39.3888 65.6381 39.3649L65.919 39.3082C66.0085 39.2898 66.0969 39.2664 66.1837 39.2382C66.2932 39.2039 66.3642 39.1807 66.3944 39.1681L66.605 39.0883C66.7152 39.0477 66.7763 39.0239 66.789 39.0183C66.9462 38.956 67.0249 38.8993 67.0249 38.8489C67.0096 38.784 66.9875 38.7208 66.9589 38.6606C66.9153 38.5563 66.8929 38.4444 66.8929 38.3315C66.8929 38.3189 66.888 38.2356 66.8788 38.0815C66.8697 37.9275 66.8648 37.7854 66.8648 37.6538C66.8648 37.2771 66.8964 37.0664 66.9589 37.0237C67.0511 36.9782 67.1475 36.9419 67.2467 36.9151C67.331 36.8858 67.418 36.8654 67.5065 36.8542C67.5318 36.8542 67.5445 36.8073 67.5445 36.7142C67.5452 36.6696 67.5388 36.6252 67.5255 36.5826C66.8964 36.6138 66.5565 36.6295 66.506 36.6295C66.4873 36.6295 66.0751 36.6138 65.2695 36.5826C65.238 36.6279 65.2245 36.6833 65.2316 36.738C65.2316 36.8164 65.2443 36.8556 65.2695 36.8556C65.4115 36.8605 65.5526 36.8793 65.6908 36.9116C65.8696 36.9494 65.9719 36.9998 65.9976 37.0629C66.0482 37.1945 66.0728 37.464 66.0735 37.8722V37.938L66.0826 38.7082C66.0866 38.7354 66.0825 38.7632 66.0708 38.7881C66.059 38.813 66.0402 38.8339 66.0166 38.8482C65.7521 38.9882 65.343 39.0582 64.7893 39.0582C64.0909 39.0582 63.5102 38.7649 63.0473 38.1782C62.5843 37.5915 62.3528 36.9497 62.3528 36.2528C62.3528 35.5004 62.5635 34.8572 62.9848 34.3233C63.406 33.7893 63.9317 33.5225 64.5618 33.523C65.6758 33.523 66.3178 33.9529 66.4877 34.8126C66.5024 34.8303 66.5215 34.8439 66.543 34.8522C66.5645 34.8604 66.5878 34.8629 66.6106 34.8596C66.7426 34.8596 66.8086 34.8126 66.8086 34.7195C66.8086 34.657 66.7962 34.2679 66.7714 33.5524C65.7262 33.2724 64.9802 33.1312 64.5337 33.1288C64.1197 33.1219 63.709 33.2037 63.3294 33.3686C62.9498 33.5334 62.6101 33.7776 62.3332 34.0845C61.7432 34.701 61.421 35.5247 61.4366 36.3767C61.4307 36.7787 61.5048 37.1779 61.6546 37.5511C61.8044 37.9244 62.0269 38.2644 62.3093 38.5513L62.3128 38.5485ZM74.054 38.4218C73.9246 38.5984 73.7429 38.7299 73.5344 38.7978C73.3547 38.8612 73.1701 38.9101 72.9825 38.9441C72.8279 38.9693 72.6715 38.9819 72.5149 38.9819C72.2692 38.9819 72.0992 38.9378 72.0051 38.8496C71.904 38.7684 71.8537 38.4883 71.8542 38.0094V36.6379C71.8507 36.5332 71.8632 36.4286 71.8914 36.3277C72.2067 36.3025 72.4327 36.2899 72.5718 36.2899C73.1503 36.2899 73.5751 36.4327 73.8462 36.7184C74.113 36.9947 74.259 37.3654 74.252 37.749C74.261 37.989 74.1915 38.2254 74.054 38.4225V38.4218ZM70.9646 38.9441C70.933 39.0001 70.8368 39.0498 70.6767 39.0946C70.5586 39.1312 70.4365 39.1533 70.313 39.1604C70.294 39.1604 70.2849 39.2011 70.2849 39.283C70.2779 39.3348 70.2878 39.3876 70.313 39.4335L71.4554 39.4055H72.7487C73.4724 39.4055 74.0531 39.247 74.4907 38.9301C74.6991 38.7875 74.8683 38.5952 74.983 38.3707C75.0977 38.1461 75.1541 37.8965 75.1472 37.6447C75.1472 37.2246 74.9773 36.8591 74.6375 36.5483C74.2976 36.2374 74.0048 36.06 73.7591 36.0162C73.7401 35.9973 73.7556 35.9784 73.8061 35.9595C73.9168 35.917 74.0229 35.8635 74.1228 35.7998C74.2797 35.69 74.4155 35.553 74.5237 35.3952C74.6634 35.2145 74.7396 34.9931 74.7407 34.765C74.7436 34.5522 74.6985 34.3414 74.6087 34.1482C74.5304 33.9756 74.4142 33.8228 74.2688 33.7008C74.1245 33.5847 73.9639 33.4904 73.7921 33.4208C73.6244 33.3481 73.4485 33.296 73.2683 33.2654C73.1029 33.2374 72.9354 33.2233 72.7677 33.2234C72.6104 33.2234 72.4295 33.2248 72.2249 33.2276C72.0204 33.2304 71.7575 33.232 71.4364 33.2325C71.0151 33.2325 70.6407 33.2262 70.313 33.2135C70.2814 33.2607 70.2679 33.3176 70.2751 33.3739C70.2751 33.4488 70.2877 33.4866 70.313 33.4866C70.4394 33.4941 70.5645 33.5162 70.6858 33.5524C70.8522 33.5965 70.9456 33.6434 70.9667 33.6924C71.0195 33.9588 71.0417 34.2304 71.0327 34.5018V38.0605C71.0327 38.574 71.0107 38.869 70.9667 38.9455L70.9646 38.9441ZM72.4749 35.8936C72.0592 35.8936 71.8521 35.8719 71.8521 35.8278V34.7076L71.8893 33.7568C71.8871 33.7476 71.8869 33.738 71.8886 33.7286C71.8903 33.7193 71.8939 33.7104 71.8991 33.7025C71.9044 33.6945 71.9112 33.6878 71.9192 33.6825C71.9271 33.6773 71.9361 33.6738 71.9455 33.6721C72.1652 33.6213 72.3906 33.5991 72.616 33.6063C73.0438 33.6063 73.3664 33.7272 73.5836 33.969C73.8008 34.2108 73.9093 34.5482 73.9093 34.9814C73.9143 35.0969 73.8936 35.2121 73.8487 35.3188C73.8038 35.4254 73.7358 35.5208 73.6496 35.5982C73.4687 35.7549 73.2418 35.849 73.0029 35.8663C72.8274 35.8865 72.6508 35.8959 72.4742 35.8943L72.4749 35.8936ZM75.836 33.2107C75.805 33.2581 75.7918 33.3149 75.7988 33.3711C75.7988 33.446 75.8107 33.4838 75.836 33.4838C75.9624 33.4913 76.0875 33.5134 76.2089 33.5496C76.376 33.5937 76.4686 33.6406 76.4897 33.6896C76.5429 33.956 76.565 34.2276 76.5557 34.499V38.0577C76.5557 38.5712 76.5337 38.8662 76.4897 38.9427C76.4581 38.9987 76.3626 39.0491 76.2018 39.0932C76.0837 39.1298 75.9616 39.1519 75.8381 39.159C75.8192 39.159 75.81 39.1997 75.81 39.2816C75.803 39.3334 75.8129 39.3862 75.8381 39.4321L76.9805 39.4041C77.4214 39.4041 77.9881 39.4104 78.6804 39.423C79.3727 39.4356 79.8794 39.4417 80.2005 39.4412C80.2193 39.3199 80.2477 39.2002 80.2855 39.0834C80.329 38.9392 80.3704 38.8125 80.4084 38.7026C80.4463 38.5926 80.4975 38.4484 80.5642 38.2692C80.6309 38.09 80.6787 37.9604 80.7103 37.8785C80.6724 37.8414 80.5937 37.8225 80.4743 37.8225C80.3985 37.8225 80.3543 37.8414 80.3423 37.8785C80.2811 38.0973 80.1864 38.3054 80.0615 38.4953C79.9449 38.6676 79.8394 38.7789 79.7448 38.8293C79.5379 38.9362 79.1415 38.9896 78.5554 38.9896H78.1025C77.6934 38.9896 77.4793 38.9583 77.4601 38.8958C77.4039 38.7324 77.3756 38.4468 77.3751 38.0388V36.5819C77.3751 36.5252 77.6019 36.4965 78.0548 36.4972C78.6404 36.4972 78.9741 36.5221 79.056 36.5721C79.0848 36.5898 79.1116 36.6104 79.1361 36.6337C79.1668 36.6801 79.1905 36.7308 79.2063 36.7842C79.2379 36.8689 79.2765 36.9942 79.3193 37.1651C79.3383 37.2155 79.3895 37.2407 79.4703 37.2407C79.5238 37.2471 79.5778 37.2336 79.622 37.2029V35.4239C79.5767 35.3876 79.5189 35.3707 79.4612 35.3769C79.3727 35.3769 79.3256 35.3987 79.3207 35.4428C79.2828 35.587 79.2611 35.6766 79.2547 35.7109C79.2387 35.7686 79.215 35.8239 79.1845 35.8754C79.1659 35.926 79.1311 35.969 79.0855 35.998L78.9156 36.0449C78.8344 36.0686 78.7503 36.0813 78.6656 36.0827H77.7823C77.5118 36.0827 77.3765 36.0638 77.3765 36.026V34.52C77.3686 34.2556 77.3844 33.9911 77.4236 33.7295C77.4362 33.6479 77.7133 33.607 78.2549 33.607H78.8868C79.1822 33.607 79.4151 33.6556 79.5854 33.7526C79.7558 33.8497 79.8881 34.071 79.9821 34.4164C79.9878 34.4605 80.032 34.4822 80.1142 34.4822C80.1747 34.4885 80.2354 34.4717 80.2841 34.4353C80.2714 34.3606 80.2288 34.1739 80.1563 33.8752C80.0861 33.5769 80.0355 33.3375 80.0102 33.1547C79.6578 33.1547 79.1321 33.1673 78.4332 33.1925C77.7344 33.2177 77.2429 33.2304 76.9587 33.2304C76.5375 33.2304 76.163 33.2241 75.8353 33.2114L75.836 33.2107ZM81.6048 33.2058L81.095 33.1729C81.0648 33.217 81.0516 33.2705 81.0578 33.3235C81.0578 33.3935 81.0698 33.4271 81.095 33.4271C81.1984 33.4353 81.3002 33.4574 81.3977 33.4929C81.5079 33.5234 81.6129 33.5706 81.7087 33.6329C81.797 33.6897 81.8753 33.7607 81.9404 33.843C82.0259 33.968 82.1031 34.0985 82.1714 34.2336C82.8202 35.3945 83.212 36.1051 83.3468 36.3655C83.4816 36.626 83.5495 36.8003 83.5504 36.8885V38.0647C83.5504 38.4727 83.5251 38.774 83.4746 38.9686C83.4556 39.019 83.3693 39.0659 83.2148 39.1086C83.1031 39.1449 82.9873 39.167 82.87 39.1744C82.8448 39.1744 82.8328 39.2151 82.8328 39.297C82.828 39.344 82.8413 39.391 82.87 39.4286C83.5937 39.3969 83.9651 39.3812 83.9843 39.3817C84.0602 39.3817 84.4127 39.3973 85.0418 39.4286C85.0551 39.386 85.0614 39.3416 85.0607 39.297C85.0607 39.2151 85.0481 39.1744 85.0228 39.1744C84.9135 39.1635 84.8058 39.14 84.7019 39.1044C84.5446 39.0578 84.4597 39.0111 84.4471 38.9644C84.3881 38.6792 84.3626 38.3881 84.3712 38.0969V36.6666C84.3712 36.5784 84.5994 36.1583 85.0558 35.4064C85.5122 34.6544 85.86 34.0927 86.0992 33.7211C86.1624 33.6399 86.2883 33.5699 86.4769 33.5111C86.6052 33.4669 86.7385 33.4385 86.8736 33.4264C86.8989 33.4264 86.9116 33.3893 86.9116 33.3137C86.9129 33.2663 86.9065 33.219 86.8926 33.1736C86.8357 33.1736 86.7037 33.1827 86.4959 33.2023C86.2881 33.2219 86.0865 33.2304 85.8914 33.2304C85.8478 33.2304 85.4766 33.2114 84.7778 33.1736C84.7474 33.216 84.7338 33.2682 84.7398 33.32C84.7398 33.39 84.7525 33.4278 84.7778 33.4278C84.9383 33.4229 85.0975 33.4586 85.2405 33.5314C85.3662 33.6014 85.4293 33.6714 85.4293 33.7414C85.4293 33.9613 85.0013 34.7177 84.1451 36.0106C84.1135 36.054 84.0819 36.0603 84.0503 36.0288L82.9929 34.0334C82.936 33.9499 82.9003 33.8537 82.889 33.7533C82.889 33.6462 82.9592 33.5664 83.0919 33.5132C83.2071 33.4642 83.3305 33.4369 83.4556 33.4327C83.4746 33.4327 83.4858 33.397 83.4886 33.3249C83.4949 33.2757 83.4901 33.2257 83.4746 33.1785C82.7191 33.2163 82.3037 33.2353 82.2283 33.2353C82.0521 33.2353 81.8442 33.2269 81.6048 33.2114V33.2058ZM91.5471 33.969C91.8939 34.2671 92.1573 34.6496 92.3117 35.0794C92.4775 35.5334 92.5607 36.0133 92.5575 36.4965C92.5608 36.9182 92.4895 37.3372 92.3468 37.7343C92.2126 38.1096 91.983 38.4437 91.6805 38.704C91.3887 38.9603 91.0119 39.0995 90.6231 39.0946C90.1757 39.1008 89.7419 38.9414 89.4056 38.6473C89.0582 38.3477 88.7947 37.9634 88.6409 37.5319C88.4751 37.0762 88.3919 36.5948 88.3952 36.11C88.3827 35.4694 88.5635 34.8399 88.9141 34.3029C89.26 33.7821 89.7323 33.5216 90.331 33.5216C90.7785 33.5148 91.2125 33.6743 91.5485 33.969H91.5471ZM90.4707 39.5C91.302 39.5 92.0133 39.1894 92.6045 38.5681C93.1749 37.956 93.492 37.1514 93.492 36.3158C93.492 35.4802 93.1749 34.6756 92.6045 34.0635C92.0147 33.4385 91.3041 33.126 90.4728 33.126C89.6415 33.126 88.9318 33.4383 88.3439 34.0628C87.7625 34.6685 87.4452 35.479 87.4613 36.3172C87.4613 37.1956 87.7555 37.9457 88.3439 38.5674C88.9323 39.1891 89.6419 39.4991 90.4728 39.4972L90.4707 39.5ZM99.1197 37.3996C99.1213 37.5288 99.1117 37.6579 99.0909 37.7854C97.1899 35.1366 96.1232 33.5989 95.8905 33.1722C95.7141 33.1848 95.4622 33.1911 95.135 33.1911C94.9843 33.1911 94.6634 33.1848 94.1724 33.1722C94.1415 33.2179 94.1281 33.273 94.1345 33.3277C94.1345 33.4061 94.1471 33.4453 94.1724 33.4453C94.3156 33.4525 94.4578 33.4731 94.5972 33.5069C94.7917 33.5475 94.8991 33.593 94.9181 33.6469C94.9688 33.8786 94.9909 34.1156 94.9841 34.3527V38.0521C94.9841 38.4792 94.9525 38.7742 94.8893 38.9371C94.871 38.9938 94.7622 39.0456 94.5642 39.0925C94.4237 39.1302 94.2797 39.1536 94.1345 39.1625C94.1155 39.1625 94.1057 39.2067 94.1057 39.2942C94.0995 39.3427 94.1096 39.392 94.1345 39.4342L95.22 39.3873C95.3136 39.3873 95.6757 39.4029 96.3062 39.4342C96.3203 39.382 96.3251 39.3277 96.3202 39.2739C96.3202 39.199 96.3062 39.1611 96.2872 39.1611C96.1548 39.1494 96.0237 39.126 95.8954 39.0911C95.6965 39.0445 95.5909 38.9978 95.5788 38.9511C95.5343 38.7817 95.5123 38.49 95.5128 38.0759V34.0586L99.1758 39.2396C99.2769 39.3838 99.3809 39.4559 99.4876 39.4559C99.55 39.4637 99.6133 39.4504 99.6673 39.4181C99.6481 38.9285 99.6385 38.4893 99.6385 38.1004V34.5228C99.6293 34.2291 99.6548 33.9354 99.7144 33.6476C99.727 33.6035 99.8386 33.5559 100.049 33.5076C100.184 33.4702 100.321 33.4449 100.46 33.432C100.485 33.432 100.498 33.3949 100.498 33.3193C100.499 33.2719 100.493 33.2246 100.479 33.1792C100.435 33.1792 100.289 33.1883 100.04 33.2079C99.7916 33.2276 99.5859 33.236 99.4216 33.236C99.2573 33.236 99.0438 33.2276 98.7988 33.2121L98.3073 33.1792C98.2771 33.2217 98.2639 33.2739 98.2701 33.3256C98.2701 33.3956 98.282 33.4334 98.3073 33.4334C98.4497 33.4423 98.5909 33.4657 98.7286 33.5034C98.9266 33.5503 99.0354 33.5986 99.0544 33.6497C99.0979 33.8192 99.1199 34.0952 99.1204 34.478L99.1197 37.3996ZM101.086 33.21C101.054 33.2572 101.041 33.3141 101.048 33.3704C101.048 33.4453 101.06 33.4831 101.086 33.4831C101.212 33.4906 101.337 33.5127 101.458 33.5489C101.625 33.593 101.718 33.6399 101.739 33.6889C101.792 33.9553 101.814 34.2269 101.805 34.4983V38.057C101.805 38.5705 101.783 38.8655 101.739 38.942C101.708 38.998 101.612 39.0477 101.451 39.0925C101.333 39.1291 101.211 39.1512 101.088 39.1583C101.069 39.1583 101.059 39.2025 101.059 39.29C101.053 39.3385 101.063 39.3878 101.088 39.43L102.23 39.402C102.481 39.3959 102.795 39.399 103.17 39.4111C103.544 39.4237 103.769 39.43 103.844 39.43C104.865 39.43 105.664 39.1266 106.243 38.5198C106.821 37.913 107.111 37.1536 107.111 36.2416C107.116 35.848 107.042 35.4574 106.894 35.0923C106.747 34.7272 106.529 34.3947 106.252 34.1139C105.679 33.5109 104.88 33.2096 103.854 33.21C103.734 33.21 103.49 33.21 103.123 33.2198C102.755 33.2297 102.45 33.229 102.21 33.229C101.788 33.229 101.414 33.2227 101.086 33.21H101.086ZM102.747 33.7751C102.823 33.6747 103.2 33.6245 103.88 33.6245H103.927C104.657 33.6245 105.213 33.8754 105.594 34.3772C105.975 34.8789 106.165 35.4878 106.165 36.2038C106.165 38.0675 105.441 38.9994 103.993 38.9994C103.823 38.9994 103.582 38.9833 103.271 38.9525C102.96 38.9217 102.792 38.8741 102.766 38.8125C102.669 38.5864 102.622 38.3426 102.625 38.0969V34.3695C102.627 34.0873 102.665 33.8892 102.747 33.7765V33.7751ZM110.395 33.2051L109.885 33.1722C109.855 33.2163 109.841 33.2698 109.848 33.3228C109.848 33.3928 109.86 33.4264 109.885 33.4264C109.988 33.4346 110.09 33.4567 110.187 33.4922C110.298 33.5227 110.403 33.5699 110.499 33.6322C110.587 33.689 110.665 33.76 110.73 33.8423C110.816 33.9673 110.893 34.0978 110.961 34.2329C111.61 35.3938 112.002 36.1044 112.137 36.3648C112.272 36.6253 112.34 36.7996 112.34 36.8878V38.064C112.34 38.472 112.315 38.7733 112.264 38.9679C112.245 39.0183 112.159 39.0652 112.005 39.1079C111.893 39.1442 111.777 39.1663 111.66 39.1737C111.635 39.1737 111.623 39.2144 111.623 39.2963C111.618 39.3433 111.631 39.3903 111.66 39.4279C112.384 39.3962 112.755 39.3805 112.774 39.381C112.85 39.381 113.202 39.3966 113.832 39.4279C113.845 39.3853 113.851 39.3409 113.851 39.2963C113.851 39.2144 113.838 39.1737 113.813 39.1737C113.703 39.1628 113.596 39.1393 113.492 39.1037C113.334 39.0571 113.25 39.0104 113.237 38.9637C113.178 38.6787 113.151 38.3879 113.159 38.0969V36.6666C113.159 36.5784 113.387 36.1583 113.843 35.4064C114.299 34.6544 114.647 34.0927 114.886 33.7211C114.949 33.6399 115.075 33.5699 115.264 33.5111C115.392 33.4669 115.525 33.4385 115.661 33.4264C115.686 33.4264 115.699 33.3893 115.699 33.3137C115.7 33.2663 115.694 33.219 115.68 33.1736C115.623 33.1736 115.491 33.1827 115.283 33.2023C115.075 33.2219 114.874 33.2304 114.679 33.2304C114.635 33.2304 114.263 33.2114 113.565 33.1736C113.534 33.216 113.521 33.2682 113.527 33.32C113.527 33.39 113.539 33.4278 113.565 33.4278C113.725 33.4229 113.884 33.4586 114.027 33.5314C114.153 33.6014 114.216 33.6714 114.216 33.7414C114.216 33.9613 113.788 34.7177 112.932 36.0106C112.901 36.054 112.869 36.0603 112.837 36.0288L111.78 34.0334C111.723 33.9497 111.688 33.8537 111.676 33.7533C111.676 33.6462 111.746 33.5664 111.879 33.5132C111.994 33.4642 112.117 33.4369 112.243 33.4327C112.262 33.4327 112.273 33.397 112.276 33.3249C112.282 33.2757 112.277 33.2257 112.262 33.1785C111.506 33.2163 111.091 33.2353 111.015 33.2353C110.839 33.2353 110.631 33.2269 110.392 33.2114L110.395 33.2051ZM120.337 33.9683C120.684 34.2665 120.947 34.649 121.102 35.0787C121.268 35.5327 121.351 36.0126 121.347 36.4958C121.351 36.9175 121.279 37.3365 121.137 37.7336C121.002 38.1085 120.773 38.4425 120.471 38.7033C120.179 38.9596 119.802 39.0988 119.414 39.0939C118.966 39.1005 118.532 38.9411 118.195 38.6465C117.848 38.347 117.585 37.9627 117.431 37.5312C117.265 37.0755 117.182 36.5941 117.185 36.1093C117.172 35.4686 117.353 34.8389 117.705 34.3022C118.051 33.7814 118.523 33.5209 119.121 33.5209C119.568 33.5141 120.002 33.6736 120.338 33.9683H120.337ZM119.261 39.4993C120.092 39.4993 120.803 39.1887 121.394 38.5674C121.965 37.9553 122.282 37.1507 122.282 36.3151C122.282 35.4795 121.965 34.6749 121.394 34.0628C120.803 33.4383 120.092 33.126 119.261 33.126C118.429 33.126 117.72 33.4383 117.132 34.0628C116.551 34.6687 116.233 35.479 116.249 36.3172C116.249 37.1956 116.543 37.9457 117.132 38.5674C117.72 39.1891 118.43 39.4991 119.261 39.4972V39.4993ZM123.059 33.1736C123.028 33.2174 123.015 33.271 123.021 33.3242C123.021 33.4061 123.034 33.4467 123.059 33.4467C123.182 33.4531 123.304 33.4738 123.423 33.5083C123.583 33.5489 123.673 33.5944 123.692 33.6483C123.736 33.8178 123.758 34.0978 123.758 34.4885V36.6197C123.758 37.5999 123.959 38.3089 124.362 38.7467C124.765 39.1845 125.341 39.4043 126.09 39.4062C126.845 39.4062 127.427 39.2162 127.836 38.8363C128.246 38.4563 128.45 37.7796 128.45 36.8059V34.52C128.441 34.2263 128.466 33.9326 128.526 33.6448C128.539 33.6007 128.65 33.5531 128.861 33.5048C128.995 33.4674 129.133 33.4421 129.272 33.4292C129.297 33.4292 129.31 33.3921 129.31 33.3165C129.311 33.2691 129.304 33.2218 129.291 33.1764C129.246 33.1764 129.1 33.1855 128.852 33.2051C128.603 33.2248 128.397 33.2332 128.233 33.2332C128.069 33.2332 127.855 33.2248 127.61 33.2093L127.119 33.1764C127.089 33.2189 127.075 33.2711 127.082 33.3228C127.082 33.3928 127.094 33.4306 127.119 33.4306C127.261 33.4395 127.402 33.4629 127.54 33.5006C127.738 33.5475 127.847 33.5958 127.866 33.6469C127.909 33.8164 127.931 34.0924 127.932 34.4752V36.8283C127.932 38.2402 127.394 38.9464 126.317 38.9469C125.763 38.9469 125.335 38.7369 125.033 38.3168C124.73 37.8967 124.579 37.3319 124.58 36.6225V34.5221C124.572 34.228 124.601 33.9341 124.665 33.6469C124.678 33.6028 124.765 33.5587 124.93 33.5146C125.04 33.4805 125.154 33.4584 125.269 33.4488C125.294 33.4488 125.307 33.4019 125.307 33.3088C125.307 33.264 125.301 33.2194 125.288 33.1764C124.658 33.2082 124.293 33.224 124.193 33.224C124.162 33.224 123.784 33.2082 123.06 33.1764L123.059 33.1736ZM133.53 34.9156C133.53 35.2796 133.413 35.5713 133.179 35.7907C132.945 36.0101 132.717 36.12 132.494 36.1205H132.258C131.711 36.1205 131.437 36.0295 131.437 35.8474V34.7083C131.437 34.401 131.441 34.1734 131.451 34.0257C131.453 33.9312 131.465 33.8372 131.489 33.7456C131.493 33.7299 131.5 33.7153 131.511 33.7032C131.522 33.691 131.535 33.6815 131.55 33.6756C131.766 33.6251 131.989 33.603 132.211 33.6098C133.092 33.6098 133.533 34.046 133.533 34.9184L133.53 34.9156ZM131.695 33.2114C131.437 33.2241 131.213 33.2304 131.025 33.2304L129.892 33.2114C129.861 33.2586 129.847 33.3155 129.854 33.3718C129.854 33.4467 129.867 33.4845 129.892 33.4845C130.019 33.492 130.144 33.5141 130.265 33.5503C130.432 33.5944 130.525 33.6413 130.546 33.6903C130.599 33.9567 130.621 34.2283 130.612 34.4997V38.0584C130.612 38.5719 130.59 38.8669 130.546 38.9434C130.514 38.9994 130.42 39.047 130.265 39.0834C130.145 39.1156 130.022 39.1346 129.897 39.1401C129.878 39.1401 129.868 39.1815 129.868 39.2627C129.861 39.3207 129.871 39.3798 129.897 39.4321L131.049 39.3852C131.236 39.3852 131.645 39.4008 132.276 39.4321C132.29 39.3867 132.296 39.3395 132.295 39.2921C132.295 39.2046 132.282 39.1604 132.257 39.1604C132.118 39.1504 131.981 39.125 131.847 39.0848C131.655 39.0349 131.543 38.9691 131.511 38.8874C131.461 38.7623 131.436 38.4893 131.436 38.0682V36.6855C131.435 36.6651 131.437 36.6445 131.443 36.625C131.45 36.6055 131.46 36.5875 131.474 36.5721C131.493 36.5497 131.52 36.5349 131.549 36.5301C131.587 36.526 131.625 36.5243 131.662 36.5252C131.781 36.5193 131.899 36.5321 132.013 36.563C132.083 36.5948 132.149 36.636 132.207 36.6855C132.285 36.7534 132.355 36.829 132.418 36.9109C132.497 37.0117 132.567 37.1051 132.629 37.191C132.688 37.275 132.783 37.4136 132.909 37.6055C133.036 37.7973 133.153 37.9618 133.253 38.0997C133.902 39.0029 134.667 39.4547 135.548 39.4552C135.634 39.4564 135.719 39.447 135.803 39.4272C135.823 39.3833 135.833 39.3354 135.831 39.2872C135.832 39.2417 135.823 39.1965 135.803 39.1555C135.425 39.1555 134.934 38.826 134.328 38.167C133.887 37.6708 133.521 37.1124 133.243 36.5098C133.218 36.472 133.237 36.4397 133.3 36.4159C133.625 36.2713 133.904 36.0399 134.107 35.7473C134.305 35.4589 134.404 35.1828 134.404 34.9191C134.41 34.6349 134.337 34.3548 134.194 34.109C134.066 33.8881 133.884 33.7034 133.665 33.5727C133.461 33.4519 133.242 33.3578 133.013 33.2927C132.802 33.2308 132.582 33.199 132.362 33.1981C132.179 33.1981 131.959 33.2044 131.701 33.217L131.695 33.2114ZM138.201 33.2114C138.169 33.2586 138.156 33.3155 138.163 33.3718C138.163 33.4467 138.175 33.4845 138.201 33.4845C138.327 33.492 138.452 33.5141 138.574 33.5503C138.741 33.5942 138.834 33.6409 138.854 33.6903C138.908 33.9567 138.93 34.2283 138.92 34.4997V38.0584C138.92 38.5719 138.898 38.8669 138.854 38.9434C138.823 38.9994 138.727 39.0491 138.567 39.0939C138.448 39.1305 138.326 39.1526 138.203 39.1597C138.184 39.1597 138.175 39.2004 138.175 39.2823C138.168 39.3341 138.178 39.3869 138.203 39.4328L139.345 39.4048C139.786 39.4048 140.353 39.4111 141.045 39.4237C141.737 39.4363 142.244 39.4424 142.565 39.4419C142.584 39.3206 142.612 39.201 142.65 39.0841C142.694 38.9399 142.735 38.8132 142.773 38.7033C142.811 38.5933 142.862 38.4491 142.928 38.2699C142.994 38.0906 143.043 37.9611 143.075 37.8792C143.037 37.8421 142.958 37.8232 142.839 37.8232C142.763 37.8232 142.719 37.8421 142.706 37.8792C142.645 38.0981 142.551 38.3062 142.425 38.496C142.309 38.6683 142.203 38.7796 142.109 38.83C141.901 38.9369 141.505 38.9903 140.919 38.9903H140.466C140.057 38.9903 139.843 38.959 139.824 38.8965C139.767 38.7331 139.739 38.4475 139.739 38.0395V36.5819C139.739 36.5252 139.966 36.4965 140.419 36.4972C141.004 36.4972 141.338 36.5221 141.42 36.5721C141.449 36.59 141.475 36.6106 141.5 36.6337C141.531 36.6801 141.555 36.7308 141.57 36.7842C141.601 36.8692 141.639 36.9961 141.683 37.1651C141.702 37.2155 141.754 37.2407 141.834 37.2407C141.888 37.2471 141.941 37.2336 141.985 37.2029V35.4239C141.94 35.3878 141.883 35.3709 141.825 35.3769C141.737 35.3769 141.69 35.3987 141.685 35.4428C141.647 35.587 141.625 35.6766 141.619 35.7109C141.603 35.7686 141.579 35.8239 141.549 35.8754C141.53 35.926 141.495 35.969 141.45 35.998L141.28 36.0449C141.198 36.0686 141.114 36.0813 141.03 36.0827H140.146C139.876 36.0827 139.741 36.0638 139.741 36.026V34.52C139.733 34.2556 139.748 33.9911 139.788 33.7295C139.8 33.6479 140.077 33.607 140.619 33.607H141.251C141.547 33.607 141.781 33.6556 141.953 33.7526C142.125 33.8497 142.257 34.071 142.349 34.4164C142.355 34.4605 142.4 34.4822 142.482 34.4822C142.542 34.4885 142.603 34.4717 142.652 34.4353C142.639 34.3606 142.596 34.1739 142.524 33.8752C142.454 33.5769 142.402 33.3375 142.378 33.1547C142.025 33.1547 141.5 33.1673 140.801 33.1925C140.102 33.2177 139.61 33.2304 139.326 33.2304C138.905 33.2304 138.53 33.2241 138.203 33.2114H138.201ZM143.762 33.1736C143.731 33.2195 143.718 33.2745 143.724 33.3291C143.724 33.4075 143.737 33.4467 143.762 33.4467C143.948 33.448 144.131 33.5 144.29 33.5972C144.511 33.7232 144.719 33.9398 144.914 34.2469L146.236 36.2619L144.215 38.8979C144.129 38.9764 144.026 39.0344 143.913 39.0673C143.808 39.1043 143.698 39.1311 143.588 39.1471C143.517 39.1548 143.453 39.1597 143.385 39.1611C143.359 39.1611 143.347 39.2116 143.347 39.3117C143.346 39.3533 143.353 39.3946 143.366 39.4342C143.995 39.4025 144.382 39.3868 144.527 39.3873C144.652 39.3873 145.008 39.4029 145.594 39.4342C145.61 39.3955 145.616 39.3534 145.612 39.3117C145.612 39.2116 145.6 39.1611 145.575 39.1611C145.44 39.1645 145.306 39.1439 145.179 39.1002C145.102 39.0777 145.032 39.0374 144.975 38.9826C144.952 38.956 144.937 38.9231 144.933 38.8881C144.933 38.763 145.448 38.0099 146.478 36.6288L147.894 38.7845C147.919 38.8177 147.935 38.8567 147.941 38.8979C147.941 38.9728 147.871 39.0379 147.731 39.0855C147.622 39.1291 147.508 39.1547 147.391 39.1611C147.366 39.1611 147.353 39.2004 147.353 39.2788C147.346 39.3334 147.36 39.3887 147.391 39.4342C148.272 39.4025 148.731 39.3868 148.769 39.3873C148.807 39.3878 149.138 39.4034 149.761 39.4342C149.776 39.3952 149.782 39.3534 149.78 39.3117C149.78 39.2116 149.764 39.1611 149.732 39.1611C149.55 39.1599 149.37 39.1281 149.199 39.0673C149.041 39.0205 148.903 38.9219 148.807 38.7873L147.002 36.0358L148.777 33.7197C148.84 33.6385 148.988 33.5727 149.211 33.5223C149.366 33.4825 149.524 33.4572 149.683 33.4467C149.702 33.4467 149.713 33.4075 149.716 33.3291C149.723 33.2768 149.718 33.2239 149.702 33.1736C149.072 33.2054 148.72 33.2212 148.645 33.2212C148.431 33.2212 148.031 33.2054 147.446 33.1736C147.415 33.2191 147.401 33.2744 147.408 33.3291C147.408 33.4075 147.421 33.4467 147.446 33.4467C147.607 33.4417 147.767 33.4741 147.913 33.5412C148.042 33.6035 148.106 33.67 148.106 33.7386C148.103 33.7911 148.088 33.8423 148.064 33.8892C148.023 33.9741 147.977 34.056 147.924 34.1342C147.858 34.2343 147.798 34.324 147.744 34.4024C147.691 34.4808 147.609 34.5921 147.499 34.7363L147.253 35.057C147.2 35.127 147.113 35.2369 146.989 35.391C146.866 35.545 146.792 35.6402 146.768 35.678L145.681 34.0306C145.619 33.9493 145.58 33.8525 145.568 33.7505C145.568 33.6427 145.634 33.5657 145.766 33.5195C145.884 33.475 146.009 33.4513 146.135 33.4495C146.154 33.4495 146.164 33.4103 146.168 33.3319C146.173 33.2796 146.169 33.2268 146.154 33.1764C145.524 33.2082 145.121 33.224 144.945 33.224L143.764 33.1764L143.762 33.1736ZM150.192 33.2114C150.16 33.2586 150.147 33.3155 150.154 33.3718C150.154 33.4467 150.167 33.4845 150.192 33.4845C150.318 33.492 150.443 33.5141 150.565 33.5503C150.731 33.5944 150.824 33.6413 150.846 33.6903C150.898 33.9567 150.921 34.2283 150.912 34.4997V38.0584C150.912 38.5719 150.89 38.8669 150.846 38.9434C150.814 38.9994 150.719 39.047 150.565 39.0834C150.444 39.1156 150.321 39.1346 150.197 39.1401C150.178 39.1401 150.169 39.1815 150.169 39.2627C150.161 39.3207 150.171 39.3797 150.197 39.4321L151.348 39.3852C151.535 39.3852 151.945 39.4008 152.576 39.4321C152.59 39.3866 152.596 39.3394 152.595 39.2921C152.595 39.2046 152.582 39.1604 152.557 39.1604C152.418 39.1504 152.28 39.125 152.147 39.0848C151.954 39.0349 151.842 38.9691 151.811 38.8874C151.76 38.7623 151.735 38.4893 151.736 38.0682V34.7076C151.736 34.4066 151.74 34.1804 151.75 34.0299C151.752 33.9334 151.763 33.8373 151.783 33.7428C151.786 33.7261 151.794 33.7107 151.806 33.6983C151.817 33.6859 151.832 33.6771 151.849 33.6728C152.065 33.6223 152.287 33.6002 152.51 33.607C152.919 33.607 153.221 33.7372 153.416 33.9977C153.611 34.2581 153.709 34.6112 153.709 35.057C153.716 35.4017 153.595 35.7367 153.369 35.998C153.142 36.2621 152.872 36.394 152.557 36.3935C152.342 36.3964 152.128 36.3613 151.925 36.2899C151.913 36.2836 151.903 36.2934 151.897 36.3179C151.885 36.354 151.882 36.3921 151.887 36.4296C151.892 36.4671 151.905 36.5031 151.925 36.535C152.057 36.7105 152.3 36.7982 152.652 36.7982C152.948 36.8023 153.241 36.7361 153.507 36.605C153.744 36.4901 153.953 36.3224 154.115 36.1149C154.26 35.9292 154.376 35.7229 154.46 35.503C154.549 35.2781 154.589 35.0368 154.577 34.7953C154.565 34.5537 154.501 34.3176 154.39 34.1027C154.277 33.8851 154.11 33.7003 153.904 33.5664C153.713 33.4452 153.507 33.351 153.29 33.2864C153.087 33.2242 152.875 33.1924 152.663 33.1918C152.479 33.1918 152.26 33.1981 152.001 33.2107C151.743 33.2233 151.52 33.2297 151.331 33.2297L150.192 33.2114ZM155.234 33.2114C155.202 33.2586 155.189 33.3155 155.196 33.3718C155.196 33.4467 155.209 33.4845 155.234 33.4845C155.36 33.492 155.485 33.5141 155.607 33.5503C155.773 33.5944 155.867 33.6413 155.888 33.6903C155.941 33.9567 155.963 34.2282 155.954 34.4997V38.0584C155.954 38.5719 155.932 38.8669 155.888 38.9434C155.857 38.9994 155.761 39.0491 155.6 39.0939C155.482 39.1305 155.36 39.1526 155.237 39.1597C155.218 39.1597 155.208 39.2004 155.208 39.2823C155.201 39.3342 155.211 39.387 155.237 39.4328L156.379 39.4048C156.819 39.4048 157.386 39.4111 158.078 39.4237C158.771 39.4363 159.278 39.4424 159.598 39.4419C159.617 39.3206 159.646 39.201 159.683 39.0841C159.728 38.9399 159.768 38.8125 159.806 38.7033C159.844 38.594 159.896 38.4491 159.962 38.2699C160.028 38.0906 160.077 37.9611 160.108 37.8792C160.071 37.8421 159.992 37.8232 159.872 37.8232C159.797 37.8232 159.753 37.8421 159.74 37.8792C159.679 38.098 159.584 38.3061 159.459 38.496C159.343 38.6683 159.238 38.7796 159.143 38.83C158.936 38.9369 158.539 38.9903 157.953 38.9903H157.5C157.091 38.9903 156.877 38.959 156.859 38.8965C156.802 38.7331 156.773 38.4475 156.773 38.0395V36.5819C156.773 36.5252 157 36.4965 157.453 36.4972C158.038 36.4972 158.372 36.5221 158.454 36.5721C158.483 36.5898 158.509 36.6104 158.534 36.6337C158.565 36.6798 158.589 36.7306 158.604 36.7842C158.636 36.8692 158.674 36.9961 158.718 37.1651C158.736 37.2155 158.788 37.2407 158.869 37.2407C158.922 37.2471 158.976 37.2336 159.02 37.2029V35.4239C158.975 35.3876 158.917 35.3707 158.859 35.3769C158.771 35.3769 158.724 35.3987 158.719 35.4428C158.681 35.587 158.658 35.6766 158.648 35.7109C158.633 35.7687 158.609 35.8241 158.578 35.8754C158.559 35.9259 158.524 35.9689 158.478 35.998L158.309 36.0449C158.227 36.0687 158.143 36.0814 158.059 36.0827H157.176C156.905 36.0827 156.769 36.0638 156.769 36.026V34.52C156.762 34.2556 156.778 33.9911 156.817 33.7295C156.83 33.6479 157.107 33.607 157.648 33.607H158.28C158.576 33.607 158.809 33.6556 158.978 33.7526C159.148 33.8497 159.281 34.071 159.375 34.4164C159.381 34.4605 159.426 34.4822 159.507 34.4822C159.568 34.4885 159.628 34.4717 159.677 34.4353C159.664 34.3606 159.622 34.1739 159.55 33.8752C159.48 33.5769 159.429 33.3375 159.403 33.1547C159.051 33.1547 158.525 33.1673 157.827 33.1925C157.129 33.2177 156.637 33.2304 156.352 33.2304C155.931 33.2304 155.557 33.2241 155.229 33.2114H155.234ZM166.252 37.6552C166.211 37.6391 166.168 37.6264 166.125 37.6174C166.08 37.6055 166.034 37.5991 165.988 37.5985C165.969 37.5985 165.942 37.6503 165.908 37.7539C165.873 37.8575 165.822 37.9856 165.756 38.1397C165.701 38.276 165.623 38.4017 165.525 38.5114C165.185 38.8755 164.704 39.0575 164.081 39.0575C163.595 39.0689 163.119 38.9214 162.726 38.6374C162.353 38.3692 162.064 38.0022 161.89 37.5782C161.711 37.1332 161.621 36.6574 161.625 36.1779C161.621 35.5073 161.851 34.8562 162.277 34.3373C162.711 33.7949 163.237 33.5235 163.854 33.523C164.124 33.5196 164.393 33.5559 164.652 33.6308C164.847 33.6841 165.032 33.7701 165.199 33.885C165.426 34.0627 165.602 34.2966 165.709 34.5634C165.737 34.6481 165.761 34.7314 165.779 34.8126C165.794 34.8303 165.813 34.8439 165.835 34.8522C165.856 34.8604 165.879 34.8629 165.902 34.8596C166.034 34.8596 166.1 34.8126 166.1 34.7195C166.1 34.657 166.107 34.2052 166.119 33.3641C165.364 33.2094 164.596 33.1296 163.825 33.126C163.411 33.1192 163.001 33.201 162.621 33.3658C162.242 33.5307 161.902 33.7748 161.625 34.0817C161.036 34.6982 160.713 35.5219 160.729 36.3739C160.723 36.776 160.797 37.1752 160.947 37.5485C161.097 37.9218 161.32 38.2617 161.602 38.5485C161.871 38.8407 162.199 39.0729 162.565 39.2298C162.93 39.3866 163.324 39.4647 163.722 39.4587C164.767 39.4587 165.519 39.3208 165.978 39.0449C166.016 39.0263 166.079 38.8113 166.167 38.4001C166.225 38.1627 166.269 37.9222 166.3 37.6797L166.252 37.6552ZM167.602 33.196C167.382 33.1865 167.163 33.1517 166.951 33.0924L166.771 34.4388C166.836 34.4893 166.917 34.5129 166.998 34.5046C167.054 34.5046 167.086 34.4892 167.092 34.4577C167.181 34.1062 167.289 33.8787 167.418 33.7751C167.547 33.6714 167.791 33.6196 168.15 33.6196C168.779 33.6196 169.119 33.6663 169.169 33.7596C169.219 33.853 169.248 34.1762 169.255 34.7293V38.1369C169.255 38.5261 169.233 38.8062 169.188 38.977C169.169 39.0274 169.08 39.0715 168.919 39.1086C168.8 39.1401 168.678 39.1591 168.556 39.1653C168.53 39.1653 168.518 39.2095 168.518 39.297C168.513 39.3466 168.526 39.3964 168.556 39.437C169.28 39.4053 169.657 39.3896 169.689 39.3901C169.789 39.3901 170.154 39.4057 170.784 39.437C170.797 39.3944 170.804 39.35 170.803 39.3054C170.803 39.2109 170.791 39.1653 170.765 39.1653C170.65 39.1563 170.536 39.1359 170.425 39.1044C170.262 39.0631 170.173 39.0211 170.161 38.977C170.097 38.6897 170.069 38.3959 170.076 38.1019V34.6992C170.076 34.2721 170.104 33.9583 170.161 33.7575C170.186 33.6642 170.532 33.6175 171.2 33.6175C171.558 33.6175 171.802 33.6693 171.931 33.773C172.061 33.8766 172.169 34.1041 172.257 34.4556C172.263 34.4871 172.294 34.5025 172.351 34.5025C172.433 34.5108 172.514 34.4872 172.578 34.4367L172.398 33.0903C172.186 33.1496 171.968 33.1844 171.748 33.1939C171.508 33.1939 171.172 33.2002 170.737 33.2128C170.303 33.2254 169.947 33.2318 169.67 33.2318C169.393 33.2318 169.039 33.2254 168.608 33.2128C168.176 33.2002 167.841 33.1939 167.602 33.1939V33.196ZM176.185 33.168C176.145 33.1673 176.105 33.1737 176.067 33.1869C176.03 33.2002 175.998 33.2229 175.972 33.2528C175.944 33.2843 175.92 33.3123 175.902 33.3375C175.877 33.3746 175.854 33.414 175.836 33.4551C175.811 33.5083 175.792 33.5524 175.779 33.5867C175.767 33.621 175.75 33.6735 175.727 33.7421C175.705 33.8108 175.688 33.8612 175.676 33.8927L174.034 38.0969C173.871 38.517 173.723 38.812 173.591 38.9819C173.524 39.0501 173.439 39.0961 173.345 39.1135C173.25 39.141 173.151 39.1567 173.052 39.1604C173.027 39.1604 173.014 39.2046 173.014 39.2921C173.009 39.3418 173.022 39.3918 173.052 39.4321L173.388 39.4132L173.704 39.3943C173.798 39.388 173.908 39.3852 174.034 39.3852C174.054 39.3852 174.378 39.4008 175.007 39.4321C175.022 39.38 175.026 39.3256 175.021 39.2718C175.017 39.1969 175.007 39.159 174.988 39.159C174.896 39.1535 174.804 39.1394 174.714 39.117C174.616 39.1001 174.523 39.0632 174.44 39.0085C174.413 38.9855 174.392 38.9564 174.379 38.9236C174.366 38.8908 174.361 38.8553 174.364 38.8202C174.364 38.7012 174.418 38.4841 174.525 38.1705L174.931 37.135L174.978 37.107C175.451 37.0757 175.851 37.0601 176.177 37.0601C176.411 37.0601 176.651 37.0694 176.895 37.0881C176.907 37.0895 176.918 37.0936 176.928 37.1002C176.938 37.1068 176.946 37.1156 176.952 37.1259L177.339 38.1894L177.377 38.293C177.396 38.356 177.416 38.4421 177.438 38.552C177.458 38.6464 177.469 38.7425 177.471 38.8391C177.471 38.8898 177.464 38.9403 177.452 38.9896C177.433 39.04 177.367 39.0806 177.254 39.1121C177.163 39.1398 177.068 39.1556 176.973 39.159C176.948 39.159 176.934 39.1983 176.93 39.2767C176.921 39.3308 176.933 39.3863 176.963 39.4321C177.687 39.4004 178.052 39.3847 178.058 39.3852C178.122 39.3852 178.468 39.4008 179.097 39.4321C179.108 39.402 179.114 39.3703 179.116 39.3383C179.116 39.2186 179.103 39.159 179.078 39.159C178.957 39.1484 178.838 39.1182 178.727 39.0694C178.57 39.0102 178.472 38.9334 178.434 38.8391C178.364 38.6823 178.273 38.4563 178.16 38.1614L176.272 33.1904L176.185 33.168ZM175.158 36.5567L175.969 34.4563L176.735 36.5371L176.706 36.584C176.41 36.6022 176.124 36.6115 175.847 36.612C175.727 36.612 175.504 36.6057 175.177 36.5931C175.164 36.5917 175.158 36.5795 175.158 36.5567ZM180.379 33.196C180.158 33.1865 179.94 33.1517 179.727 33.0924L179.548 34.4388C179.612 34.4893 179.694 34.5129 179.775 34.5046C179.831 34.5046 179.863 34.4892 179.869 34.4577C179.957 34.1062 180.066 33.8787 180.195 33.7751C180.324 33.6714 180.568 33.6196 180.927 33.6196C181.556 33.6196 181.896 33.6663 181.946 33.7596C181.997 33.853 182.025 34.1762 182.031 34.7293V38.1369C182.031 38.5261 182.009 38.8062 181.965 38.977C181.946 39.0274 181.857 39.0715 181.696 39.1086C181.577 39.1401 181.455 39.1591 181.332 39.1653C181.307 39.1653 181.295 39.2095 181.295 39.297C181.29 39.3466 181.303 39.3964 181.332 39.437C182.057 39.4053 182.434 39.3896 182.466 39.3901C182.566 39.3901 182.931 39.4057 183.561 39.437C183.574 39.3944 183.581 39.35 183.58 39.3054C183.58 39.2109 183.567 39.1653 183.542 39.1653C183.427 39.1563 183.313 39.1359 183.202 39.1044C183.039 39.0631 182.95 39.0211 182.938 38.977C182.874 38.6897 182.846 38.3959 182.853 38.1019V34.6992C182.853 34.2721 182.881 33.9583 182.938 33.7575C182.963 33.6642 183.309 33.6175 183.976 33.6175C184.335 33.6175 184.579 33.6693 184.708 33.773C184.838 33.8766 184.946 34.1041 185.034 34.4556C185.04 34.4871 185.071 34.5025 185.128 34.5025C185.209 34.5108 185.291 34.4872 185.355 34.4367L185.175 33.0903C184.963 33.1496 184.744 33.1844 184.524 33.1939C184.285 33.1939 183.948 33.2002 183.514 33.2128C183.08 33.2254 182.724 33.2318 182.447 33.2318C182.169 33.2318 181.815 33.2254 181.384 33.2128C180.954 33.2002 180.619 33.1939 180.379 33.1939V33.196ZM186.698 38.1383C186.698 38.5275 186.676 38.8076 186.632 38.9784C186.613 39.0288 186.523 39.0729 186.363 39.11C186.244 39.1415 186.122 39.1605 186 39.1667C185.974 39.1667 185.962 39.2109 185.962 39.2984C185.956 39.3481 185.97 39.3981 186 39.4384C186.724 39.4067 187.101 39.391 187.133 39.3915C187.233 39.3915 187.598 39.4071 188.228 39.4384C188.241 39.3958 188.248 39.3514 188.247 39.3068C188.247 39.2123 188.234 39.1667 188.209 39.1667C188.094 39.1577 187.98 39.1373 187.869 39.1058C187.705 39.0645 187.617 39.0225 187.605 38.9784C187.539 38.6893 187.509 38.3933 187.515 38.0969V34.5193C187.508 34.2252 187.537 33.9314 187.6 33.6441C187.613 33.6 187.701 33.5559 187.865 33.5118C187.976 33.4777 188.09 33.4557 188.205 33.446C188.23 33.446 188.243 33.4026 188.243 33.3144C188.244 33.267 188.238 33.2197 188.224 33.1743C187.594 33.2061 187.229 33.2219 187.129 33.2219C187.097 33.2219 186.719 33.2061 185.995 33.1743C185.964 33.2181 185.951 33.2717 185.957 33.3249C185.957 33.4068 185.97 33.4474 185.995 33.4474C186.119 33.4535 186.241 33.4742 186.359 33.509C186.519 33.5496 186.609 33.5951 186.628 33.649C186.672 33.8185 186.694 34.0985 186.694 34.4892L186.698 38.1383ZM193.109 33.9732C193.456 34.2713 193.72 34.6538 193.874 35.0836C194.04 35.5376 194.123 36.0175 194.12 36.5007C194.123 36.9224 194.052 37.3415 193.909 37.7385C193.775 38.1134 193.545 38.4474 193.244 38.7082C192.952 38.9645 192.575 39.1038 192.186 39.0988C191.738 39.1054 191.304 38.946 190.968 38.6515C190.621 38.3519 190.357 37.9676 190.203 37.5361C190.038 37.0804 189.955 36.5989 189.957 36.1142C189.945 35.4735 190.126 34.8438 190.477 34.3071C190.823 33.7863 191.296 33.5258 191.893 33.5258C192.341 33.5189 192.775 33.6784 193.112 33.9732H193.109ZM192.033 39.5042C192.863 39.5042 193.575 39.1936 194.167 38.5723C194.737 37.9602 195.054 37.1556 195.054 36.32C195.054 35.4844 194.737 34.6798 194.167 34.0677C193.571 33.4399 192.858 33.126 192.028 33.126C191.198 33.126 190.488 33.4383 189.899 34.0628C189.317 34.6687 189 35.479 189.016 36.3172C189.016 37.1956 189.31 37.9457 189.899 38.5674C190.487 39.1891 191.197 39.4991 192.028 39.4972L192.033 39.5042ZM200.681 37.4038C200.683 37.533 200.674 37.6621 200.653 37.7896C198.752 35.1408 197.685 33.6031 197.452 33.1764C197.276 33.189 197.025 33.1953 196.697 33.1953C196.547 33.1953 196.226 33.189 195.734 33.1764C195.703 33.2221 195.69 33.2772 195.696 33.3319C195.696 33.4103 195.709 33.4495 195.734 33.4495C195.877 33.4567 196.019 33.4773 196.159 33.5111C196.354 33.5517 196.461 33.5984 196.48 33.6511C196.532 33.8826 196.556 34.1196 196.55 34.3569V38.0563C196.55 38.4834 196.518 38.7784 196.455 38.9413C196.436 38.998 196.328 39.0498 196.129 39.0967C195.989 39.1344 195.845 39.1578 195.7 39.1667C195.681 39.1667 195.672 39.2109 195.672 39.2984C195.665 39.3468 195.675 39.396 195.7 39.4384L196.786 39.3915C196.879 39.3915 197.241 39.4071 197.871 39.4384C197.886 39.3863 197.891 39.3319 197.885 39.2781C197.885 39.2032 197.871 39.1653 197.852 39.1653C197.72 39.1536 197.589 39.1302 197.461 39.0953C197.263 39.0487 197.157 39.002 197.145 38.9553C197.1 38.7859 197.078 38.4942 197.079 38.0801V34.0586L200.742 39.2396C200.842 39.3838 200.946 39.4559 201.053 39.4559C201.116 39.4636 201.179 39.4503 201.232 39.4181C201.214 38.9285 201.204 38.4893 201.204 38.1004V34.5228C201.195 34.2292 201.22 33.9354 201.28 33.6476C201.292 33.6035 201.404 33.5559 201.615 33.5076C201.749 33.4698 201.887 33.4445 202.026 33.432C202.051 33.432 202.064 33.3949 202.064 33.3193C202.065 33.2719 202.059 33.2246 202.045 33.1792C202.001 33.1792 201.854 33.1883 201.605 33.2079C201.357 33.2276 201.15 33.236 200.987 33.236C200.825 33.236 200.61 33.2276 200.364 33.2121L199.872 33.1792C199.842 33.2216 199.828 33.2738 199.834 33.3256C199.834 33.3956 199.847 33.4334 199.872 33.4334C200.015 33.4422 200.156 33.4657 200.294 33.5034C200.492 33.5503 200.601 33.5993 200.619 33.6497C200.664 33.8192 200.686 34.0952 200.685 34.478L200.681 37.4038ZM202.919 35.2264C202.962 35.3695 203.034 35.5024 203.13 35.6171C203.23 35.7389 203.318 35.8418 203.394 35.9272C203.503 36.0387 203.625 36.1368 203.757 36.2192C203.924 36.3291 204.044 36.4061 204.116 36.4502C204.188 36.4944 204.316 36.5693 204.498 36.6757L204.81 36.8451C204.961 36.9263 205.064 36.9861 205.122 37.0244C205.178 37.0622 205.259 37.1203 205.362 37.1987C205.448 37.2581 205.522 37.3332 205.579 37.4199C205.627 37.5037 205.667 37.5919 205.697 37.6832C205.736 37.7957 205.756 37.9142 205.754 38.0332C205.754 38.3791 205.644 38.6452 205.424 38.8335C205.2 39.0219 204.914 39.1216 204.621 39.1135C203.791 39.1135 203.268 38.6617 203.054 37.7581C203.024 37.7279 202.987 37.705 202.947 37.6909C202.907 37.6768 202.864 37.672 202.822 37.6769C202.721 37.6769 202.671 37.6951 202.671 37.7329C202.671 37.9593 202.75 38.4582 202.907 39.2298C202.976 39.2424 203.097 39.269 203.271 39.3096C203.444 39.3502 203.587 39.3817 203.7 39.4041C203.814 39.4258 203.955 39.4482 204.125 39.4699C204.284 39.491 204.445 39.502 204.606 39.5028C205.11 39.511 205.601 39.3392 205.989 39.0183C206.177 38.8716 206.329 38.6834 206.431 38.4684C206.534 38.2535 206.585 38.0177 206.58 37.7798C206.58 37.6294 206.549 37.4806 206.49 37.3422C206.439 37.2193 206.376 37.102 206.301 36.9921C206.208 36.8707 206.101 36.7616 205.98 36.6673C205.832 36.545 205.724 36.4603 205.655 36.4131C205.584 36.3662 205.457 36.2843 205.268 36.1681L204.937 35.9658C204.893 35.9413 204.791 35.8782 204.63 35.7774C204.469 35.6766 204.363 35.608 204.309 35.5674C204.256 35.5268 204.169 35.4638 204.054 35.3692C203.961 35.3 203.879 35.2157 203.814 35.12C203.762 35.0328 203.717 34.9415 203.681 34.8469C203.637 34.7375 203.615 34.6209 203.615 34.5032C203.607 34.251 203.689 34.0041 203.847 33.8066C204.001 33.6199 204.266 33.5265 204.644 33.5265C204.808 33.5246 204.97 33.5585 205.12 33.6261C205.269 33.6936 205.401 33.7929 205.508 33.9172C205.745 34.1776 205.879 34.4458 205.909 34.7216C205.922 34.7846 206.003 34.8161 206.155 34.8161C206.218 34.8161 206.249 34.7944 206.249 34.7503C206.249 34.1851 206.212 33.7363 206.136 33.404C206.022 33.3788 205.892 33.3459 205.744 33.3053C205.597 33.2647 205.484 33.2348 205.405 33.2156C205.305 33.1931 205.204 33.1758 205.102 33.1638C204.972 33.1477 204.841 33.14 204.71 33.1407C204.237 33.1344 203.777 33.2998 203.417 33.6063C203.239 33.7489 203.096 33.9304 202.999 34.1368C202.903 34.3432 202.855 34.5689 202.86 34.7965C202.86 34.9432 202.88 35.0891 202.921 35.2299L202.919 35.2264Z" fill="white"/>
</g>
<defs>
<clipPath id="clip0_776_662">
<rect width="219" height="39" fill="white" transform="translate(0.5 0.5)"/>
</clipPath>
</defs>
</svg>
