<svg width="220" height="40" viewBox="0 0 220 40" fill="none" xmlns="http://www.w3.org/2000/svg">
<g clip-path="url(#clip0_776_823)">
<path fill-rule="evenodd" clip-rule="evenodd" d="M12.9258 17.768C12.5007 18.3495 11.9031 18.783 11.2175 19.0072C10.6256 19.2156 10.018 19.3763 9.40032 19.4875C8.89194 19.57 8.3777 19.6115 7.86263 19.6114C7.0547 19.6114 6.49557 19.4667 6.18522 19.1773C5.85334 18.908 5.68764 17.9892 5.68811 16.4209V11.8988C5.68811 11.4647 5.72953 11.124 5.81239 10.8766C6.84734 10.794 7.59278 10.7527 8.0487 10.7527C9.95337 10.7527 11.3513 11.2225 12.2426 12.1621C13.1338 13.1016 13.5785 14.2321 13.5766 15.5535C13.5766 16.4403 13.3592 17.1785 12.9244 17.768H12.9258ZM2.76791 19.4868C2.66399 19.6735 2.34826 19.8387 1.82072 19.9825C1.29318 20.1263 0.895304 20.1986 0.627087 20.1995C0.565299 20.1995 0.534405 20.3337 0.534405 20.6021C0.534405 20.8705 0.565299 21.0357 0.627087 21.0978L4.38634 21.0047H8.64201C11.0227 21.0047 12.9332 20.4833 14.3736 19.4406C15.8139 18.3979 16.5336 16.9887 16.5326 15.2132C16.5326 13.8298 15.9733 12.6269 14.8545 11.6047C13.7358 10.5826 12.7729 9.99912 11.9659 9.85443C11.9034 9.79212 11.9554 9.7305 12.1211 9.66819C12.4849 9.52819 12.8335 9.35179 13.1617 9.1417C13.5656 8.89385 14.0056 8.45043 14.4817 7.81145C14.9577 7.17247 15.196 6.48074 15.1965 5.73627C15.2058 5.0355 15.057 4.3416 14.7611 3.70589C14.5027 3.13908 14.1209 2.63681 13.6433 2.23562C13.1673 1.85166 12.638 1.53848 12.072 1.30585C11.5195 1.06853 10.9409 0.89698 10.3482 0.794754C9.8042 0.702681 9.25347 0.655845 8.70169 0.654729C8.18351 0.654729 7.58809 0.659863 6.91545 0.670131C6.2428 0.6804 5.37823 0.685534 4.32174 0.685534C2.93338 0.685534 1.70113 0.664764 0.624981 0.623223C0.541426 0.710039 0.5 0.882271 0.5 1.15042C0.5 1.39827 0.541426 1.52219 0.624279 1.52219C0.892964 1.52219 1.30208 1.59454 1.85162 1.73923C2.40116 1.88392 2.70659 2.03888 2.76791 2.20411C2.91255 2.76142 2.9851 3.64941 2.98557 4.86811V16.5757C2.98557 18.2686 2.91302 19.239 2.76791 19.4868ZM7.73835 9.45185C6.37152 9.45185 5.68811 9.37951 5.68811 9.23481V5.54863L5.81239 2.42045C5.81239 2.25569 5.87441 2.16234 5.99845 2.1404C6.51616 1.99618 7.2513 1.92383 8.20387 1.92336C9.61236 1.92336 10.6738 2.3201 11.3881 3.11358C12.1024 3.90706 12.4598 5.01957 12.4602 6.4511C12.4602 7.29779 12.1754 7.97458 11.6057 8.48147C11.0361 8.98837 10.3267 9.28265 9.47755 9.36434C8.90027 9.43071 8.31945 9.46181 7.73835 9.45745V9.45185ZM25.2785 7.06651C25.1887 7.065 25.0993 7.07922 25.0145 7.10852C24.9331 7.13926 24.8607 7.1898 24.8038 7.25555C24.7407 7.32556 24.688 7.38857 24.6459 7.44458C24.5885 7.52723 24.5391 7.61514 24.4984 7.70713C24.4422 7.82615 24.4001 7.92417 24.372 8.00118C24.3439 8.0782 24.3053 8.19489 24.2562 8.35125C24.2066 8.50528 24.1679 8.6173 24.1403 8.68731L20.4709 18.0823C20.1049 19.0215 19.7744 19.6803 19.4795 20.0588C19.3812 20.1848 19.1984 20.2829 18.9312 20.3529C18.7184 20.4144 18.4988 20.4497 18.2775 20.4579C18.2213 20.4579 18.1932 20.5559 18.1932 20.7519C18.1932 20.906 18.2213 21.011 18.2775 21.067L19.0259 21.025C19.2867 21.011 19.5221 20.997 19.7323 20.983C19.9429 20.969 20.1894 20.962 20.4702 20.962C20.5124 20.962 21.2363 20.997 22.642 21.067C22.6753 20.9511 22.686 20.8299 22.6736 20.7099C22.6665 20.5419 22.642 20.4579 22.5998 20.4579C22.3936 20.4461 22.1891 20.4144 21.989 20.3634C21.7081 20.2999 21.5043 20.2191 21.3774 20.1211C21.2646 20.0371 21.2084 19.8971 21.2089 19.701C21.2089 19.435 21.3283 18.9514 21.567 18.2504L22.4734 15.9399L22.5788 15.8769C23.6334 15.8069 24.526 15.7719 25.2567 15.7719C25.7772 15.7719 26.3113 15.7929 26.859 15.8349C26.8852 15.8381 26.9102 15.8474 26.9322 15.862C26.9541 15.8766 26.9724 15.8961 26.9854 15.9189L27.849 18.2924L27.9333 18.5234C27.9754 18.6635 28.021 18.8562 28.0702 19.1017C28.1154 19.3126 28.1401 19.5274 28.1439 19.7431C28.144 19.8564 28.1298 19.9693 28.1018 20.0791C28.0597 20.1921 27.912 20.2831 27.6587 20.3522C27.4537 20.415 27.2412 20.4503 27.0268 20.4572C26.9706 20.4572 26.9391 20.5454 26.932 20.7204C26.925 20.8955 26.9496 21.011 27.0058 21.067L29.452 20.962C29.5924 20.962 30.3648 20.997 31.7691 21.067C31.7943 20.9997 31.8085 20.9288 31.8112 20.857C31.8112 20.5909 31.7831 20.4577 31.7269 20.4572C31.5584 20.4572 31.2984 20.3907 30.9469 20.2576C30.5953 20.1246 30.3774 19.9531 30.2932 19.7431C30.1387 19.393 29.9348 18.8884 29.6816 18.2294L25.4681 7.12952L25.2785 7.06651ZM22.9797 14.6349L24.7933 9.94404L26.5009 14.5901L26.4377 14.6951C25.7772 14.7371 25.1376 14.7581 24.5188 14.7581C24.252 14.7581 23.753 14.7441 23.0218 14.7161C22.9937 14.7161 22.9797 14.6881 22.9797 14.6321V14.6349ZM41.1974 10.9767C41.1974 11.7898 40.9339 12.4416 40.4068 12.9322C39.8797 13.4228 39.3702 13.668 38.8782 13.668H38.3509C37.1278 13.668 36.5162 13.4648 36.5162 13.0582V10.5118C36.5162 9.82572 36.5268 9.31766 36.5478 8.98767C36.5689 8.65767 36.597 8.44763 36.6321 8.35755C36.6411 8.32197 36.6585 8.28908 36.683 8.26166C36.7074 8.23423 36.7381 8.21309 36.7725 8.20002C37.1236 8.102 37.6151 8.05299 38.247 8.05299C40.213 8.05299 41.196 9.02711 41.196 10.9753L41.1974 10.9767ZM37.1067 7.17153C36.53 7.19954 36.0311 7.21354 35.6098 7.21354L33.0821 7.17153C33.0259 7.22754 32.9985 7.34656 32.9978 7.5293C32.9978 7.69733 33.0259 7.78134 33.0821 7.78134C33.2646 7.78134 33.5424 7.83035 33.9155 7.92837C34.2886 8.02639 34.4959 8.13141 34.5376 8.24343C34.6359 8.6215 34.6851 9.22408 34.6851 10.0512V17.9976C34.6851 19.1472 34.6359 19.8061 34.5376 19.9741C34.4664 20.1001 34.2558 20.2051 33.9057 20.2892C33.6368 20.3608 33.3608 20.403 33.0828 20.4152C33.0413 20.4152 33.0203 20.5062 33.0203 20.6882C33.0203 20.8983 33.0411 21.0243 33.0828 21.0663L35.6554 20.9613C36.0767 20.9613 36.9895 20.9963 38.3937 21.0663C38.4245 20.9642 38.4388 20.8578 38.4359 20.7512C38.4359 20.5552 38.4078 20.4572 38.3516 20.4572C38.1691 20.4572 37.8601 20.4005 37.4346 20.2892C37.0091 20.1778 36.7564 20.0294 36.6861 19.8474C36.5729 19.5673 36.5167 18.9577 36.5176 18.0186V14.929C36.5141 14.8835 36.5198 14.8377 36.5342 14.7945C36.5487 14.7512 36.5717 14.7112 36.6019 14.6769C36.6457 14.6273 36.7051 14.594 36.7704 14.5824C36.8544 14.574 36.9388 14.5705 37.0232 14.5719C37.3883 14.5719 37.6483 14.5999 37.8033 14.6559C37.9592 14.7266 38.1045 14.8185 38.2351 14.929C38.4061 15.0813 38.5615 15.2502 38.6992 15.4331C38.8747 15.658 39.0294 15.8648 39.1633 16.0534C39.2972 16.2419 39.5078 16.5502 39.7952 16.9782C40.0831 17.4058 40.3405 17.7738 40.5676 18.0823C42.0149 20.1011 43.7235 21.1102 45.6932 21.1097C45.8849 21.1133 46.0763 21.0921 46.2626 21.0467C46.3077 20.9479 46.3293 20.8401 46.3258 20.7316C46.3279 20.6298 46.3063 20.5289 46.2626 20.4369C45.4201 20.4369 44.3236 19.701 42.9731 18.2294C42.0599 17.2347 41.2517 16.0013 40.5486 14.5292C40.4924 14.4452 40.5346 14.3752 40.675 14.3192C41.4019 13.9961 42.0255 13.4796 42.4774 12.8265C42.9207 12.1824 43.1421 11.5658 43.1416 10.9767C43.1416 10.2901 42.9871 9.68756 42.6782 9.169C42.3933 8.6757 41.9868 8.26312 41.4972 7.97038C41.0409 7.69995 40.552 7.48822 40.0424 7.34026C39.5696 7.20302 39.0799 7.13233 38.5875 7.13022C38.1794 7.13022 37.6879 7.14423 37.113 7.17223L37.1067 7.17153ZM59.3751 17.0931C59.2823 17.0587 59.1873 17.0307 59.0907 17.009C58.9908 16.9839 58.8883 16.9698 58.7853 16.967C58.7431 16.967 58.6832 17.0826 58.6055 17.3136C58.5278 17.5446 58.4155 17.8319 58.2685 18.1755C58.1456 18.4799 57.9708 18.7609 57.7517 19.0058C56.9925 19.8194 55.9173 20.2259 54.5261 20.2254C53.3591 20.2254 52.3504 19.9137 51.4999 19.2901C50.6688 18.6909 50.0225 17.8716 49.6343 16.925C49.2326 15.9298 49.032 14.8654 49.0438 13.7927C49.0438 12.265 49.5287 10.8951 50.4986 9.6829C51.4685 8.47074 52.6423 7.86396 54.0199 7.86256C54.6226 7.85482 55.2231 7.93622 55.8019 8.1041C56.3285 8.2656 56.736 8.45487 57.0243 8.67191C57.3114 8.88956 57.5601 9.15339 57.7602 9.45255C57.9244 9.67995 58.0592 9.9272 58.1611 10.1884C58.2243 10.3774 58.2769 10.5637 58.3191 10.7485C58.3612 10.8185 58.4525 10.8535 58.5929 10.8535C58.8878 10.8535 59.0359 10.7485 59.0359 10.5385C59.0359 10.3984 59.05 9.38931 59.0781 7.51109C57.391 7.1681 55.6742 6.99198 53.9525 6.9853C52.0127 6.9853 50.3744 7.69663 49.0375 9.11929C47.7006 10.542 47.0329 12.2484 47.0343 14.2386C47.0343 16.1173 47.6845 17.736 48.9848 19.0947C50.2852 20.4534 51.8629 21.133 53.7179 21.1335C56.0514 21.1335 57.7311 20.8255 58.7572 20.2093C58.8414 20.1673 58.9819 19.6873 59.1785 18.7692C59.3751 17.8511 59.4734 17.3143 59.4734 17.1589L59.3751 17.0931ZM61.9238 7.16103C61.3621 7.12602 60.9898 7.10269 60.8067 7.09102C60.7501 7.14703 60.7218 7.25905 60.7218 7.42708C60.7218 7.60911 60.7499 7.70013 60.8067 7.70013C61.0827 7.71333 61.3562 7.75796 61.6219 7.83315C61.98 7.9265 62.1801 8.02802 62.2222 8.13771C62.3205 8.51625 62.3697 9.15406 62.3697 10.0512V17.9976C62.3697 19.1472 62.3205 19.8058 62.2222 19.9734C62.152 20.0994 61.9414 20.2044 61.5903 20.2885C61.3216 20.3608 61.0456 20.403 60.7674 20.4145C60.7253 20.4145 60.7042 20.5062 60.7042 20.6882C60.7042 20.8703 60.7253 20.9823 60.7674 21.0243L63.319 20.9613C64.2748 20.9613 65.5293 20.9823 67.0825 21.0243C68.6356 21.0663 69.7777 21.0873 70.5089 21.0873C70.5509 20.8165 70.6143 20.5494 70.6985 20.2885C70.7968 19.9664 70.8883 19.6826 70.973 19.4371C71.0577 19.1916 71.1748 18.8693 71.3241 18.4702C71.4715 18.0707 71.5806 17.7799 71.6513 17.5979C71.567 17.5138 71.3908 17.4718 71.124 17.4718C70.9555 17.4718 70.8565 17.5138 70.8291 17.5979C70.6942 18.0861 70.4843 18.5507 70.207 18.975C69.9467 19.3601 69.7113 19.6089 69.5006 19.7213C69.0363 19.9594 68.1506 20.0784 66.8437 20.0784H65.8242C64.911 20.0784 64.433 20.0084 64.3905 19.8684C64.2641 19.3778 64.2009 18.7612 64.2009 18.0186V10.0918C64.2009 9.27869 64.2641 8.62687 64.3905 8.13631C64.4185 8.03829 64.6154 7.94027 64.9809 7.84226C65.3465 7.74424 65.5995 7.69523 65.74 7.69523C65.7961 7.69523 65.8242 7.59721 65.8242 7.40117C65.8271 7.29459 65.8129 7.18823 65.7821 7.08612L65.0231 7.13863C64.7141 7.15963 64.426 7.17713 64.1587 7.19113C63.8919 7.20514 63.6174 7.21214 63.3365 7.21214C62.9574 7.21214 62.4865 7.19464 61.9238 7.15963V7.16103ZM79.4247 7.06651C79.3349 7.065 79.2455 7.07922 79.1607 7.10852C79.0793 7.13926 79.0069 7.1898 78.95 7.25555C78.8868 7.32556 78.8342 7.38857 78.792 7.44458C78.7344 7.52721 78.6848 7.61513 78.6439 7.70713C78.5877 7.82615 78.5456 7.92417 78.5175 8.00118C78.4894 8.0782 78.4508 8.19489 78.4016 8.35125C78.3525 8.50528 78.3139 8.6173 78.2858 8.68731L74.6171 18.0844C74.2511 19.0231 73.9206 19.6817 73.6257 20.0602C73.5274 20.1862 73.3448 20.2843 73.078 20.3543C72.8654 20.4164 72.6458 20.4517 72.4243 20.4593C72.3682 20.4593 72.3401 20.558 72.3401 20.754C72.3401 20.9081 72.3682 21.0131 72.4243 21.0691L73.1728 21.0271C73.4326 21.0131 73.6685 20.9991 73.8792 20.9851C74.0898 20.9711 74.3355 20.9641 74.6171 20.9641C74.6592 20.9641 75.3831 20.9991 76.7888 21.0691C76.8217 20.9531 76.8324 20.832 76.8204 20.712C76.8134 20.544 76.7888 20.4593 76.7502 20.4593C76.5437 20.4482 76.3388 20.4165 76.1386 20.3648C75.8578 20.3018 75.6539 20.2212 75.5271 20.1232C75.4147 20.0392 75.3586 19.8992 75.3586 19.7031C75.3586 19.4371 75.4779 18.9535 75.7167 18.2525L76.6238 15.942L76.7291 15.879C77.7833 15.809 78.6759 15.774 79.4071 15.774C79.9267 15.774 80.4608 15.795 81.0094 15.837C81.0355 15.8405 81.0605 15.8498 81.0824 15.8644C81.1043 15.8789 81.1226 15.8983 81.1358 15.921L82.0001 18.2966L82.0844 18.5276C82.1265 18.6677 82.1721 18.8609 82.2248 19.1059C82.2697 19.3169 82.2944 19.5316 82.2985 19.7473C82.2979 19.8605 82.2837 19.9734 82.2564 20.0833C82.2138 20.1963 82.0661 20.2873 81.8133 20.3564C81.6082 20.4189 81.3958 20.4542 81.1814 20.4614C81.1252 20.4614 81.0936 20.5489 81.0866 20.7246C81.0796 20.9004 81.1042 21.0152 81.1603 21.0712L83.6059 20.9662C83.7463 20.9662 84.5187 21.0012 85.923 21.0712C85.9477 21.0038 85.9619 20.9329 85.9651 20.8612C85.9651 20.5951 85.9363 20.4614 85.8808 20.4614C85.7114 20.4614 85.4514 20.3949 85.1008 20.2618C84.7501 20.1288 84.5322 19.9571 84.4471 19.7466C84.2916 19.3965 84.0878 18.8919 83.8355 18.2329L79.6142 7.12812L79.4247 7.06651ZM77.1259 14.6349L78.9395 9.94404L80.6499 14.5929L80.5867 14.6979C79.9262 14.7399 79.2868 14.7609 78.6685 14.7609C78.4012 14.7609 77.9019 14.7469 77.1708 14.7189C77.1427 14.7189 77.1287 14.6909 77.1287 14.6349H77.1259ZM87.8819 7.16103L86.7438 7.09102C86.6876 7.14703 86.6595 7.25905 86.6595 7.42708C86.6595 7.58111 86.6876 7.65812 86.7438 7.65812C86.8842 7.65812 87.1091 7.70713 87.4185 7.80515C87.6652 7.87432 87.8998 7.98055 88.1143 8.12021C88.311 8.24896 88.4855 8.40854 88.6311 8.59279C88.8206 8.87145 88.9925 9.16163 89.1458 9.46165C90.5936 12.0545 91.4687 13.6414 91.7711 14.2225C92.0735 14.8036 92.2247 15.1924 92.2247 15.3889V18.0172C92.2247 18.9283 92.1683 19.6009 92.0554 20.035C92.0133 20.1475 91.82 20.2525 91.4755 20.3501C91.131 20.4476 90.8735 20.4966 90.7031 20.4971C90.647 20.4971 90.6189 20.5881 90.6189 20.7701C90.6189 20.9102 90.647 21.0082 90.7031 21.0642C92.3195 20.9942 93.1489 20.9592 93.1915 20.9592C93.36 20.9592 94.1471 20.9942 95.5528 21.0642C95.5826 20.9691 95.5968 20.8698 95.5949 20.7701C95.5949 20.5881 95.5668 20.4971 95.5107 20.4971C95.3843 20.4971 95.1453 20.4446 94.7938 20.3396C94.4422 20.2345 94.2524 20.133 94.2243 20.035C94.112 19.6009 94.0558 18.9491 94.0558 18.0795V14.887C94.0558 14.6909 94.5653 13.7518 95.5844 12.0696C96.6034 10.3875 97.3802 9.13306 97.9148 8.30644C98.0552 8.12441 98.3361 7.97038 98.7574 7.84436C99.1786 7.71833 99.4738 7.65532 99.6428 7.65532C99.6989 7.65532 99.727 7.57131 99.727 7.40327C99.7299 7.29668 99.7157 7.19032 99.6849 7.08822C99.5585 7.08822 99.2634 7.10922 98.7995 7.15123C98.3356 7.19324 97.8858 7.21424 97.45 7.21424C97.3517 7.21424 96.5222 7.17223 94.9616 7.08822C94.9054 7.14423 94.8773 7.25275 94.8773 7.41378C94.8773 7.57481 94.9054 7.65532 94.9616 7.65532C95.3201 7.64425 95.6757 7.72373 95.9951 7.88636C96.276 8.04086 96.4164 8.19512 96.4164 8.34915C96.4164 8.84017 95.4606 10.5291 93.5489 13.416C93.4787 13.514 93.4085 13.528 93.3382 13.458L90.977 9.00097C90.822 8.73492 90.7445 8.52488 90.7445 8.37085C90.7445 8.13281 90.8957 7.95404 91.1981 7.83455C91.4552 7.72513 91.7305 7.66458 92.0098 7.65602C92.0519 7.65602 92.0753 7.57551 92.08 7.41448C92.0935 7.30473 92.0827 7.19337 92.0484 7.08822C90.3633 7.17223 89.4355 7.21424 89.2651 7.21424C88.8719 7.21424 88.4081 7.19674 87.8735 7.16173L87.8819 7.16103ZM101.45 11.6706C101.548 11.99 101.709 12.2864 101.925 12.5422C102.149 12.8153 102.346 13.0465 102.515 13.2361C102.684 13.4256 102.955 13.6428 103.327 13.8879C103.701 14.1329 103.968 14.3044 104.128 14.4025C104.288 14.5005 104.572 14.6687 104.982 14.9073C105.109 14.9773 105.341 15.1033 105.678 15.2853C106.015 15.4674 106.247 15.6004 106.373 15.6844C106.501 15.7684 106.68 15.8982 106.911 16.0737C107.103 16.2067 107.267 16.3744 107.396 16.568C107.503 16.7553 107.591 16.9522 107.66 17.1561C107.746 17.4063 107.789 17.6693 107.786 17.9339C107.786 18.7045 107.54 19.3003 107.048 19.7213C106.556 20.1424 105.959 20.3524 105.256 20.3515C103.4 20.3515 102.234 19.3423 101.756 17.3241C101.658 17.1981 101.482 17.1351 101.229 17.1351C101.004 17.1351 100.892 17.1771 100.892 17.2611C100.892 17.7652 101.067 18.8793 101.418 20.6035C101.574 20.6315 101.845 20.691 102.231 20.782C102.617 20.8731 102.937 20.9431 103.19 20.9921C103.443 21.0411 103.759 21.0901 104.139 21.1391C104.495 21.1867 104.854 21.2112 105.214 21.2126C106.394 21.2126 107.424 20.8518 108.304 20.1302C109.183 19.4086 109.622 18.4873 109.622 17.3661C109.622 17.0293 109.554 16.6959 109.421 16.3859C109.309 16.1094 109.167 15.8452 109 15.5976C108.793 15.3265 108.552 15.0828 108.283 14.8723C107.952 14.5992 107.71 14.4102 107.556 14.3051C107.402 14.2001 107.114 14.0179 106.692 13.7583L105.949 13.3124C105.851 13.2564 105.623 13.1163 105.264 12.8923C104.906 12.6682 104.667 12.5142 104.547 12.4302C104.428 12.3462 104.238 12.1989 103.978 11.9884C103.717 11.7779 103.538 11.5912 103.44 11.4283C103.325 11.2336 103.227 11.0299 103.145 10.8192C103.047 10.5744 102.996 10.3129 102.998 10.0491C102.998 9.43202 103.17 8.91345 103.514 8.49338C103.858 8.0733 104.452 7.86326 105.296 7.86326C106.054 7.86326 106.698 8.15405 107.225 8.73562C107.753 9.31719 108.051 9.91627 108.121 10.5329C108.149 10.6729 108.332 10.7429 108.669 10.7429C108.81 10.7429 108.88 10.6939 108.88 10.5959C108.88 9.33563 108.796 8.33351 108.627 7.58951C108.374 7.5335 108.082 7.45998 107.752 7.36897C107.422 7.27795 107.169 7.21144 106.993 7.16943C106.77 7.11904 106.545 7.08048 106.318 7.05391C106.028 7.0175 105.736 6.99996 105.443 7.0014C104.386 6.98849 103.36 7.35897 102.557 8.04389C101.728 8.73749 101.313 9.62432 101.312 10.7044C101.312 11.032 101.36 11.3579 101.453 11.672L101.45 11.6706ZM118.657 0.60852C117.826 0.557177 117.277 0.521004 117.007 0.5C116.923 0.583549 116.88 0.748779 116.88 0.995692C116.88 1.26454 116.922 1.39873 117.005 1.39827C117.274 1.39827 117.672 1.46548 118.198 1.5999C118.725 1.73433 119.02 1.88392 119.084 2.04869C119.228 2.60879 119.301 3.52783 119.301 4.8058V18.6193C119.312 19.7871 119.218 20.9535 119.02 22.1046C118.833 23.1268 118.595 23.9165 118.306 24.4738C118.016 25.0311 117.721 25.4545 117.42 25.7439C117.12 26.0323 116.825 26.1768 116.535 26.1772C116.266 26.1772 115.898 25.9553 115.432 25.5114C114.967 25.0675 114.547 24.8456 114.174 24.8456C113.688 24.8354 113.212 24.9879 112.823 25.279C112.44 25.5679 112.249 25.9397 112.248 26.3943C112.248 26.869 112.373 27.251 112.621 27.5404L112.838 27.6643C113.049 27.7633 113.267 27.8461 113.49 27.9122C113.731 27.9897 113.983 28.0314 114.236 28.0361C116.493 28.0361 118.352 27.0757 119.812 25.1551C121.273 23.2344 122.004 20.9732 122.006 18.3715V4.92902C122.006 3.7318 122.1 2.77169 122.287 2.04869C122.328 1.90446 122.618 1.76 123.157 1.61531C123.695 1.47061 124.068 1.39827 124.275 1.39827C124.357 1.39827 124.399 1.25404 124.399 0.964886C124.404 0.807588 124.383 0.650629 124.337 0.5C124.047 0.521004 123.674 0.546909 123.218 0.577714C122.763 0.60852 122.338 0.634191 121.945 0.654729C121.552 0.675732 121.148 0.686001 120.734 0.685534C120.175 0.685534 119.481 0.659863 118.652 0.60852H118.657ZM125.907 7.17153C125.851 7.22754 125.823 7.34656 125.823 7.5286C125.823 7.69663 125.851 7.78064 125.907 7.78064C126.09 7.78064 126.367 7.82965 126.74 7.92767C127.112 8.02569 127.32 8.13071 127.362 8.24273C127.46 8.62127 127.509 9.22408 127.509 10.0512V17.9976C127.509 19.1463 127.46 19.8049 127.362 19.9734C127.292 20.0994 127.077 20.2117 126.719 20.3102C126.36 20.4086 126.09 20.4577 125.907 20.4572C125.865 20.4572 125.844 20.5482 125.844 20.7302C125.844 20.913 125.865 21.0243 125.907 21.0663L128.458 21.0033C129.441 21.0033 130.706 21.0173 132.254 21.0453C133.801 21.0733 134.933 21.0873 135.648 21.0873C135.691 20.8167 135.754 20.5498 135.838 20.2892C135.936 19.9671 136.028 19.6831 136.112 19.4371C136.196 19.1911 136.313 18.8688 136.463 18.4702C136.61 18.0711 136.719 17.7804 136.789 17.5979C136.705 17.5138 136.529 17.4718 136.262 17.4718C136.094 17.4718 135.995 17.5138 135.967 17.5979C135.832 18.0862 135.623 18.5508 135.345 18.975C135.084 19.3605 134.849 19.6093 134.639 19.7213C134.175 19.9594 133.29 20.0784 131.982 20.0784H130.97C130.056 20.0784 129.578 20.0084 129.536 19.8684C129.41 19.5043 129.347 18.8667 129.347 17.9556V14.6979C129.347 14.5719 129.853 14.5089 130.865 14.5089C132.172 14.5089 132.917 14.5649 133.1 14.6769C133.164 14.7168 133.223 14.7625 133.279 14.8134C133.314 14.8484 133.367 14.9605 133.437 15.1495C133.507 15.3385 133.591 15.6223 133.69 16.0009C133.732 16.1129 133.845 16.1689 134.027 16.1689C134.196 16.1689 134.309 16.1409 134.365 16.0849V12.1116C134.295 12.0416 134.175 12.0066 134.006 12.0066C133.81 12.0066 133.704 12.0556 133.69 12.1537C133.606 12.4764 133.556 12.6759 133.543 12.753C133.506 12.8821 133.453 13.0059 133.384 13.1212C133.29 13.2893 133.217 13.3803 133.163 13.3943C133.109 13.4083 132.983 13.4433 132.784 13.4993C132.601 13.553 132.412 13.5813 132.222 13.5833H130.25C129.646 13.5833 129.343 13.5413 129.344 13.4573V10.0918C129.344 9.25162 129.379 8.66281 129.449 8.32534C129.477 8.14331 130.096 8.05229 131.304 8.05229H132.717C133.378 8.05229 133.898 8.16105 134.278 8.37855C134.658 8.59606 134.953 9.09012 135.163 9.86073C135.177 9.95875 135.276 10.0078 135.458 10.0078C135.641 10.0078 135.767 9.97275 135.838 9.90274C135.809 9.7347 135.714 9.31766 135.553 8.6516C135.392 7.98555 135.283 7.44878 135.226 7.04131C134.439 7.04131 133.265 7.06931 131.705 7.12532C130.145 7.18133 129.049 7.20934 128.416 7.20934C127.474 7.20934 126.638 7.19534 125.907 7.16733V7.17153ZM137.672 7.08752C137.616 7.14353 137.588 7.25555 137.588 7.42358C137.588 7.60561 137.616 7.69663 137.672 7.69663C137.896 7.70718 138.116 7.75327 138.326 7.83315C138.593 7.92417 138.782 8.04319 138.895 8.18322C139.303 8.70178 139.711 9.37461 140.118 10.2017L145.598 21.0677C145.617 21.1007 145.645 21.1279 145.678 21.1464C145.711 21.1649 145.749 21.174 145.787 21.1727C146.124 21.1727 146.398 20.9484 146.61 20.4999L148.887 15.809L151.459 21.0649C151.478 21.0982 151.506 21.1257 151.539 21.1442C151.573 21.1628 151.611 21.1717 151.649 21.1699C151.986 21.1699 152.26 20.9456 152.471 20.4971L156.941 10.4061C157.349 9.46749 157.757 8.75966 158.164 8.28264C158.318 8.1006 158.55 7.95708 158.86 7.85206C159.169 7.74704 159.394 7.69453 159.535 7.69453C159.591 7.69453 159.619 7.59651 159.619 7.40047C159.622 7.29388 159.608 7.18751 159.577 7.08542C159.38 7.09942 159.169 7.11342 158.945 7.12742C158.721 7.14143 158.502 7.15543 158.291 7.16873C158.08 7.18203 157.814 7.18974 157.49 7.18974C157.181 7.18974 156.464 7.15473 155.339 7.08472C155.283 7.14073 155.255 7.25695 155.255 7.43478C155.255 7.61261 155.283 7.69733 155.339 7.69733C155.606 7.70622 155.868 7.76686 156.112 7.87586C156.399 7.99582 156.544 8.17458 156.544 8.41216C156.544 8.72068 156.425 9.16223 156.185 9.7368L152.409 18.3771C152.324 18.6021 152.24 18.6371 152.156 18.4821L149.858 13.7731L151.481 10.4516C152.043 9.31603 152.45 8.59419 152.704 8.28614C152.845 8.11811 153.087 7.97808 153.432 7.86606C153.776 7.75404 154.019 7.69803 154.159 7.69803C154.201 7.69803 154.225 7.61051 154.229 7.43548C154.233 7.26045 154.229 7.14493 154.198 7.08542C152.793 7.1559 152.062 7.1909 152.005 7.19043C151.709 7.19043 150.999 7.15543 149.875 7.08542C149.818 7.14143 149.79 7.25765 149.79 7.43548C149.79 7.61331 149.818 7.69803 149.875 7.69803C150.147 7.70774 150.414 7.76461 150.666 7.86606C150.968 7.97901 151.119 8.15428 151.119 8.39186C151.108 8.81464 151.008 9.23037 150.824 9.61148L149.349 12.7019L147.958 9.86353C147.634 9.19094 147.472 8.67237 147.472 8.30784C147.472 8.22538 147.495 8.14445 147.538 8.07393C147.58 8.0034 147.642 7.94602 147.715 7.90807C147.85 7.82073 148 7.76011 148.158 7.72954C148.274 7.70981 148.391 7.69928 148.509 7.69803C148.551 7.69803 148.575 7.61051 148.579 7.43548C148.583 7.26045 148.579 7.14493 148.547 7.08542C147.143 7.1559 146.412 7.1909 146.355 7.19043C146.199 7.19043 145.314 7.15543 143.698 7.08542C143.642 7.14143 143.614 7.23944 143.614 7.37947C143.614 7.58951 143.642 7.69453 143.698 7.69453C143.922 7.70655 144.142 7.7538 144.351 7.83455C144.618 7.92557 144.808 8.04226 144.921 8.18462C145.328 8.70318 145.736 9.37601 146.143 10.2031L148.357 14.7441L146.607 18.3806C146.58 18.4499 146.527 18.5063 146.46 18.5381C146.447 18.5463 146.433 18.5519 146.418 18.5545C146.403 18.5572 146.388 18.5569 146.373 18.5536C146.358 18.5504 146.344 18.5443 146.332 18.5356C146.319 18.5269 146.309 18.5159 146.301 18.5031C146.297 18.4975 146.294 18.4917 146.291 18.4856L141.926 9.86633C141.603 9.25021 141.442 8.73165 141.442 8.31064C141.442 8.15661 141.523 8.02709 141.684 7.92207C141.82 7.82706 141.974 7.76256 142.138 7.73304C142.256 7.71346 142.376 7.70292 142.496 7.70153C142.538 7.70153 142.566 7.61401 142.569 7.43828C142.573 7.26255 142.566 7.14773 142.538 7.08822C141.134 7.15823 140.396 7.19324 140.324 7.19324C140.17 7.19324 139.284 7.15823 137.667 7.08822L137.672 7.08752ZM160.632 7.17153C160.575 7.22754 160.548 7.34656 160.548 7.5286C160.548 7.69663 160.575 7.78064 160.632 7.78064C160.815 7.78064 161.092 7.82965 161.465 7.92767C161.837 8.02569 162.045 8.13071 162.087 8.24273C162.185 8.62127 162.234 9.22408 162.234 10.0512V17.9976C162.234 19.1463 162.185 19.8049 162.087 19.9734C162.016 20.0994 161.802 20.2117 161.444 20.3102C161.086 20.4086 160.815 20.4577 160.632 20.4572C160.59 20.4572 160.569 20.5482 160.569 20.7302C160.569 20.913 160.59 21.0243 160.632 21.0663L163.183 21.0033C164.166 21.0033 165.431 21.0173 166.979 21.0453C168.526 21.0733 169.658 21.0873 170.373 21.0873C170.415 20.8167 170.479 20.5498 170.563 20.2892C170.661 19.9671 170.753 19.6828 170.837 19.4371C170.921 19.1914 171.037 18.87 171.188 18.4702C171.339 18.0704 171.445 17.7799 171.515 17.5979C171.431 17.5138 171.255 17.4718 170.988 17.4718C170.819 17.4718 170.721 17.5138 170.693 17.5979C170.558 18.0862 170.348 18.5508 170.071 18.975C169.811 19.3605 169.575 19.6093 169.364 19.7213C168.901 19.9594 168.015 20.0784 166.708 20.0784H165.696C164.782 20.0784 164.304 20.0084 164.262 19.8684C164.136 19.5043 164.072 18.8667 164.072 17.9556V14.6979C164.072 14.5719 164.578 14.5089 165.59 14.5089C166.897 14.5089 167.642 14.5649 167.825 14.6769C167.889 14.7168 167.949 14.7625 168.004 14.8134C168.04 14.8484 168.092 14.9605 168.162 15.1495C168.233 15.3385 168.317 15.6223 168.416 16.0009C168.458 16.1129 168.57 16.1689 168.753 16.1689C168.921 16.1689 169.034 16.1409 169.091 16.0849V12.1116C169.02 12.0416 168.9 12.0066 168.732 12.0066C168.534 12.0066 168.429 12.0556 168.416 12.1537C168.331 12.4766 168.281 12.6764 168.268 12.753C168.232 12.8824 168.179 13.0063 168.11 13.1212C168.018 13.2893 167.945 13.3803 167.889 13.3943C167.832 13.4083 167.705 13.4433 167.509 13.4993C167.327 13.5527 167.14 13.581 166.951 13.5833H164.977C164.372 13.5833 164.07 13.5413 164.07 13.4573V10.0918C164.07 9.25162 164.105 8.66281 164.176 8.32534C164.204 8.14331 164.822 8.05229 166.031 8.05229H167.443C168.104 8.05229 168.624 8.16105 169.004 8.37855C169.383 8.59606 169.678 9.09012 169.89 9.86073C169.903 9.95875 170.002 10.0078 170.185 10.0078C170.367 10.0078 170.494 9.97275 170.564 9.90274C170.535 9.7347 170.44 9.31766 170.279 8.6516C170.118 7.98555 170.01 7.44878 169.953 7.04131C169.165 7.04131 167.991 7.06931 166.432 7.12532C164.872 7.18133 163.775 7.20934 163.142 7.20934C162.2 7.20934 161.364 7.19534 160.633 7.16733L160.632 7.17153ZM173.957 7.16103C173.395 7.12602 173.023 7.10269 172.84 7.09102C172.784 7.14703 172.756 7.25905 172.756 7.42708C172.756 7.60911 172.784 7.70013 172.84 7.70013C173.115 7.71468 173.387 7.76048 173.652 7.83665C174.01 7.93001 174.21 8.03152 174.253 8.14121C174.351 8.51975 174.4 9.15757 174.4 10.0547V18.0011C174.4 19.1507 174.351 19.8093 174.253 19.9769C174.182 20.1029 173.971 20.2079 173.621 20.292C173.352 20.3643 173.077 20.4065 172.799 20.418C172.757 20.418 172.735 20.5097 172.735 20.6917C172.735 20.8738 172.757 20.9858 172.799 21.0278L175.35 20.9648C176.305 20.9648 177.56 20.9858 179.114 21.0278C180.668 21.0698 181.81 21.0908 182.539 21.0908C182.582 20.8199 182.645 20.5528 182.73 20.292C182.827 19.9699 182.919 19.6863 183.004 19.4406C183.088 19.1949 183.204 18.8728 183.355 18.4737C183.506 18.0746 183.611 17.7834 183.681 17.6014C183.597 17.5173 183.421 17.4753 183.154 17.4753C182.985 17.4753 182.887 17.5173 182.859 17.6014C182.724 18.0896 182.514 18.5542 182.237 18.9785C181.976 19.3636 181.741 19.6121 181.53 19.7241C181.067 19.9631 180.181 20.0824 178.874 20.0819H177.862C176.948 20.0819 176.47 20.0119 176.428 19.8719C176.302 19.3813 176.238 18.7647 176.238 18.0221V10.0918C176.238 9.27869 176.302 8.62687 176.428 8.13631C176.456 8.03829 176.653 7.94027 177.018 7.84226C177.384 7.74424 177.637 7.69523 177.778 7.69523C177.833 7.69523 177.862 7.59721 177.862 7.40117C177.865 7.29459 177.85 7.18823 177.82 7.08612L177.061 7.13863C176.751 7.15963 176.463 7.17713 176.196 7.19113C175.929 7.20514 175.654 7.21214 175.373 7.21214C174.994 7.21214 174.523 7.19464 173.961 7.15963L173.957 7.16103ZM184.647 7.17153C184.591 7.22754 184.563 7.34656 184.563 7.5286C184.563 7.69663 184.591 7.78064 184.647 7.78064C184.83 7.78064 185.108 7.82965 185.481 7.92767C185.854 8.02569 186.061 8.13071 186.102 8.24273C186.2 8.62127 186.25 9.22408 186.25 10.0512V17.9976C186.25 19.1463 186.201 19.8049 186.102 19.9734C186.032 20.0994 185.817 20.2117 185.459 20.3102C185.1 20.4086 184.83 20.4577 184.647 20.4572C184.605 20.4572 184.584 20.5482 184.584 20.7302C184.584 20.913 184.605 21.0243 184.647 21.0663L187.199 21.0033C188.182 21.0033 189.447 21.0173 190.994 21.0453C192.541 21.0733 193.673 21.0873 194.389 21.0873C194.431 20.8167 194.494 20.5498 194.578 20.2892C194.677 19.9671 194.768 19.6831 194.853 19.4371C194.938 19.1911 195.055 18.8688 195.204 18.4702C195.351 18.0711 195.46 17.7804 195.531 17.5979C195.446 17.5138 195.27 17.4718 195.004 17.4718C194.835 17.4718 194.736 17.5138 194.708 17.5979C194.574 18.0863 194.364 18.5509 194.087 18.975C193.826 19.3605 193.591 19.6093 193.38 19.7213C192.917 19.9594 192.031 20.0784 190.724 20.0784H189.711C188.797 20.0784 188.319 20.0084 188.277 19.8684C188.151 19.5043 188.088 18.8667 188.088 17.9556V14.6979C188.088 14.5719 188.594 14.5089 189.606 14.5089C190.913 14.5089 191.658 14.5649 191.841 14.6769C191.905 14.7168 191.965 14.7625 192.02 14.8134C192.089 14.9171 192.142 15.0304 192.178 15.1495C192.249 15.3362 192.333 15.62 192.431 16.0009C192.473 16.1129 192.586 16.1689 192.769 16.1689C192.937 16.1689 193.05 16.1409 193.106 16.0849V12.1116C193.036 12.0416 192.916 12.0066 192.748 12.0066C192.55 12.0066 192.445 12.0556 192.431 12.1537C192.347 12.4766 192.298 12.6764 192.284 12.753C192.248 12.8824 192.195 13.0063 192.126 13.1212C192.032 13.2893 191.958 13.3803 191.905 13.3943C191.851 13.4083 191.724 13.4433 191.525 13.4993C191.342 13.553 191.153 13.5813 190.963 13.5833H188.99C188.386 13.5833 188.084 13.5413 188.084 13.4573V10.0918C188.084 9.25162 188.119 8.66281 188.189 8.32534C188.217 8.14331 188.836 8.05229 190.045 8.05229H191.457C192.118 8.05229 192.638 8.16105 193.017 8.37855C193.397 8.59606 193.692 9.09082 193.905 9.86283C193.919 9.96085 194.018 10.0099 194.201 10.0099C194.384 10.0099 194.51 9.97485 194.58 9.90484C194.552 9.7368 194.458 9.31976 194.299 8.6537C194.14 7.98765 194.031 7.45088 193.972 7.04341C193.184 7.04341 192.011 7.07141 190.45 7.12742C188.89 7.18343 187.794 7.21144 187.162 7.21144C186.219 7.21144 185.383 7.19744 184.652 7.16943L184.647 7.17153ZM204.995 10.9767C204.995 11.7898 204.731 12.4414 204.204 12.9315C203.677 13.4216 203.167 13.6669 202.675 13.6673H202.148C200.925 13.6673 200.313 13.4641 200.313 13.0575V10.5118C200.313 9.82572 200.324 9.31766 200.345 8.98767C200.366 8.65767 200.394 8.44763 200.429 8.35755C200.438 8.32197 200.456 8.28908 200.48 8.26166C200.505 8.23423 200.535 8.21309 200.57 8.20002C200.921 8.102 201.412 8.05299 202.044 8.05299C204.01 8.05299 204.993 9.02711 204.993 10.9753L204.995 10.9767ZM200.904 7.17153C200.327 7.19954 199.828 7.21354 199.407 7.21354L196.879 7.17153C196.823 7.22754 196.795 7.34656 196.795 7.5286C196.795 7.69663 196.823 7.78064 196.879 7.78064C197.062 7.78064 197.34 7.82965 197.713 7.92767C198.086 8.02569 198.293 8.13071 198.335 8.24273C198.433 8.62127 198.482 9.22408 198.482 10.0512V17.9976C198.482 19.1463 198.433 19.8049 198.335 19.9734C198.264 20.0994 198.053 20.2044 197.703 20.2885C197.434 20.3608 197.158 20.403 196.88 20.4145C196.838 20.4145 196.817 20.5055 196.817 20.6882C196.817 20.8983 196.838 21.0243 196.88 21.0663L199.453 20.9613C199.874 20.9613 200.787 20.9963 202.191 21.0663C202.222 20.9642 202.236 20.8578 202.233 20.7512C202.233 20.5552 202.205 20.4572 202.149 20.4565C201.966 20.4565 201.66 20.4005 201.232 20.2885C200.803 20.1764 200.554 20.0294 200.483 19.8474C200.37 19.5673 200.314 18.9575 200.314 18.0179V14.929C200.311 14.8835 200.316 14.8377 200.331 14.7945C200.345 14.7512 200.368 14.7112 200.398 14.6769C200.443 14.6274 200.502 14.5941 200.568 14.5824C200.652 14.574 200.736 14.5705 200.82 14.5719C201.185 14.5719 201.445 14.5999 201.6 14.6559C201.756 14.727 201.902 14.8189 202.033 14.929C202.203 15.0815 202.359 15.2503 202.496 15.4331C202.672 15.658 202.827 15.8648 202.96 16.0534C203.094 16.2419 203.305 16.5502 203.592 16.9782C203.88 17.4058 204.138 17.7738 204.365 18.0823C205.813 20.1011 207.521 21.1102 209.49 21.1097C209.682 21.1133 209.873 21.0921 210.06 21.0467C210.105 20.9479 210.126 20.8401 210.123 20.7316C210.125 20.6298 210.104 20.5288 210.06 20.4369C209.217 20.4369 208.121 19.701 206.77 18.2294C205.857 17.2347 205.048 16.0013 204.346 14.5292C204.29 14.4452 204.332 14.3752 204.472 14.3192C205.199 13.9959 205.823 13.4795 206.275 12.8265C206.718 12.1824 206.939 11.5658 206.939 10.9767C206.939 10.2901 206.785 9.68756 206.475 9.169C206.191 8.6754 205.784 8.26273 205.294 7.97038C204.838 7.69995 204.349 7.48822 203.84 7.34026C203.367 7.20302 202.877 7.13233 202.385 7.13022C201.977 7.13022 201.485 7.14423 200.91 7.17223L200.904 7.17153ZM211.331 11.6706C211.428 11.9902 211.589 12.2869 211.805 12.5429C212.029 12.816 212.226 13.0472 212.395 13.2368C212.564 13.4263 212.835 13.6435 213.207 13.8886C213.581 14.1336 213.848 14.3051 214.009 14.4032C214.169 14.5012 214.453 14.6694 214.862 14.908C214.989 14.978 215.221 15.104 215.558 15.286C215.896 15.4681 216.128 15.6011 216.254 15.6851C216.38 15.7691 216.559 15.8989 216.791 16.0744C216.983 16.2072 217.147 16.3749 217.276 16.5687C217.383 16.7561 217.471 16.953 217.54 17.1568C217.627 17.407 217.669 17.67 217.667 17.9346C217.667 18.7052 217.421 19.301 216.929 19.722C216.437 20.1431 215.839 20.3531 215.136 20.3522C213.281 20.3522 212.114 19.343 211.636 17.3248C211.538 17.1988 211.362 17.1358 211.109 17.1358C210.884 17.1358 210.772 17.1778 210.772 17.2618C210.772 17.7659 210.947 18.88 211.299 20.6042C211.454 20.6322 211.724 20.6917 212.111 20.7827C212.497 20.8738 212.817 20.9438 213.07 20.9928C213.324 21.0418 213.64 21.0908 214.019 21.1398C214.375 21.1874 214.735 21.2119 215.094 21.2133C216.275 21.2133 217.305 20.8525 218.184 20.1309C219.062 19.4093 219.501 18.488 219.501 17.3668C219.502 17.03 219.434 16.6966 219.301 16.3866C219.189 16.1101 219.047 15.8459 218.88 15.5983C218.673 15.3272 218.432 15.0835 218.163 14.873C217.835 14.5999 217.593 14.4109 217.436 14.3058C217.278 14.2008 216.99 14.0186 216.571 13.759C216.15 13.5 215.904 13.3492 215.833 13.3068C215.735 13.2508 215.507 13.1107 215.148 12.8867C214.79 12.6626 214.551 12.5086 214.431 12.4246C214.312 12.3406 214.122 12.1933 213.862 11.9828C213.602 11.7728 213.422 11.5872 213.325 11.4227C213.21 11.2281 213.111 11.0244 213.029 10.8136C212.931 10.5688 212.881 10.3073 212.882 10.0435C212.882 9.42641 213.054 8.90785 213.398 8.48777C213.743 8.0677 214.337 7.85766 215.18 7.85766C215.939 7.85766 216.582 8.14845 217.109 8.73002C217.636 9.31159 217.935 9.91067 218.005 10.5273C218.033 10.6673 218.216 10.7373 218.554 10.7373C218.694 10.7373 218.764 10.6883 218.764 10.5903C218.764 9.33003 218.68 8.32791 218.511 7.58391C218.259 7.5279 217.967 7.45438 217.637 7.36337C217.306 7.27235 217.053 7.20584 216.878 7.16383C216.655 7.11344 216.43 7.07488 216.203 7.04831C215.912 7.01193 215.62 6.99439 215.327 6.9958C214.27 6.98179 213.243 7.35154 212.439 8.03619C211.61 8.72979 211.195 9.61662 211.195 10.6967C211.195 11.0243 211.242 11.3502 211.336 11.6643L211.331 11.6706Z" fill="white"/>
</g>
<defs>
<clipPath id="clip0_776_823">
<rect width="219" height="39" fill="white" transform="translate(0.5 0.5)"/>
</clipPath>
</defs>
</svg>
