<svg width="196" height="60" viewBox="0 0 196 60" fill="none" xmlns="http://www.w3.org/2000/svg">
<g clip-path="url(#clip0_776_773)">
<path d="M52.1369 19.246H43.2559L38.6743 30.7158C38.4557 31.2034 38.2968 31.7158 38.201 32.2418C38.201 32.6942 38.5374 32.9233 39.2074 32.9233V33.2325H34.7085V32.9233C35.2491 32.9411 35.7813 32.7857 36.2281 32.4795C36.6386 32.1846 37.0901 31.4173 37.5823 30.1775L48.5503 2.39359H49.0948L59.8831 29.2269C59.8831 29.3644 60.1597 30.0153 60.7128 31.1796C61.2659 32.344 62.1088 32.9252 63.2416 32.9233V33.2325H56.1768V32.9233C56.8211 32.9233 57.1433 32.6694 57.1433 32.1617C57.0825 31.5884 56.9223 31.0303 56.67 30.5125C56.603 30.4346 56.5543 30.3427 56.5275 30.2434C56.499 30.1059 56.479 30.0372 56.4647 30.0372L52.1369 19.246ZM43.5467 18.4014H51.7292L47.6408 8.04543L43.5467 18.4014Z" fill="white"/>
<path d="M65.092 3.15805V2.84883H73.6793C75.8575 2.84883 77.4322 2.89655 78.4035 2.99199C79.4522 3.11271 80.4673 3.43856 81.3913 3.95114C82.3596 4.4453 83.1632 5.21249 83.7035 6.15862C84.2542 7.21001 84.5234 8.38704 84.4847 9.57435C84.474 11.1496 83.9912 12.685 83.0991 13.9807C82.0912 15.4545 80.7497 16.6673 79.1846 17.5196L81.3201 20.8179C81.7848 21.6425 83.0212 23.4491 85.0293 26.2378C87.0373 29.0265 88.5883 30.7272 89.6821 31.34C90.6473 31.9162 91.7442 32.2328 92.8668 32.259C93.8789 32.259 95.043 31.8668 96.3593 31.0823L96.4819 31.4946C94.8397 32.8431 92.7052 33.5169 90.0784 33.5159C88.436 33.5531 86.8344 32.9997 85.5624 31.9555C84.3022 30.9162 82.1117 28.0597 78.9908 23.3861C78.9785 23.3761 78.9686 23.3634 78.9617 23.3491C78.9548 23.3347 78.9511 23.319 78.9509 23.3031L75.9088 18.6018L73.2117 18.6849H70.7627V30.3035C70.7627 31.2369 70.8843 31.9059 71.1276 32.3106C71.3728 32.7171 71.963 32.9175 72.8981 32.9175V33.2268H65.092V32.9175C66.0642 32.8775 66.6705 32.6713 66.9109 32.2991C67.1514 31.9269 67.2711 31.171 67.2702 30.0315V5.89808C67.29 5.23545 67.1856 4.57499 66.9623 3.95114C66.7541 3.43578 66.1326 3.17237 65.092 3.15805ZM70.7598 3.65337V17.9061H73.9302C76.4277 17.9061 78.2799 17.3144 79.4869 16.1309C80.6938 14.9475 81.2973 13.3938 81.2973 11.4698C81.2826 9.55428 80.6593 7.69355 79.5182 6.15862C78.3322 4.48655 76.2433 3.65146 73.2516 3.65337H70.7598Z" fill="white"/>
<path d="M106.275 2.84883V3.15805C105.825 3.12414 105.373 3.1876 104.949 3.34415C104.462 3.51022 104.177 3.75072 104.086 4.06567C103.965 4.80834 103.92 5.56142 103.952 6.31323V29.6278C103.952 30.8933 104.003 31.6664 104.106 31.9469C104.219 32.2419 104.429 32.4894 104.701 32.6484C104.995 32.8345 105.519 32.9271 106.272 32.9261V33.2354H98.201V32.9261C99.2131 32.9261 99.8432 32.7305 100.091 32.3392C100.336 31.9469 100.462 31.0594 100.462 29.6707V6.58237C100.462 5.13935 100.325 4.19451 100.051 3.74786C99.7776 3.30121 99.1618 3.10556 98.2039 3.16091V2.8517H106.275V2.84883Z" fill="white"/>
<path d="M136.676 28.4682V33.2325H107.98L131.49 4.00267H115.746C114.443 4.00267 113.551 4.1716 113.063 4.50659C112.576 4.84157 112.24 5.67188 112.046 6.99179H111.738L111.903 2.84596H136.798L113.22 32.0958H133.286C134.449 32.0958 135.233 31.8553 135.638 31.3743C136.043 30.8933 136.286 29.9237 136.368 28.4654H136.676V28.4682Z" fill="white"/>
<path d="M166.46 28.4682V33.2325H137.765L161.274 4.00267H145.531C144.228 4.00267 143.336 4.1716 142.848 4.50659C142.361 4.84157 142.021 5.67188 141.83 6.99179H141.522L141.688 2.84596H166.583L143.005 32.0958H163.073C164.237 32.0958 165.021 31.8553 165.426 31.3743C165.83 30.8933 166.074 29.9237 166.155 28.4654H166.46V28.4682Z" fill="white"/>
<path d="M184.89 19.246H176.009L171.43 30.7158C171.211 31.2034 171.052 31.7158 170.957 32.2418C170.957 32.6942 171.293 32.9233 171.963 32.9233V33.2325H167.464V32.9233C168.005 32.9411 168.537 32.7857 168.984 32.4795C169.394 32.1846 169.846 31.4173 170.338 30.1775L181.306 2.39359H181.85L192.639 29.2269C192.639 29.3644 192.915 30.0153 193.468 31.1796C194.021 32.344 194.865 32.9252 196 32.9233V33.2325H188.935V32.9233C189.58 32.9233 189.902 32.6694 189.902 32.1617C189.841 31.5884 189.681 31.0303 189.428 30.5125C189.361 30.4342 189.312 30.3425 189.283 30.2434C189.254 30.1059 189.235 30.0372 189.22 30.0372L184.89 19.246ZM176.302 18.4014H184.485L180.396 8.04543L176.302 18.4014Z" fill="white"/>
<path d="M32.918 2.49093L34.3407 6.53941H33.9615C30.278 2.8555 25.9387 1.01259 20.9437 1.01068C15.7605 1.01068 11.5723 2.55869 8.37919 5.6547C5.18603 8.75071 3.58945 12.4967 3.58945 16.8925C3.58945 19.6097 4.30031 22.7324 5.72202 26.2607C7.10647 29.7406 9.43939 32.7582 12.4533 34.9675C15.5182 37.2437 19.2312 38.3814 23.5923 38.3804C26.4524 38.3798 29.2932 37.9108 32.0029 36.9918C34.7513 36.067 36.0228 34.6469 37.3656 33.0893L37.7021 33.1924L36.0342 37.4928C31.7263 38.4262 28.7128 38.9588 27.4298 39.1334C25.7187 39.3283 23.997 39.4144 22.2751 39.3911C14.2979 39.3911 8.59111 37.5358 5.15467 33.8252C1.71822 30.1145 0 25.6728 0 20.5001C0.0105296 16.9676 0.922412 13.4968 2.64861 10.419C4.41302 7.19339 7.0632 4.54489 10.2837 2.7887C13.608 0.927654 17.4065 -0.00191413 21.6793 -5.36651e-06C23.5434 -0.0297519 25.4043 0.166355 27.2217 0.584074C28.5433 0.898291 29.8424 1.30099 31.1105 1.78946L32.8154 2.43939C32.8528 2.44923 32.8878 2.46678 32.918 2.49093Z" fill="white"/>
<path d="M43.8489 47.5138L44.4419 49.08L44.3393 49.0972C44.2997 49.0484 44.2569 49.0025 44.211 48.9597C44.0105 48.7236 43.7912 48.5043 43.5553 48.3041C43.285 48.0796 42.9796 47.9016 42.6515 47.7772C42.2587 47.6301 41.8419 47.5582 41.4227 47.5654C40.8976 47.5522 40.3781 47.6755 39.9145 47.9233C39.514 48.1382 39.1835 48.4642 38.9622 48.8624C38.7562 49.2326 38.6473 49.6494 38.6458 50.0735C38.6347 50.4214 38.7154 50.7661 38.8796 51.0727C39.0285 51.3395 39.2351 51.5694 39.484 51.7456C39.7929 51.9485 40.1263 52.1111 40.4761 52.2294C40.8895 52.3783 41.206 52.4928 41.4255 52.5644C42.0012 52.7397 42.5634 52.9569 43.1076 53.2143C43.6519 53.4839 44.1285 53.8734 44.5018 54.3539C44.9312 54.9176 45.1501 55.6146 45.1205 56.3237C45.1359 57.0153 44.9442 57.6955 44.5702 58.2764C44.2315 58.8087 43.7583 59.2414 43.1989 59.5304C42.8351 59.667 42.4542 59.7518 42.067 59.7824C41.6974 59.8344 41.3253 59.8669 40.9523 59.8798H37.6223V56.2378H37.7505C37.7521 56.6975 37.8047 57.1556 37.9074 57.6036C37.9987 57.9705 38.1778 58.3096 38.4291 58.5913C38.7169 58.9002 39.0808 59.1273 39.484 59.2499C40.0343 59.4181 40.6082 59.4955 41.1832 59.4789C41.7428 59.4955 42.3 59.4001 42.8225 59.1983C43.2111 59.0467 43.558 58.8043 43.8347 58.4911C44.0495 58.2481 44.2108 57.9622 44.3079 57.6522C44.3815 57.4078 44.4218 57.1545 44.4277 56.8992C44.4417 56.4329 44.2912 55.9766 44.0029 55.6108C43.7238 55.2646 43.3724 54.9841 42.9736 54.7891C42.4352 54.5346 41.8821 54.3128 41.3172 54.1248C40.8043 53.9592 40.3016 53.7632 39.8118 53.5379C39.5262 53.3948 39.2622 53.2116 39.0278 52.9939C38.7149 52.6843 38.4617 52.3193 38.2808 51.9173C38.0924 51.4992 37.997 51.0449 38.0014 50.586C37.9957 49.9897 38.143 49.4021 38.4291 48.8796C38.7211 48.3538 39.1537 47.9205 39.6779 47.6284C40.2694 47.3023 40.9363 47.1393 41.6109 47.1559C42.3217 47.1718 43.0276 47.2776 43.7121 47.4709C43.7384 47.4728 43.7644 47.4786 43.789 47.4881C43.8072 47.5004 43.8275 47.5092 43.8489 47.5138Z" fill="white"/>
<path d="M55.5125 53.6324H48.6586V58.4568C48.6533 58.7161 48.6676 58.9755 48.7014 59.2327C48.7128 59.3124 48.7401 59.3891 48.7818 59.458C48.8234 59.5268 48.8785 59.5866 48.9437 59.6335C49.1312 59.7443 49.3488 59.7924 49.5653 59.7709V59.8912H46.3379V59.7709C46.5563 59.7896 46.7752 59.7407 46.9651 59.6306C47.1333 59.5247 47.2189 59.2871 47.2189 58.912V48.828C47.251 48.4601 47.2063 48.0896 47.0877 47.74C46.9993 47.594 46.7513 47.5081 46.3379 47.4852V47.3564H49.5653V47.4852C49.3304 47.4806 49.0984 47.5379 48.8924 47.6513C48.7356 47.7515 48.6586 47.9948 48.6586 48.3871V53.2888H55.5125V48.8051C55.5382 48.4487 55.4937 48.0906 55.3814 47.7515C55.293 47.5768 55.0507 47.4881 54.6487 47.4881V47.3592H57.8418V47.4881C57.6276 47.4756 57.4137 47.518 57.2203 47.6112C57.1588 47.6511 57.1068 47.7042 57.0678 47.7665C57.0289 47.8288 57.0041 47.8989 56.9951 47.9719C56.9601 48.2482 56.9458 48.5267 56.9523 48.8051V58.4281C56.9467 58.698 56.961 58.9678 56.9951 59.2355C57.0051 59.315 57.0313 59.3916 57.072 59.4606C57.1127 59.5295 57.1671 59.5893 57.2317 59.6364C57.4171 59.7417 57.6294 59.7895 57.8418 59.7738V59.8941H54.6487V59.7738C54.8398 59.776 55.0296 59.741 55.2075 59.6707C55.2708 59.6324 55.3249 59.5804 55.3658 59.5185C55.4067 59.4566 55.4334 59.3864 55.4441 59.3128C55.4998 59.0157 55.5228 58.7132 55.5125 58.411V53.6324Z" fill="white"/>
<path d="M65.9473 54.1162H62.3036L60.4134 58.8547C60.3807 58.9294 60.3521 59.0059 60.3279 59.0838C60.2604 59.2069 60.2223 59.3442 60.2167 59.4846C60.2167 59.6707 60.3564 59.7652 60.6329 59.7652V59.8855H58.7769V59.7652C58.9115 59.7743 59.0465 59.7539 59.1725 59.7054C59.2986 59.657 59.4126 59.5817 59.5068 59.4846C59.7016 59.2265 59.8555 58.9397 59.9629 58.6343L64.4875 47.1645H64.6985L69.1547 58.242C69.1566 58.2939 69.1745 58.344 69.206 58.3852L69.2744 58.5713C69.3902 58.8819 69.5548 59.1719 69.7619 59.4302C69.8586 59.5421 69.9796 59.6303 70.1155 59.6878C70.2514 59.7454 70.3987 59.7709 70.546 59.7624V59.8826H67.6322V59.7624C67.6909 59.7707 67.7507 59.765 67.8067 59.7455C67.8627 59.7261 67.9134 59.6936 67.9544 59.6507C67.9998 59.5922 68.0266 59.5214 68.0314 59.4474C68.0099 59.2101 67.9441 58.9789 67.8375 58.766C67.8212 58.7315 67.8069 58.6962 67.7947 58.66C67.786 58.6281 67.7715 58.598 67.752 58.5713L65.9473 54.1162ZM62.4205 53.7669H65.7933L64.1084 49.4951L62.4205 53.7669Z" fill="white"/>
<path d="M80.6415 53.6324H73.7876V58.4568C73.7823 58.7161 73.7966 58.9755 73.8304 59.2327C73.8418 59.3124 73.8691 59.3891 73.9108 59.458C73.9524 59.5268 74.0075 59.5866 74.0727 59.6335C74.2601 59.7443 74.4778 59.7924 74.6942 59.7709V59.8912H71.4669V59.7709C71.6853 59.7896 71.9042 59.7407 72.0941 59.6306C72.2623 59.5247 72.3478 59.2871 72.3478 58.912V48.828C72.3799 48.4601 72.3353 48.0896 72.2167 47.74C72.1283 47.594 71.8803 47.5081 71.4669 47.4852V47.3564H74.6942V47.4852C74.4594 47.4806 74.2274 47.5379 74.0214 47.6513C73.8646 47.7515 73.7876 47.9948 73.7876 48.3871V53.2888H80.6415V48.8051C80.6672 48.4487 80.6226 48.0906 80.5103 47.7515C80.422 47.5768 80.1796 47.4881 79.7776 47.4881V47.3592H82.9708V47.4881C82.7566 47.4756 82.5427 47.518 82.3492 47.6112C82.2877 47.6511 82.2357 47.7042 82.1968 47.7665C82.1579 47.8288 82.1331 47.8989 82.124 47.9719C82.089 48.2482 82.0747 48.5267 82.0813 48.8051V58.4281C82.0757 58.698 82.09 58.9678 82.124 59.2355C82.1341 59.315 82.1603 59.3916 82.201 59.4606C82.2417 59.5295 82.296 59.5893 82.3607 59.6364C82.5461 59.7417 82.7584 59.7895 82.9708 59.7738V59.8941H79.7776V59.7738C79.9688 59.776 80.1585 59.741 80.3364 59.6707C80.3998 59.6324 80.4538 59.5804 80.4947 59.5185C80.5357 59.4566 80.5624 59.3864 80.5731 59.3128C80.6288 59.0157 80.6518 58.7132 80.6415 58.411V53.6324Z" fill="white"/>
<path d="M89.2602 59.8855V59.7652C89.6622 59.7652 89.9159 59.6908 90.0271 59.5448C90.158 59.3147 90.2157 59.05 90.1925 58.786V48.5245C90.1925 48.075 90.1297 47.7916 90.0014 47.6742C89.7773 47.5262 89.5104 47.4577 89.2431 47.4795V47.3506H92.5902V47.4795C92.3626 47.4585 92.1337 47.5012 91.9287 47.6026C91.8637 47.6395 91.8074 47.6901 91.7636 47.7509C91.7198 47.8116 91.6896 47.8812 91.675 47.9548C91.6414 48.1716 91.6271 48.391 91.6322 48.6104V57.4089C91.6231 57.7388 91.6693 58.0679 91.7691 58.3823C91.8497 58.6248 91.9946 58.8406 92.1882 59.0065C92.4073 59.1788 92.6628 59.2983 92.9352 59.3558C93.2955 59.4359 93.6638 59.4733 94.0328 59.4675H95.5581C96.0087 59.4914 96.4572 59.3914 96.8553 59.1783C97.1681 58.984 97.4009 58.6832 97.5111 58.3308C97.6559 57.8573 97.7346 57.3658 97.7448 56.8706H97.8646V59.8826H89.2602V59.8855Z" fill="white"/>
<path d="M110.928 59.8855H108.573V57.9528C108.048 58.5864 107.389 59.0956 106.645 59.4441C105.901 59.7925 105.089 59.9716 104.268 59.9685C103.749 59.972 103.232 59.8977 102.734 59.748C102.266 59.6049 101.833 59.3671 101.46 59.0494C101.07 58.7099 100.764 58.2834 100.567 57.804C100.338 57.2411 100.225 56.637 100.237 56.0288V48.5245C100.245 48.2958 100.225 48.0669 100.177 47.8431C100.16 47.7763 100.127 47.7146 100.082 47.6633C100.036 47.6119 99.9787 47.5724 99.9145 47.5482C99.7231 47.4868 99.5219 47.4626 99.3215 47.4766V47.3478H102.634V47.4766C102.384 47.4592 102.134 47.5138 101.913 47.6341C101.753 47.74 101.676 48.0034 101.676 48.43V55.313C101.654 55.9889 101.754 56.6633 101.973 57.3029C102.145 57.7589 102.422 58.1672 102.783 58.494C103.099 58.7791 103.469 58.9964 103.872 59.1325C104.229 59.2529 104.604 59.3157 104.981 59.3186C106.33 59.3186 107.528 58.7087 108.573 57.489V49.0055C108.581 48.6915 108.563 48.3774 108.519 48.0664C108.498 47.8958 108.418 47.7378 108.294 47.6198C108.141 47.5106 107.956 47.4589 107.769 47.4737H107.649V47.3449H110.928V47.4737C110.682 47.4647 110.437 47.5158 110.215 47.6226C110.073 47.7114 110.004 47.9433 110.004 48.3241V58.5341C109.999 58.7763 110.013 59.0185 110.047 59.2584C110.06 59.3354 110.089 59.4087 110.132 59.4734C110.175 59.5381 110.232 59.5927 110.298 59.6335C110.491 59.7375 110.71 59.7823 110.928 59.7624V59.8855Z" fill="white"/>
<path d="M122.429 47.3535V47.4823C122.275 47.4704 122.12 47.4969 121.979 47.5596C121.785 47.6671 121.62 47.8192 121.497 48.0034C121.48 48.0229 121.464 48.044 121.451 48.0664C121.431 48.0979 121.411 48.1294 121.388 48.1638C121.373 48.1881 121.356 48.2111 121.337 48.2325L121.303 48.2668L121.252 48.3184L118.076 52.8192L121.879 58.3251C121.904 58.3721 121.932 58.4171 121.964 58.4596C122.202 58.8647 122.499 59.2315 122.845 59.5476C123.022 59.6927 123.244 59.7707 123.473 59.7681V59.8883H120.371V59.7681C120.636 59.791 120.77 59.6965 120.77 59.4875C120.777 59.3298 120.726 59.1749 120.627 59.0523L120.508 58.8576C120.496 58.8576 120.479 58.8347 120.456 58.7889L117.195 54.0676L113.847 58.7574C113.847 58.7803 113.828 58.8089 113.788 58.8433L113.651 59.0552C113.524 59.1873 113.444 59.3572 113.423 59.539C113.423 59.7051 113.565 59.7795 113.847 59.7681V59.8883H111.983V59.7681C112.132 59.775 112.279 59.7381 112.408 59.6621C112.512 59.6046 112.609 59.5344 112.696 59.4531C112.769 59.3844 112.834 59.3076 112.89 59.2241L116.881 53.618L113.152 48.2153C113.151 48.1956 113.145 48.1763 113.137 48.1586C113.128 48.1409 113.115 48.1251 113.101 48.1122C112.994 47.9276 112.848 47.7692 112.673 47.6484C112.511 47.526 112.31 47.467 112.108 47.4823V47.3535H115.253V47.4823C114.914 47.4823 114.746 47.5768 114.746 47.7629C114.756 47.9009 114.803 48.0335 114.882 48.1466C114.974 48.2955 115.034 48.3842 115.059 48.4186L117.788 52.3583L120.718 48.2325C120.745 48.1949 120.768 48.1546 120.787 48.1122C120.885 47.9953 120.949 47.8537 120.972 47.7028C120.972 47.594 120.938 47.531 120.87 47.511C120.761 47.4873 120.65 47.4777 120.539 47.4823V47.3535H122.429Z" fill="white"/>
<path d="M136.031 59.8855H133.676V57.9528C133.151 58.5864 132.493 59.0956 131.748 59.4441C131.004 59.7925 130.192 59.9716 129.371 59.9685C128.852 59.972 128.335 59.8977 127.838 59.748C127.37 59.6049 126.936 59.3671 126.563 59.0494C126.173 58.7099 125.867 58.2834 125.671 57.804C125.441 57.2411 125.329 56.637 125.34 56.0288V48.5245C125.348 48.2958 125.328 48.0669 125.28 47.8431C125.263 47.7763 125.231 47.7146 125.185 47.6633C125.139 47.6119 125.082 47.5724 125.018 47.5482C124.826 47.4868 124.625 47.4626 124.425 47.4766V47.3478H127.738V47.4766C127.487 47.4592 127.237 47.5138 127.016 47.6341C126.857 47.74 126.78 48.0034 126.78 48.43V55.313C126.757 55.9889 126.858 56.6633 127.076 57.3029C127.248 57.7589 127.526 58.1672 127.886 58.494C128.202 58.7791 128.573 58.9964 128.975 59.1325C129.333 59.2529 129.707 59.3157 130.084 59.3186C131.433 59.3186 132.63 58.7087 133.676 57.489V49.0055C133.684 48.6915 133.666 48.3774 133.622 48.0664C133.601 47.8958 133.522 47.7378 133.397 47.6198C133.245 47.5106 133.059 47.4589 132.872 47.4737H132.753V47.3449H136.031V47.4737C135.785 47.4647 135.541 47.5158 135.319 47.6226C135.176 47.7114 135.108 47.9433 135.108 48.3241V58.5341C135.102 58.7763 135.117 59.0185 135.15 59.2584C135.163 59.3354 135.192 59.4087 135.235 59.4734C135.279 59.5381 135.335 59.5927 135.401 59.6335C135.594 59.7375 135.813 59.7823 136.031 59.7624V59.8855Z" fill="white"/>
<path d="M137.597 47.4795V47.3506H141.138C141.91 47.3506 142.471 47.363 142.82 47.3879C143.15 47.4097 143.475 47.4742 143.789 47.5797C144.312 47.7271 144.774 48.0417 145.103 48.4759C145.445 48.9546 145.617 49.5339 145.594 50.1222C145.594 50.5818 145.491 51.0357 145.294 51.4507C145.097 51.8727 144.826 52.2558 144.493 52.5816C144.171 52.902 143.806 53.1766 143.41 53.3976L144.291 54.7576L144.368 54.8778C144.476 55.0754 144.822 55.5869 145.406 56.4125C145.989 57.238 146.516 57.9233 146.985 58.4682C147.235 58.7421 147.527 58.9749 147.849 59.1582C148.213 59.3743 148.629 59.4862 149.052 59.4818C149.344 59.4865 149.633 59.4259 149.899 59.3043C149.979 59.2699 150.073 59.2212 150.187 59.1582C150.301 59.0952 150.401 59.0408 150.492 58.9979L150.543 59.1668C150.251 59.3977 149.929 59.5865 149.585 59.728C149.344 59.8128 149.096 59.8751 148.844 59.9141C148.533 59.9712 148.217 60 147.9 60C147.636 59.9995 147.373 59.9678 147.116 59.9055C146.82 59.8279 146.538 59.7032 146.281 59.5362C145.967 59.3337 145.689 59.0791 145.46 58.7832C144.804 57.9843 144.098 57.0147 143.341 55.8742C143.335 55.844 143.323 55.815 143.307 55.7883L142.053 53.8471L141.588 53.8643C141.374 53.8809 141.159 53.8866 140.944 53.8815H139.934V58.6801C139.923 58.9168 139.955 59.1535 140.029 59.3787C140.05 59.4434 140.085 59.5031 140.13 59.5543C140.175 59.6054 140.23 59.647 140.291 59.6765C140.463 59.7325 140.643 59.7615 140.824 59.7624V59.8826H137.597V59.7624C137.993 59.7452 138.241 59.665 138.344 59.519C138.475 59.2215 138.527 58.895 138.495 58.5713V48.6076C138.508 48.3537 138.475 48.0996 138.398 47.8574C138.377 47.7909 138.343 47.7295 138.297 47.6777C138.25 47.6258 138.193 47.5845 138.13 47.5568C137.956 47.5087 137.777 47.4828 137.597 47.4795ZM139.934 47.6856V53.5665H141.24C141.554 53.5611 141.867 53.5285 142.175 53.4692C142.465 53.4289 142.747 53.3439 143.011 53.2172C143.379 53.0076 143.688 52.707 143.909 52.344C144.165 51.9108 144.291 51.4129 144.274 50.9095C144.27 50.6298 144.236 50.3513 144.171 50.0792C144.104 49.7794 144.001 49.489 143.863 49.2145C143.723 48.9406 143.541 48.6904 143.324 48.473C143.058 48.2068 142.735 48.0033 142.381 47.8775C141.922 47.7329 141.442 47.6671 140.961 47.6828H139.934V47.6856Z" fill="white"/>
<path d="M156.63 47.3535H158.503V47.4823C158.297 47.4866 158.096 47.5449 157.919 47.6513C157.706 47.8127 157.528 48.0152 157.394 48.2468L154.344 52.8851V58.6371C154.344 59.1067 154.401 59.4102 154.517 59.5476C154.634 59.6851 154.891 59.7566 155.293 59.7681V59.8883H151.963V59.7681C152.196 59.786 152.43 59.7436 152.641 59.645C152.827 59.5505 152.921 59.3128 152.921 58.9263L152.904 58.6543V53.3546L149.845 48.2668C149.545 47.7343 149.187 47.4737 148.77 47.4852V47.3564H151.718V47.4852C151.441 47.4852 151.302 47.5911 151.302 47.8001C151.351 47.9753 151.422 48.1436 151.512 48.3012L154.03 52.4699L156.784 48.2668L156.827 48.2325C156.928 48.0916 157.002 47.9335 157.046 47.7658C157.046 47.5797 156.924 47.4852 156.681 47.4852H156.63V47.3535Z" fill="white"/>
</g>
<defs>
<clipPath id="clip0_776_773">
<rect width="196" height="60" fill="white"/>
</clipPath>
</defs>
</svg>
