<svg width="206" height="32" viewBox="0 0 206 32" fill="none" xmlns="http://www.w3.org/2000/svg">
<path d="M109.806 19.4925V9.93741C109.811 9.76374 109.801 9.58997 109.777 9.41795C109.757 8.95381 109.371 8.59016 108.906 8.59852C108.404 8.55894 107.899 8.54673 107.395 8.56194C106.898 8.56194 106.781 8.41561 106.858 7.92176C106.876 7.81201 106.92 7.78275 107.018 7.79007H115.579C115.882 7.79007 115.89 7.79007 115.904 8.13393C115.919 8.4778 115.853 8.54365 115.586 8.55096C115.041 8.55096 114.488 8.55096 113.951 8.58023C113.68 8.56495 113.417 8.6688 113.23 8.86442C113.043 9.06005 112.95 9.32782 112.978 9.5972C112.978 12.5993 112.978 15.6027 112.978 18.6073C112.978 18.8414 113.047 18.9255 113.303 18.9255C117.591 18.9255 121.877 18.9255 126.162 18.9255C126.41 18.9255 126.451 18.8524 126.451 18.6219C126.451 15.6954 126.451 12.7688 126.451 9.8423C126.451 8.88752 126.206 8.61315 125.258 8.55462C124.804 8.52536 124.347 8.55462 123.894 8.55462C123.762 8.55462 123.612 8.55462 123.557 8.4083C123.497 8.22535 123.497 8.02788 123.557 7.84494C123.583 7.75714 123.685 7.79738 123.755 7.79738H132.245C132.435 7.79738 132.549 7.79738 132.552 8.0498C132.552 8.41561 132.516 8.52536 132.263 8.55096C132.011 8.57657 131.835 8.55096 131.62 8.55096C131.272 8.55096 130.925 8.55096 130.577 8.57291C130.045 8.57485 129.612 9.00272 129.604 9.53501C129.599 9.63493 129.599 9.73507 129.604 9.83498V28.9672C129.597 29.1741 129.611 29.3811 129.644 29.5854C129.676 30.0288 130.041 30.3746 130.486 30.3829C130.897 30.4176 131.31 30.4286 131.722 30.4158C131.89 30.4158 132.055 30.4158 132.22 30.4158C132.316 30.4067 132.411 30.444 132.475 30.5162C132.539 30.5885 132.565 30.6871 132.545 30.7816C132.547 30.8145 132.547 30.8475 132.545 30.8804C132.545 31.2938 132.545 31.2462 132.179 31.2462H123.846C123.542 31.2462 123.539 31.2462 123.506 30.8475C123.506 30.6097 123.579 30.4817 123.813 30.4597C124.292 30.4378 124.772 30.4597 125.251 30.4378C125.408 30.4417 125.565 30.4269 125.719 30.3939C126.125 30.318 126.422 29.9688 126.432 29.5562C126.432 29.4659 126.432 29.3745 126.432 29.2818C126.432 26.3358 126.432 23.3909 126.432 20.4473C126.432 20.2388 126.403 20.1547 126.158 20.1547C121.856 20.1547 117.554 20.1547 113.252 20.1547C113.025 20.1547 112.956 20.2278 112.967 20.4327C112.967 20.5315 112.967 20.6302 112.967 20.729V29.1684C112.967 30.0939 113.289 30.4158 114.203 30.4158C114.609 30.4158 115.015 30.4158 115.418 30.4158C115.602 30.3928 115.782 30.4779 115.882 30.6344C115.981 30.791 115.981 30.9908 115.882 31.1475C115.842 31.2499 115.761 31.2206 115.696 31.2206C115.282 31.2206 114.869 31.2206 114.456 31.2206H107.19C107.04 31.2206 106.876 31.2718 106.858 31.0158C106.832 30.6499 106.876 30.5 107.128 30.4451C107.235 30.4272 107.342 30.4186 107.45 30.4195C107.853 30.4195 108.259 30.4195 108.665 30.4195C109.433 30.4195 109.806 30.0537 109.806 29.2745V19.4925Z" fill="white"/>
<path d="M90.7543 26.6552C90.7543 26.443 90.7872 26.2455 90.7872 26.0516C90.7872 20.6643 90.7872 15.2783 90.7872 9.89346V9.82029C90.7872 8.95331 90.4945 8.63139 89.6349 8.57652C89.1886 8.54725 88.7423 8.57652 88.296 8.57652C88.1197 8.59769 87.9465 8.51816 87.8477 8.37069C87.7488 8.22323 87.7411 8.03278 87.8277 7.87781C87.8716 7.7644 87.9631 7.80099 88.0399 7.80099H90.1726C91.6359 7.80099 93.0991 7.80099 94.5405 7.80099C94.8404 7.80099 94.8477 7.95463 94.8734 8.1668C94.899 8.37898 94.8295 8.53262 94.5844 8.56189C94.3393 8.59115 94.0868 8.56189 93.8527 8.56189C93.5381 8.56189 93.2235 8.56188 92.9126 8.58383C92.6509 8.58143 92.3999 8.68737 92.219 8.87652C92.0382 9.06568 91.9436 9.3212 91.9578 9.58251C91.9578 9.7325 91.9578 9.87882 91.9578 10.0288C91.9578 17.1525 91.9578 24.2749 91.9578 31.3962C91.9578 31.6632 91.8554 31.7144 91.6395 31.7254C91.2349 31.7637 90.8364 31.6059 90.5677 31.301C90.019 30.6828 89.4702 30.0536 88.9435 29.4317L80.9687 20.2388L73.8352 12.0115C73.5938 11.7299 73.345 11.4518 73.078 11.1482C73.0295 11.3005 73.0097 11.4605 73.0195 11.6201V29.1171C73.0213 29.2247 73.0286 29.3322 73.0414 29.439C73.1329 30.1304 73.4511 30.4121 74.1389 30.4158C74.5852 30.4158 75.0351 30.4158 75.4814 30.4158C75.9277 30.4158 76.1033 30.6828 75.9716 31.1072C75.9716 31.173 75.924 31.2059 75.8545 31.2023H69.2552C69.065 31.2023 68.9516 31.2023 68.9443 30.9499C68.9443 30.584 68.9662 30.4743 69.2077 30.4304C69.3058 30.4158 69.4048 30.4085 69.504 30.4085C69.91 30.4085 70.3161 30.4085 70.7221 30.4085C71.5233 30.4085 71.8708 30.0426 71.8708 29.2561C71.8708 23.0104 71.8708 16.7659 71.8708 10.5227C71.8708 9.42521 71.366 8.54359 69.9064 8.55457C69.7015 8.55457 69.493 8.55457 69.2881 8.55457C69.0174 8.55457 68.9223 8.4558 68.9223 8.18875C68.926 8.12296 68.926 8.05701 68.9223 7.99121C68.9223 7.81196 68.9735 7.74977 69.1638 7.75343C69.9247 7.75343 70.6856 7.75343 71.4465 7.75343C72.2074 7.75343 73.0048 7.75343 73.7804 7.75343C74.1181 7.73079 74.4457 7.87411 74.6583 8.13754C76.5801 10.369 78.5043 12.5968 80.4309 14.821L88.1131 23.7104C88.9288 24.6578 89.7483 25.598 90.564 26.5418C90.6152 26.582 90.6409 26.6442 90.7543 26.6552Z" fill="white"/>
<path d="M158.43 8.67897L159.963 8.31315C160.508 8.1778 161.061 8.04245 161.595 7.89612C161.715 7.85793 161.845 7.86443 161.96 7.91441C163.526 8.53332 164.955 9.45299 166.167 10.6215C168.023 12.4887 169.231 14.9017 169.613 17.5061C169.683 18.0329 169.646 18.5633 169.672 19.0901C169.782 21.506 169.087 23.8901 167.696 25.8687C165.882 28.6205 163.005 30.4942 159.755 31.0413C157.122 31.5393 154.399 31.1101 152.047 29.8268C149.657 28.6052 147.751 26.6105 146.64 24.1676C146.09 22.9902 145.747 21.7266 145.627 20.4327C144.996 14.3084 149.075 8.69091 155.094 7.39495C156.967 6.97426 158.796 6.50967 160.625 6.06338L160.746 6.03777C160.794 6.03777 160.852 6.00119 160.859 5.94997C160.867 5.89876 160.801 5.84389 160.753 5.83657C160.464 5.79633 160.559 5.67195 160.669 5.52563C160.764 5.40036 160.852 5.26967 160.933 5.1342C161.009 4.97865 161.139 4.85548 161.298 4.78668C161.656 4.6308 162.052 4.58372 162.436 4.65133C162.802 4.74644 163.168 4.82326 163.533 4.92935C164.037 5.06009 164.362 5.54856 164.287 6.06338C164.273 6.52794 163.933 6.9181 163.475 6.99621C160.684 7.67663 157.885 8.3351 155.098 9.04113C153.157 9.51039 151.396 10.5365 150.031 11.9933C148.728 13.3679 147.82 15.0692 147.405 16.9172C147.13 18.1545 147.086 19.432 147.277 20.6851C147.876 24.8624 150.942 28.2624 155.036 29.2891C159.114 30.2731 162.601 29.1537 165.465 26.1174C166.606 24.8792 167.407 23.367 167.792 21.7276C168.093 20.5156 168.177 19.2597 168.04 18.0183C167.795 15.6584 166.733 13.4586 165.037 11.7994C163.736 10.4487 162.08 9.49262 160.259 9.04113C159.772 8.91419 159.273 8.83215 158.771 8.79603C158.647 8.80082 158.525 8.75906 158.43 8.67897Z" fill="white"/>
<path d="M192.996 27.2186C193.26 26.5418 193.501 25.9309 193.728 25.3163C195.679 20.2705 197.63 15.2246 199.581 10.1788C199.665 9.98065 199.718 9.77098 199.738 9.55693C199.796 9.16177 199.547 8.7866 199.16 8.68628C198.753 8.57872 198.33 8.53795 197.909 8.56556C197.262 8.56556 196.618 8.56556 195.974 8.56556C195.797 8.58724 195.624 8.50603 195.527 8.35648C195.431 8.20693 195.428 8.01534 195.521 7.8632C195.542 7.80466 195.583 7.79735 195.634 7.79735H205.189C205.372 7.79735 205.5 7.79735 205.5 8.0461C205.5 8.41192 205.467 8.5363 205.204 8.55825C204.673 8.60214 204.146 8.62409 203.62 8.66433C203.307 8.67573 202.996 8.72237 202.694 8.80334C201.931 9.04255 201.326 9.63058 201.066 10.3873L198.926 15.6697C196.841 20.8472 194.752 26.0272 192.66 31.2096C192.585 31.525 192.303 31.7476 191.979 31.7474C191.639 31.759 191.336 31.5346 191.248 31.206C190.319 28.8842 189.383 26.5674 188.442 24.2554C186.623 19.751 184.803 15.2478 182.984 10.7458C182.362 9.21306 181.418 8.5802 179.761 8.57654C179.564 8.57654 179.366 8.57654 179.165 8.57654C179.029 8.59464 178.897 8.51775 178.847 8.38997C178.786 8.21582 178.786 8.02637 178.847 7.85222C178.88 7.76808 178.997 7.81198 179.073 7.81198H182.3C184.359 7.81198 186.423 7.81198 188.482 7.81198C188.782 7.81198 188.793 7.96928 188.811 8.1778C188.833 8.45582 188.76 8.57288 188.508 8.58385C188.098 8.60946 187.685 8.58385 187.271 8.61678C187.098 8.62328 186.926 8.65029 186.759 8.69726C186.506 8.73291 186.284 8.88387 186.158 9.10591C186.032 9.32795 186.016 9.59592 186.115 9.83129C186.317 10.4495 186.569 11.0531 186.81 11.6604C188.779 16.655 190.75 21.6484 192.726 26.6406C192.817 26.7906 192.894 26.9735 192.996 27.2186Z" fill="white"/>
<path d="M151.056 6.16947C151.044 5.6608 151.398 5.21683 151.897 5.11592C153.646 4.65987 155.395 4.20625 157.146 3.75508C159.019 3.26732 160.891 2.78567 162.762 2.3101C162.967 2.24825 163.189 2.27615 163.373 2.38694C163.557 2.49772 163.686 2.68107 163.727 2.89175C163.81 3.10044 163.796 3.33486 163.689 3.53234C163.583 3.72982 163.395 3.87023 163.175 3.91604C161.317 4.4038 159.457 4.89155 157.596 5.37931C156.693 5.61709 155.767 5.82194 154.875 6.04143C154.798 6.05973 154.681 6.04143 154.684 6.15484C154.688 6.26824 154.805 6.26092 154.882 6.26092C155.122 6.27395 155.338 6.41307 155.449 6.62674C155.573 6.80599 155.511 6.86452 155.332 6.91208C154.806 7.01825 154.288 7.15878 153.781 7.33277C152.987 7.65469 152.292 7.33277 151.586 7.07304C151.236 6.91471 151.023 6.55264 151.056 6.16947Z" fill="white"/>
<path d="M157.662 1.88208C158.372 1.88208 159.085 1.88208 159.795 1.88208C160.044 1.88208 160.073 1.91501 159.967 2.14913C159.66 2.83687 159.66 2.84052 158.921 3.03075C158.057 3.25024 157.194 3.46241 156.331 3.68922C156.248 3.72661 156.152 3.72487 156.071 3.68448C155.989 3.6441 155.93 3.56932 155.91 3.4807C155.723 3.03075 155.518 2.58811 155.325 2.14181C155.226 1.91501 155.244 1.87843 155.482 1.87843C156.214 1.87843 156.945 1.87843 157.677 1.87843L157.662 1.88208Z" fill="white"/>
<path d="M153.763 1.926C154.052 1.926 154.341 1.926 154.63 1.926C154.766 1.91055 154.894 1.9931 154.937 2.12354C155.16 2.62105 155.379 3.11856 155.61 3.61242C155.694 3.79167 155.632 3.87214 155.456 3.91238L154.395 4.1648C154.272 4.19871 154.141 4.14251 154.081 4.02945C153.642 3.40756 153.199 2.78933 152.757 2.16744C152.72 2.11622 152.669 2.05769 152.694 1.99185C152.72 1.926 152.822 1.92966 152.892 1.92966L153.763 1.926Z" fill="white"/>
<path d="M159.444 1.59309C159.378 1.65894 159.29 1.62967 159.21 1.63333H156.184C156.134 1.63704 156.084 1.63704 156.034 1.63333C155.979 1.63333 155.906 1.63333 155.892 1.56383C155.877 1.49432 155.935 1.4614 155.983 1.42847L157.53 0.389555C157.613 0.329733 157.725 0.329733 157.808 0.389555L159.381 1.48701C159.423 1.50552 159.448 1.5481 159.444 1.59309Z" fill="white"/>
<path d="M153.766 4.26356C153.719 4.26961 153.671 4.26961 153.624 4.26356C153.023 4.16193 152.434 4.00393 151.864 3.79166C151.535 3.62803 151.379 3.24624 151.498 2.89907C151.601 2.55839 151.895 2.31033 152.248 2.2662C152.339 2.27159 152.423 2.31884 152.475 2.39424C152.896 2.9137 153.276 3.46243 153.656 4.01115C153.705 4.0895 153.742 4.17453 153.766 4.26356Z" fill="white"/>
<path d="M158.189 0.257858H160.625C160.746 0.257858 160.79 0.331022 160.739 0.440767C160.574 0.788292 160.402 1.13948 160.234 1.487C160.194 1.57114 160.131 1.61504 160.036 1.55285C159.458 1.16508 158.88 0.784634 158.306 0.396869C158.25 0.367546 158.208 0.317673 158.189 0.257858V0.257858Z" fill="white"/>
<path d="M157.007 0.323714C156.99 0.382504 156.949 0.43146 156.894 0.459066C156.367 0.824883 155.837 1.16875 155.314 1.52725C155.178 1.6187 155.09 1.59676 155.025 1.44677C154.871 1.11754 154.717 0.788301 154.556 0.462724C154.472 0.298107 154.534 0.261525 154.692 0.261525H156.828C156.89 0.257867 156.967 0.221285 157.007 0.323714Z" fill="white"/>
<path d="M153.726 1.63331H152.994C152.944 1.64147 152.893 1.62356 152.859 1.58576C152.822 1.51991 152.881 1.47967 152.921 1.43943C153.265 1.1102 153.624 0.791935 153.938 0.426118C154.048 0.301741 154.136 0.338322 154.198 0.480991L154.619 1.42846C154.677 1.56747 154.619 1.63331 154.48 1.63331H153.726Z" fill="white"/>
<path d="M161.971 1.63333C161.606 1.63333 161.24 1.63333 160.874 1.63333C160.68 1.63333 160.611 1.59309 160.706 1.39555C160.848 1.09558 160.973 0.791956 161.104 0.488328C161.174 0.331027 161.254 0.312736 161.379 0.437113C161.708 0.773665 162.048 1.09924 162.381 1.43213C162.425 1.47603 162.502 1.52359 162.465 1.59309C162.429 1.6626 162.337 1.63333 162.275 1.63333H161.971Z" fill="white"/>
<path d="M158.738 6.1585C158.602 6.1585 158.573 6.11826 158.606 6.00485C158.657 5.61907 158.954 5.3118 159.338 5.24761C159.85 5.10494 159.956 5.10494 160.267 5.03178C160.333 5.03178 160.406 4.98057 160.45 5.03178C160.45 5.08665 160.344 5.26956 160.329 5.3098C160.018 6.04143 159.305 5.97925 158.738 6.1585Z" fill="white"/>
<path d="M160.34 2.67955C160.183 2.67955 160.12 2.63565 160.172 2.51493C160.223 2.39421 160.322 2.1857 160.406 2.02474C160.449 1.95291 160.531 1.91294 160.614 1.92231H162.396C162.473 1.92231 162.56 1.92231 162.59 1.99547C162.619 2.06864 162.535 2.11619 162.476 2.13082L160.34 2.67955Z" fill="white"/>
<path d="M157.402 6.46577C157.249 6.46577 157.201 6.34505 157.15 6.23896C156.967 5.87315 156.971 5.87315 157.355 5.7634C157.64 5.68658 157.929 5.61342 158.211 5.53294C158.372 5.48538 158.434 5.53294 158.379 5.6939C158.281 6.15222 157.871 6.47617 157.402 6.46577Z" fill="white"/>
<path d="M156.148 6.77672C155.998 6.77672 155.654 6.37433 155.687 6.24629C155.687 6.1841 155.76 6.16947 155.818 6.15484C156.034 6.10362 156.25 6.04509 156.466 6.00119C156.62 5.96827 156.799 6.16215 156.865 6.41822C156.93 6.6743 156.759 6.62308 156.638 6.65601C156.517 6.68893 156.301 6.74014 156.148 6.77672Z" fill="white"/>
<path fill-rule="evenodd" clip-rule="evenodd" d="M23.1038 12.0372C24.8392 13.9271 25.8511 16.3693 25.9608 18.9328C26.1514 22.0254 25.012 25.0522 22.8294 27.2515C20.8615 29.3279 18.2524 30.6821 15.4217 31.0962C14.676 31.1955 13.924 31.2383 13.1719 31.2243C12.5231 31.2274 11.8747 31.2311 11.2264 31.2349C9.60813 31.2442 7.99067 31.2535 6.37136 31.2535C5.44766 31.2535 4.5203 31.2471 3.59478 31.2407C2.67294 31.2343 1.75293 31.2279 0.840209 31.2279C0.606087 31.2279 0.5 31.1767 0.5 30.917C0.5 30.5548 0.551214 30.4195 0.825577 30.4195H1.98887C2.16249 30.4177 2.33589 30.4067 2.50833 30.3865C3.01439 30.3826 3.42423 29.9744 3.43019 29.4683C3.47043 29.194 3.47043 28.9233 3.47043 28.6489V19.5913V10.3361C3.47043 9.04479 2.9839 8.53631 1.6889 8.53631H0.895082C0.752414 8.53265 0.59877 8.52533 0.547556 8.35705C0.49267 8.16581 0.49267 7.96299 0.547556 7.77175C0.561731 7.72639 0.617652 7.73156 0.667642 7.73619C0.682155 7.73753 0.696169 7.73882 0.708515 7.73882H1.27919H9.44056C9.67582 7.73441 9.91107 7.72945 10.1463 7.72449C11.2756 7.70069 12.4048 7.67689 13.534 7.71322C17.3202 7.83394 20.5431 9.19478 23.1038 12.0372ZM20.042 26.5857C21.3565 25.0062 22.1861 23.0802 22.4307 21.0399C22.5923 19.4338 22.4559 17.8116 22.0283 16.255C21.0362 12.1251 17.5225 9.08671 13.2926 8.70093C11.9591 8.56298 10.6166 8.57405 9.27209 8.58513C8.90522 8.58816 8.53822 8.59118 8.17121 8.59118C8.07195 8.59245 7.97291 8.60101 7.8749 8.61679C7.32797 8.63744 6.85668 9.00826 6.70795 9.53499C6.62238 9.8546 6.58175 10.1846 6.58723 10.5154V19.295V27.9575C6.58533 28.2216 6.59999 28.4855 6.63112 28.7477C6.6732 29.3947 7.07871 29.9619 7.67736 30.2109C7.93669 30.3216 8.2149 30.3812 8.49679 30.3865C8.84565 30.3927 9.19323 30.4027 9.54036 30.4127C10.6347 30.4441 11.7245 30.4754 12.8354 30.3865C15.6701 30.2067 18.2927 28.8235 20.042 26.5857Z" fill="white"/>
<path fill-rule="evenodd" clip-rule="evenodd" d="M59.9123 30.4268C60.0509 30.4091 60.1826 30.4918 60.2269 30.6243C60.2805 30.8068 60.274 31.0017 60.2086 31.1803C60.187 31.237 60.1157 31.228 60.0474 31.2193C60.0231 31.2163 59.9993 31.2133 59.9781 31.2133H55.2628H50.6242C50.5929 31.2133 50.5593 31.2175 50.5254 31.2218C50.393 31.2384 50.2584 31.2554 50.2584 31.0194C50.2328 30.5877 50.2621 30.4743 50.5986 30.4304C50.9352 30.3865 51.2754 30.3865 51.6119 30.3865C51.8589 30.3721 52.1038 30.3341 52.3436 30.2731C52.6105 30.2483 52.8473 30.0915 52.9745 29.8555C53.1017 29.6195 53.1024 29.3355 52.9764 29.0988C52.8034 28.626 52.6214 28.1601 52.4392 27.6938C52.3902 27.5683 52.3412 27.4429 52.2923 27.3173C51.5071 25.3102 50.7218 23.3019 49.9365 21.2923C49.9031 21.1319 49.8071 20.9914 49.6697 20.9021C49.5323 20.8129 49.365 20.7821 49.2048 20.8168H43.0518C42.7327 20.7605 42.4266 20.9678 42.3604 21.285L39.4339 28.9232C39.3886 29.0421 39.3531 29.1644 39.3278 29.2891C39.2248 29.7084 39.4649 30.1356 39.8765 30.2658C40.2229 30.3798 40.5881 30.4258 40.952 30.4011H43.0628C43.6005 30.4011 43.6298 30.5804 43.5786 31.0852C43.5713 31.162 43.5347 31.2023 43.4542 31.2023H33.943C33.6101 31.2023 33.6064 31.2023 33.5772 30.8365C33.5552 30.5767 33.632 30.456 33.8918 30.4341C34.2795 30.3865 34.6673 30.3865 35.0551 30.3865C35.4112 30.3845 35.7659 30.3415 36.1123 30.2585C36.9471 30.0552 37.63 29.457 37.9414 28.6562C38.3978 27.5671 38.8375 26.4545 39.2774 25.3411C39.4862 24.8127 39.695 24.2842 39.9058 23.7579L46.4173 7.46445C46.5856 7.04741 46.6697 6.95596 47.1051 6.9523C47.5404 6.94864 47.6648 7.03644 47.8367 7.4681L54.8274 25.02C55.2762 26.1565 55.7286 27.2917 56.1846 28.4257C56.6241 29.6707 57.825 30.4827 59.1441 30.4268H59.9123ZM43.1981 19.6608H49.0512C49.2488 19.6608 49.2707 19.6205 49.1902 19.4486C48.5269 17.7536 47.866 16.0611 47.2075 14.3711L46.11 11.525C46.0896 11.5464 46.0713 11.5697 46.0552 11.5945C45.0553 14.2284 44.0505 16.8586 43.0408 19.4852C42.972 19.6655 43.0559 19.6636 43.161 19.6613C43.1732 19.661 43.1856 19.6608 43.1981 19.6608Z" fill="white"/>
</svg>
