<svg width="34" height="30" viewBox="0 0 34 30" fill="#1D54A6" xmlns="http://www.w3.org/2000/svg">
<path d="M33.6377 9.19553L28.2289 0.948994C28.1842 0.880724 28.1231 0.824668 28.0513 0.785879C27.9795 0.747091 27.8991 0.72679 27.8175 0.726807H6.18259C6.10096 0.72679 6.0206 0.747091 5.94877 0.785879C5.87694 0.824668 5.81589 0.880724 5.77112 0.948994L0.362405 9.19553C0.304348 9.28405 0.276361 9.38892 0.282592 9.49459C0.288824 9.60027 0.328941 9.70113 0.396999 9.78221L16.6232 29.0976C16.6694 29.1526 16.7271 29.1968 16.7922 29.2271C16.8573 29.2574 16.9282 29.2731 17 29.2731C17.0718 29.2731 17.1428 29.2574 17.2079 29.2271C17.273 29.1968 17.3307 29.1526 17.3769 29.0976L33.6031 9.78221C33.6711 9.70113 33.7112 9.60027 33.7175 9.49459C33.7237 9.38892 33.6957 9.28405 33.6377 9.19553ZM6.18259 2.11646L10.6798 8.97334H1.6854L6.18259 2.11646ZM21.7599 9.95771L17 26.9559L12.2402 9.95771H21.7599ZM12.5026 8.97334L17 2.11618L21.4975 8.97334H12.5026ZM17.9113 1.71118H26.9062L22.4088 8.56834L17.9113 1.71118ZM11.5913 8.56834L7.09384 1.71118H16.0888L11.5913 8.56834ZM11.2178 9.95771L15.9119 26.7202L1.83025 9.95771H11.2178ZM22.7822 9.95771H32.1698L18.0882 26.7202L22.7822 9.95771ZM23.3203 8.97334L27.8175 2.11646L32.3147 8.97334H23.3203Z"/>
</svg>
