<svg width="26" height="34" viewBox="0 0 26 34" fill="#1D54A6" xmlns="http://www.w3.org/2000/svg">
<path d="M3.52197 5.9502H4.14325C4.27379 5.9502 4.39898 5.89834 4.49128 5.80604C4.58359 5.71373 4.63544 5.58854 4.63544 5.45801C4.63544 5.32747 4.58359 5.20228 4.49128 5.10998C4.39898 5.01768 4.27379 4.96582 4.14325 4.96582H3.52197C3.39144 4.96582 3.26625 5.01768 3.17394 5.10998C3.08164 5.20228 3.02979 5.32747 3.02979 5.45801C3.02979 5.58854 3.08164 5.71373 3.17394 5.80604C3.26625 5.89834 3.39144 5.9502 3.52197 5.9502Z" />
<path d="M0.90625 5.9502H1.52753C1.65807 5.9502 1.78326 5.89834 1.87556 5.80604C1.96786 5.71373 2.01972 5.58854 2.01972 5.45801C2.01972 5.32747 1.96786 5.20228 1.87556 5.10998C1.78326 5.01768 1.65807 4.96582 1.52753 4.96582H0.90625C0.775714 4.96582 0.650524 5.01768 0.558221 5.10998C0.465918 5.20228 0.414063 5.32747 0.414062 5.45801C0.414063 5.58854 0.465918 5.71373 0.558221 5.80604C0.650524 5.89834 0.775714 5.9502 0.90625 5.9502Z" />
<path d="M2.52441 7.56834C2.65495 7.56834 2.78014 7.51648 2.87244 7.42418C2.96475 7.33188 3.0166 7.20669 3.0166 7.07615V6.45459C3.0166 6.32405 2.96475 6.19886 2.87244 6.10656C2.78014 6.01426 2.65495 5.9624 2.52441 5.9624C2.39388 5.9624 2.26869 6.01426 2.17639 6.10656C2.08408 6.19886 2.03223 6.32405 2.03223 6.45459V7.07615C2.03223 7.20669 2.08408 7.33188 2.17639 7.42418C2.26869 7.51648 2.39388 7.56834 2.52441 7.56834Z" />
<path d="M2.52441 4.95356C2.65495 4.95356 2.78014 4.9017 2.87244 4.8094C2.96475 4.7171 3.0166 4.59191 3.0166 4.46137V3.84009C3.0166 3.70955 2.96475 3.58436 2.87244 3.49206C2.78014 3.39976 2.65495 3.3479 2.52441 3.3479C2.39388 3.3479 2.26869 3.39976 2.17639 3.49206C2.08408 3.58436 2.03223 3.70955 2.03223 3.84009V4.46137C2.03223 4.59191 2.08408 4.7171 2.17639 4.8094C2.26869 4.9017 2.39388 4.95356 2.52441 4.95356Z" />
<path d="M24.4724 5.9502H25.0937C25.2242 5.9502 25.3494 5.89834 25.4417 5.80604C25.534 5.71373 25.5859 5.58854 25.5859 5.45801C25.5859 5.32747 25.534 5.20228 25.4417 5.10998C25.3494 5.01768 25.2242 4.96582 25.0937 4.96582H24.4724C24.3419 4.96582 24.2167 5.01768 24.1244 5.10998C24.0321 5.20228 23.9802 5.32747 23.9802 5.45801C23.9802 5.58854 24.0321 5.71373 24.1244 5.80604C24.2167 5.89834 24.3419 5.9502 24.4724 5.9502Z" />
<path d="M21.8577 5.9502H22.4781C22.6086 5.9502 22.7338 5.89834 22.8261 5.80604C22.9184 5.71373 22.9703 5.58854 22.9703 5.45801C22.9703 5.32747 22.9184 5.20228 22.8261 5.10998C22.7338 5.01768 22.6086 4.96582 22.4781 4.96582H21.8577C21.7271 4.96582 21.6019 5.01768 21.5096 5.10998C21.4173 5.20228 21.3655 5.32747 21.3655 5.45801C21.3655 5.58854 21.4173 5.71373 21.5096 5.80604C21.6019 5.89834 21.7271 5.9502 21.8577 5.9502Z" />
<path d="M23.4758 7.56834C23.6064 7.56834 23.7316 7.51648 23.8239 7.42418C23.9162 7.33188 23.968 7.20669 23.968 7.07615V6.45459C23.968 6.32405 23.9162 6.19886 23.8239 6.10656C23.7316 6.01426 23.6064 5.9624 23.4758 5.9624C23.3453 5.9624 23.2201 6.01426 23.1278 6.10656C23.0355 6.19886 22.9836 6.32405 22.9836 6.45459V7.07615C22.9836 7.20669 23.0355 7.33188 23.1278 7.42418C23.2201 7.51648 23.3453 7.56834 23.4758 7.56834Z" />
<path d="M23.4758 4.95356C23.6064 4.95356 23.7316 4.9017 23.8239 4.8094C23.9162 4.7171 23.968 4.59191 23.968 4.46137V3.84009C23.968 3.70955 23.9162 3.58436 23.8239 3.49206C23.7316 3.39976 23.6064 3.3479 23.4758 3.3479C23.3453 3.3479 23.2201 3.39976 23.1278 3.49206C23.0355 3.58436 22.9836 3.70955 22.9836 3.84009V4.46137C22.9836 4.59191 23.0355 4.7171 23.1278 4.8094C23.2201 4.9017 23.3453 4.95356 23.4758 4.95356Z" />
<path d="M15.7715 8.09281L19.0832 4.15672C19.1472 4.08069 19.1867 3.98705 19.1964 3.88815C19.2061 3.78925 19.1857 3.68971 19.1377 3.60266L17.5563 0.731375C17.5138 0.654204 17.4514 0.58985 17.3755 0.545029C17.2997 0.500208 17.2132 0.476564 17.1251 0.476562H8.87522C8.78712 0.476564 8.70065 0.500208 8.62481 0.545029C8.54897 0.58985 8.48655 0.654204 8.44406 0.731375L6.86231 3.60266C6.81437 3.68971 6.79392 3.78925 6.80366 3.88815C6.8134 3.98705 6.85287 4.08069 6.91687 4.15672L10.2286 8.09281C7.13179 8.77586 4.3963 10.5785 2.54704 13.1547C0.697779 15.7309 -0.134977 18.8993 0.208568 22.0519C0.552114 25.2045 2.04776 28.1192 4.4085 30.2366C6.76925 32.3541 9.82879 33.5252 13 33.5252C16.1713 33.5252 19.2308 32.3541 21.5916 30.2366C23.9523 28.1192 25.4479 25.2045 25.7915 22.0519C26.135 18.8993 25.3023 15.7309 23.453 13.1547C21.6038 10.5785 18.8683 8.77586 15.7715 8.09281ZM14.3191 7.85628L15.3465 4.33222H17.6494L14.6487 7.89847C14.539 7.88412 14.4299 7.86753 14.3191 7.85628ZM12.6878 7.79694L11.6782 4.33222H14.3219L13.3114 7.79694C13.2076 7.79441 13.1044 7.78906 13 7.78906C12.8957 7.78906 12.7925 7.79441 12.6887 7.79694H12.6878ZM11.6287 3.34784L12.0247 1.46094H13.9754L14.3714 3.34784H11.6287ZM17.8724 3.34784H15.3772L14.9812 1.46094H16.834L17.8724 3.34784ZM9.16603 1.46094H11.0189L10.6229 3.34784H8.12653L9.16603 1.46094ZM8.3504 4.33222H10.653L11.6807 7.85628C11.5699 7.86753 11.4607 7.88441 11.3508 7.89847L8.3504 4.33222ZM13 32.5391C10.6498 32.5391 8.35241 31.8421 6.39829 30.5364C4.44417 29.2307 2.92112 27.3749 2.02174 25.2036C1.12236 23.0323 0.887041 20.6431 1.34554 18.338C1.80404 16.033 2.93577 13.9157 4.59761 12.2538C6.25945 10.592 8.37677 9.46026 10.6818 9.00176C12.9868 8.54326 15.3761 8.77858 17.5474 9.67796C19.7187 10.5773 21.5745 12.1004 22.8802 14.0545C24.1859 16.0086 24.8828 18.306 24.8828 20.6562C24.8791 23.8066 23.626 26.8269 21.3983 29.0546C19.1707 31.2822 16.1504 32.5353 13 32.5391Z" />
<path d="M13 10.3701C10.9656 10.3701 8.9769 10.9734 7.28535 12.1036C5.5938 13.2339 4.27539 14.8404 3.49686 16.7199C2.71832 18.5995 2.51462 20.6677 2.91152 22.663C3.30841 24.6583 4.28807 26.4911 5.72662 27.9297C7.16516 29.3682 8.99798 30.3479 10.9933 30.7448C12.9886 31.1417 15.0568 30.938 16.9364 30.1594C18.8159 29.3809 20.4224 28.0625 21.5527 26.371C22.6829 24.6794 23.2862 22.6907 23.2862 20.6563C23.2831 17.9292 22.1984 15.3146 20.2701 13.3862C18.3417 11.4579 15.7271 10.3732 13 10.3701ZM13 29.9581C11.1603 29.9581 9.36191 29.4125 7.83224 28.3904C6.30257 27.3683 5.11033 25.9156 4.4063 24.2159C3.70227 22.5162 3.51807 20.646 3.87698 18.8416C4.23589 17.0372 5.1218 15.3798 6.42268 14.0789C7.72355 12.778 9.38097 11.8921 11.1853 11.5332C12.9897 11.1743 14.86 11.3585 16.5597 12.0625C18.2593 12.7666 19.7121 13.9588 20.7342 15.4885C21.7563 17.0182 22.3018 18.8166 22.3018 20.6563C22.299 23.1224 21.3181 25.4867 19.5743 27.2305C17.8304 28.9743 15.4661 29.9552 13 29.9581Z" />
</svg>
