<svg xmlns="http://www.w3.org/2000/svg" width="36" height="36" viewBox="0 0 36 36" fill="#1D54A6">
<path d="M19.7115 9.41823L21 7.99998C20.9933 8.1199 21.0824 7.91261 21 7.99998C21.0067 7.88006 21.0722 8.09597 21 7.99998C20.9532 7.94305 21.0664 8.03198 21 7.99998C20.9336 7.96797 18.0737 8.00117 18 8C17.9263 8.00117 15.0664 7.968 15 8.00001C14.9336 8.03201 15.0468 7.94309 15 8.00001L16.2881 9.41823C12.9246 9.85319 9.85278 11.5522 7.69671 14.1702C5.54064 16.7882 4.46202 20.1287 4.67995 23.5132C4.89788 26.8978 6.39603 30.0724 8.87005 32.3922C11.3441 34.7121 14.6084 36.0031 17.9999 36.0031C21.3914 36.0031 24.6558 34.7121 27.1298 32.3922C29.6038 30.0724 31.102 26.8978 31.3199 23.5132C31.5378 20.1287 30.4592 16.7882 28.3031 14.1702C26.1471 11.5522 23.075 9.85319 19.7115 9.41823ZM17.9998 35.0156C15.5546 35.0156 13.1643 34.2905 11.1312 32.9321C9.09805 31.5736 7.51343 29.6427 6.57769 27.3836C5.64195 25.1246 5.39712 22.6387 5.87415 20.2405C6.35119 17.8423 7.52867 15.6394 9.25769 13.9103C10.9867 12.1813 13.1896 11.0039 15.5878 10.5268C17.9861 10.0498 20.4719 10.2946 22.731 11.2304C24.99 12.1661 26.9209 13.7507 28.2794 15.7838C29.6379 17.8169 30.363 20.2072 30.363 22.6524C30.3593 25.9302 29.0555 29.0727 26.7378 31.3904C24.42 33.7082 21.2776 35.0119 17.9998 35.0156Z"/><path d="M17.9998 11.4812C15.7904 11.4813 13.6307 12.1365 11.7936 13.364C9.95663 14.5915 8.52486 16.3361 7.67939 18.3774C6.83392 20.4186 6.61272 22.6647 7.04377 24.8316C7.47481 26.9985 8.53874 28.989 10.101 30.5512C11.6633 32.1135 13.6537 33.1774 15.8207 33.6085C17.9876 34.0395 20.2337 33.8183 22.2749 32.9729C24.3161 32.1274 26.0608 30.6956 27.2883 28.8586C28.5158 27.0216 29.171 24.8618 29.171 22.6525C29.1677 19.6907 27.9897 16.8512 25.8954 14.7569C23.8011 12.6626 20.9616 11.4846 17.9998 11.4812ZM17.9998 32.8388C15.9851 32.8387 14.0156 32.2412 12.3405 31.1219C10.6654 30.0025 9.35977 28.4116 8.58881 26.5502C7.81785 24.6889 7.61616 22.6407 8.00925 20.6647C8.40233 18.6887 9.37253 16.8737 10.7972 15.4491C12.2218 14.0245 14.0369 13.0543 16.0129 12.6613C17.9889 12.2683 20.037 12.47 21.8984 13.241C23.7597 14.012 25.3506 15.3177 26.4699 16.9928C27.5892 18.668 28.1867 20.6375 28.1867 22.6522C28.1837 25.353 27.1095 27.9423 25.1997 29.8521C23.2899 31.7619 20.7006 32.8358 17.9998 32.8388Z"/>
</svg>